%TF.GenerationSoftware,KiCad,Pcbnew,9.0.6*%
%TF.CreationDate,2025-11-21T11:29:12+01:00*%
%TF.ProjectId,BluPi,426c7550-692e-46b6-9963-61645f706362,1*%
%TF.SameCoordinates,Original*%
%TF.FileFunction,Copper,L2,Bot*%
%TF.FilePolarity,Positive*%
%FSLAX46Y46*%
G04 Gerber Fmt 4.6, Leading zero omitted, Abs format (unit mm)*
G04 Created by KiCad (PCBNEW 9.0.6) date 2025-11-21 11:29:12*
%MOMM*%
%LPD*%
G01*
G04 APERTURE LIST*
G04 Aperture macros list*
%AMRoundRect*
0 Rectangle with rounded corners*
0 $1 Rounding radius*
0 $2 $3 $4 $5 $6 $7 $8 $9 X,Y pos of 4 corners*
0 Add a 4 corners polygon primitive as box body*
4,1,4,$2,$3,$4,$5,$6,$7,$8,$9,$2,$3,0*
0 Add four circle primitives for the rounded corners*
1,1,$1+$1,$2,$3*
1,1,$1+$1,$4,$5*
1,1,$1+$1,$6,$7*
1,1,$1+$1,$8,$9*
0 Add four rect primitives between the rounded corners*
20,1,$1+$1,$2,$3,$4,$5,0*
20,1,$1+$1,$4,$5,$6,$7,0*
20,1,$1+$1,$6,$7,$8,$9,0*
20,1,$1+$1,$8,$9,$2,$3,0*%
G04 Aperture macros list end*
%TA.AperFunction,ComponentPad*%
%ADD10RoundRect,0.250000X-1.050000X-1.050000X1.050000X-1.050000X1.050000X1.050000X-1.050000X1.050000X0*%
%TD*%
%TA.AperFunction,ComponentPad*%
%ADD11C,2.600000*%
%TD*%
%TA.AperFunction,ComponentPad*%
%ADD12RoundRect,0.250000X1.050000X1.050000X-1.050000X1.050000X-1.050000X-1.050000X1.050000X-1.050000X0*%
%TD*%
%TA.AperFunction,ComponentPad*%
%ADD13R,1.700000X1.700000*%
%TD*%
%TA.AperFunction,ComponentPad*%
%ADD14C,1.700000*%
%TD*%
%TA.AperFunction,ViaPad*%
%ADD15C,0.600000*%
%TD*%
%TA.AperFunction,Conductor*%
%ADD16C,0.200000*%
%TD*%
G04 APERTURE END LIST*
D10*
%TO.P,J4,1,Pin_1*%
%TO.N,Net-(J4-Pin_1)*%
X241955000Y-144672500D03*
D11*
%TO.P,J4,2,Pin_2*%
%TO.N,Net-(J1-SDA_I2C1{slash}GPIO02)*%
X247035000Y-144672500D03*
%TD*%
D12*
%TO.P,J21,1,Pin_1*%
%TO.N,Net-(J21-Pin_1)*%
X212590000Y-30827500D03*
D11*
%TO.P,J21,2,Pin_2*%
%TO.N,Net-(J1-GPIO19{slash}SPI1_MISO{slash}PCM_FS)*%
X207510000Y-30827500D03*
%TD*%
D12*
%TO.P,J23,1,Pin_1*%
%TO.N,Net-(J23-Pin_1)*%
X189625000Y-31000000D03*
D11*
%TO.P,J23,2,Pin_2*%
%TO.N,Net-(J1-GPIO21{slash}SPI1_SCLK{slash}PCM_DOUT)*%
X184545000Y-31000000D03*
%TD*%
D10*
%TO.P,J13,1,Pin_1*%
%TO.N,Net-(J13-Pin_1)*%
X138455000Y-144672500D03*
D11*
%TO.P,J13,2,Pin_2*%
%TO.N,Net-(J1-SCLK_SPI0{slash}GPIO11)*%
X143535000Y-144672500D03*
%TD*%
D12*
%TO.P,J24,1,Pin_1*%
%TO.N,Net-(J24-Pin_1)*%
X178125000Y-31000000D03*
D11*
%TO.P,J24,2,Pin_2*%
%TO.N,Net-(J1-GPIO22{slash}SDIO_CLK)*%
X173045000Y-31000000D03*
%TD*%
D12*
%TO.P,J17,1,Pin_1*%
%TO.N,Net-(J17-Pin_1)*%
X258545000Y-30827500D03*
D11*
%TO.P,J17,2,Pin_2*%
%TO.N,Net-(J1-GPIO15{slash}UART_RXD)*%
X253465000Y-30827500D03*
%TD*%
D10*
%TO.P,J14,1,Pin_1*%
%TO.N,Net-(J14-Pin_1)*%
X126955000Y-144672500D03*
D11*
%TO.P,J14,2,Pin_2*%
%TO.N,Net-(J1-GPIO12{slash}PWM0)*%
X132035000Y-144672500D03*
%TD*%
D13*
%TO.P,J1,1,3V3*%
%TO.N,Net-(SW1-C)*%
X208860000Y-56040000D03*
D14*
%TO.P,J1,2,5V*%
%TO.N,Net-(J1-5V-Pad2)*%
X208860000Y-53500000D03*
%TO.P,J1,3,SDA_I2C1/GPIO02*%
%TO.N,Net-(J1-SDA_I2C1{slash}GPIO02)*%
X211400000Y-56040000D03*
%TO.P,J1,4,5V*%
%TO.N,Net-(J1-5V-Pad2)*%
X211400000Y-53500000D03*
%TO.P,J1,5,SCL_I2C1/GPIO03*%
%TO.N,Net-(J1-SCL_I2C1{slash}GPIO03)*%
X213940000Y-56040000D03*
%TO.P,J1,6,GND*%
%TO.N,Net-(SW1-A)*%
X213940000Y-53500000D03*
%TO.P,J1,7,GPCLK0/GPIO04*%
%TO.N,Net-(J1-GPCLK0{slash}GPIO04)*%
X216480000Y-56040000D03*
%TO.P,J1,8,GPIO14/UART_TXD*%
%TO.N,Net-(J1-GPIO14{slash}UART_TXD)*%
X216480000Y-53500000D03*
%TO.P,J1,9,GND*%
%TO.N,Net-(SW1-A)*%
X219020000Y-56040000D03*
%TO.P,J1,10,GPIO15/UART_RXD*%
%TO.N,Net-(J1-GPIO15{slash}UART_RXD)*%
X219020000Y-53500000D03*
%TO.P,J1,11,GPIO17/SPI1_~{CE1}*%
%TO.N,Net-(J1-GPIO17{slash}SPI1_~{CE1})*%
X221560000Y-56040000D03*
%TO.P,J1,12,GPIO18/SPI1_~{CE0}/PCM_CLK/PWM0*%
%TO.N,Net-(J1-GPIO18{slash}SPI1_~{CE0}{slash}PCM_CLK{slash}PWM0)*%
X221560000Y-53500000D03*
%TO.P,J1,13,GPIO27/SDIO_DAT3*%
%TO.N,Net-(J1-GPIO27{slash}SDIO_DAT3)*%
X224100000Y-56040000D03*
%TO.P,J1,14,GND*%
%TO.N,Net-(SW1-A)*%
X224100000Y-53500000D03*
%TO.P,J1,15,GPIO22/SDIO_CLK*%
%TO.N,Net-(J1-GPIO22{slash}SDIO_CLK)*%
X226640000Y-56040000D03*
%TO.P,J1,16,GPIO23/SDIO_CMD*%
%TO.N,Net-(J1-GPIO23{slash}SDIO_CMD)*%
X226640000Y-53500000D03*
%TO.P,J1,17,3V3*%
%TO.N,Net-(SW1-C)*%
X229180000Y-56040000D03*
%TO.P,J1,18,GPIO24/SDIO_DAT0*%
%TO.N,Net-(J1-GPIO24{slash}SDIO_DAT0)*%
X229180000Y-53500000D03*
%TO.P,J1,19,MOSI_SPI0/GPIO10*%
%TO.N,Net-(J1-MOSI_SPI0{slash}GPIO10)*%
X231720000Y-56040000D03*
%TO.P,J1,20,GND*%
%TO.N,Net-(SW1-A)*%
X231720000Y-53500000D03*
%TO.P,J1,21,MISO_SPI0/GPIO09*%
%TO.N,Net-(J1-MISO_SPI0{slash}GPIO09)*%
X234260000Y-56040000D03*
%TO.P,J1,22,GPIO25/SDIO_DAT1*%
%TO.N,Net-(J1-GPIO25{slash}SDIO_DAT1)*%
X234260000Y-53500000D03*
%TO.P,J1,23,SCLK_SPI0/GPIO11*%
%TO.N,Net-(J1-SCLK_SPI0{slash}GPIO11)*%
X236800000Y-56040000D03*
%TO.P,J1,24,~{CE0}_SPI0/GPIO08*%
%TO.N,Net-(J1-~{CE0}_SPI0{slash}GPIO08)*%
X236800000Y-53500000D03*
%TO.P,J1,25,GND*%
%TO.N,Net-(SW1-A)*%
X239340000Y-56040000D03*
%TO.P,J1,26,~{CE1}_SPI0/GPIO07*%
%TO.N,Net-(J1-~{CE1}_SPI0{slash}GPIO07)*%
X239340000Y-53500000D03*
%TO.P,J1,27,ID_SD_I2C0/GPIO00*%
%TO.N,Net-(J1-ID_SD_I2C0{slash}GPIO00)*%
X241880000Y-56040000D03*
%TO.P,J1,28,ID_SC_I2C0/GPIO01*%
%TO.N,Net-(J1-ID_SC_I2C0{slash}GPIO01)*%
X241880000Y-53500000D03*
%TO.P,J1,29,GPCLK1/GPIO05*%
%TO.N,Net-(J1-GPCLK1{slash}GPIO05)*%
X244420000Y-56040000D03*
%TO.P,J1,30,GND*%
%TO.N,Net-(SW1-A)*%
X244420000Y-53500000D03*
%TO.P,J1,31,GPCLK2/GPIO06*%
%TO.N,Net-(J1-GPCLK2{slash}GPIO06)*%
X246960000Y-56040000D03*
%TO.P,J1,32,GPIO12/PWM0*%
%TO.N,Net-(J1-GPIO12{slash}PWM0)*%
X246960000Y-53500000D03*
%TO.P,J1,33,GPIO13/PWM1*%
%TO.N,Net-(J1-GPIO13{slash}PWM1)*%
X249500000Y-56040000D03*
%TO.P,J1,34,GND*%
%TO.N,Net-(SW1-A)*%
X249500000Y-53500000D03*
%TO.P,J1,35,GPIO19/SPI1_MISO/PCM_FS*%
%TO.N,Net-(J1-GPIO19{slash}SPI1_MISO{slash}PCM_FS)*%
X252040000Y-56040000D03*
%TO.P,J1,36,GPIO16/SPI1_~{CE2}*%
%TO.N,Net-(J1-GPIO16{slash}SPI1_~{CE2})*%
X252040000Y-53500000D03*
%TO.P,J1,37,GPIO26/SDIO_DAT2*%
%TO.N,Net-(J1-GPIO26{slash}SDIO_DAT2)*%
X254580000Y-56040000D03*
%TO.P,J1,38,GPIO20/SPI1_MOSI/PCM_DIN/PWM1*%
%TO.N,Net-(J1-GPIO20{slash}SPI1_MOSI{slash}PCM_DIN{slash}PWM1)*%
X254580000Y-53500000D03*
%TO.P,J1,39,GND*%
%TO.N,Net-(SW1-A)*%
X257120000Y-56040000D03*
%TO.P,J1,40,GPIO21/SPI1_SCLK/PCM_DOUT*%
%TO.N,Net-(J1-GPIO21{slash}SPI1_SCLK{slash}PCM_DOUT)*%
X257120000Y-53500000D03*
%TD*%
D10*
%TO.P,J10,1,Pin_1*%
%TO.N,Net-(J10-Pin_1)*%
X172955000Y-144672500D03*
D11*
%TO.P,J10,2,Pin_2*%
%TO.N,Net-(J1-~{CE0}_SPI0{slash}GPIO08)*%
X178035000Y-144672500D03*
%TD*%
D10*
%TO.P,J15,1,Pin_1*%
%TO.N,Net-(J15-Pin_1)*%
X115500000Y-144672500D03*
D11*
%TO.P,J15,2,Pin_2*%
%TO.N,Net-(J1-GPIO13{slash}PWM1)*%
X120580000Y-144672500D03*
%TD*%
D12*
%TO.P,J19,1,Pin_1*%
%TO.N,Net-(J19-Pin_1)*%
X235590000Y-30827500D03*
D11*
%TO.P,J19,2,Pin_2*%
%TO.N,Net-(J1-GPIO17{slash}SPI1_~{CE1})*%
X230510000Y-30827500D03*
%TD*%
D10*
%TO.P,J11,1,Pin_1*%
%TO.N,Net-(J11-Pin_1)*%
X161455000Y-144672500D03*
D11*
%TO.P,J11,2,Pin_2*%
%TO.N,Net-(J1-MISO_SPI0{slash}GPIO09)*%
X166535000Y-144672500D03*
%TD*%
D12*
%TO.P,J25,1,Pin_1*%
%TO.N,Net-(J25-Pin_1)*%
X166625000Y-31000000D03*
D11*
%TO.P,J25,2,Pin_2*%
%TO.N,Net-(J1-GPIO23{slash}SDIO_CMD)*%
X161545000Y-31000000D03*
%TD*%
D10*
%TO.P,J9,1,Pin_1*%
%TO.N,Net-(J9-Pin_1)*%
X184455000Y-144672500D03*
D11*
%TO.P,J9,2,Pin_2*%
%TO.N,Net-(J1-~{CE1}_SPI0{slash}GPIO07)*%
X189535000Y-144672500D03*
%TD*%
D12*
%TO.P,J20,1,Pin_1*%
%TO.N,Net-(J20-Pin_1)*%
X224090000Y-30827500D03*
D11*
%TO.P,J20,2,Pin_2*%
%TO.N,Net-(J1-GPIO18{slash}SPI1_~{CE0}{slash}PCM_CLK{slash}PWM0)*%
X219010000Y-30827500D03*
%TD*%
D10*
%TO.P,J3,1,Pin_1*%
%TO.N,Net-(J3-Pin_1)*%
X253455000Y-144672500D03*
D11*
%TO.P,J3,2,Pin_2*%
%TO.N,Net-(J1-ID_SC_I2C0{slash}GPIO01)*%
X258535000Y-144672500D03*
%TD*%
D10*
%TO.P,J6,1,Pin_1*%
%TO.N,Net-(J6-Pin_1)*%
X218955000Y-144672500D03*
D11*
%TO.P,J6,2,Pin_2*%
%TO.N,Net-(J1-GPCLK0{slash}GPIO04)*%
X224035000Y-144672500D03*
%TD*%
D12*
%TO.P,J29,1,Pin_1*%
%TO.N,Net-(J29-Pin_1)*%
X120625000Y-31000000D03*
D11*
%TO.P,J29,2,Pin_2*%
%TO.N,Net-(J1-GPIO27{slash}SDIO_DAT3)*%
X115545000Y-31000000D03*
%TD*%
D12*
%TO.P,J27,1,Pin_1*%
%TO.N,Net-(J27-Pin_1)*%
X143625000Y-31000000D03*
D11*
%TO.P,J27,2,Pin_2*%
%TO.N,Net-(J1-GPIO25{slash}SDIO_DAT1)*%
X138545000Y-31000000D03*
%TD*%
D12*
%TO.P,J26,1,Pin_1*%
%TO.N,Net-(J26-Pin_1)*%
X155125000Y-31000000D03*
D11*
%TO.P,J26,2,Pin_2*%
%TO.N,Net-(J1-GPIO24{slash}SDIO_DAT0)*%
X150045000Y-31000000D03*
%TD*%
D10*
%TO.P,J7,1,Pin_1*%
%TO.N,Net-(J7-Pin_1)*%
X207455000Y-144672500D03*
D11*
%TO.P,J7,2,Pin_2*%
%TO.N,Net-(J1-GPCLK1{slash}GPIO05)*%
X212535000Y-144672500D03*
%TD*%
D10*
%TO.P,J5,1,Pin_1*%
%TO.N,Net-(J5-Pin_1)*%
X230455000Y-144672500D03*
D11*
%TO.P,J5,2,Pin_2*%
%TO.N,Net-(J1-SCL_I2C1{slash}GPIO03)*%
X235535000Y-144672500D03*
%TD*%
D10*
%TO.P,J12,1,Pin_1*%
%TO.N,Net-(J12-Pin_1)*%
X149955000Y-144672500D03*
D11*
%TO.P,J12,2,Pin_2*%
%TO.N,Net-(J1-MOSI_SPI0{slash}GPIO10)*%
X155035000Y-144672500D03*
%TD*%
D10*
%TO.P,J8,1,Pin_1*%
%TO.N,Net-(J8-Pin_1)*%
X195955000Y-144672500D03*
D11*
%TO.P,J8,2,Pin_2*%
%TO.N,Net-(J1-GPCLK2{slash}GPIO06)*%
X201035000Y-144672500D03*
%TD*%
D12*
%TO.P,J28,1,Pin_1*%
%TO.N,Net-(J28-Pin_1)*%
X132125000Y-31000000D03*
D11*
%TO.P,J28,2,Pin_2*%
%TO.N,Net-(J1-GPIO26{slash}SDIO_DAT2)*%
X127045000Y-31000000D03*
%TD*%
D12*
%TO.P,J16,1,Pin_1*%
%TO.N,Net-(J16-Pin_1)*%
X270045000Y-30827500D03*
D11*
%TO.P,J16,2,Pin_2*%
%TO.N,Net-(J1-GPIO14{slash}UART_TXD)*%
X264965000Y-30827500D03*
%TD*%
D12*
%TO.P,J18,1,Pin_1*%
%TO.N,Net-(J18-Pin_1)*%
X247045000Y-30827500D03*
D11*
%TO.P,J18,2,Pin_2*%
%TO.N,Net-(J1-GPIO16{slash}SPI1_~{CE2})*%
X241965000Y-30827500D03*
%TD*%
D12*
%TO.P,J22,1,Pin_1*%
%TO.N,Net-(J22-Pin_1)*%
X201090000Y-30827500D03*
D11*
%TO.P,J22,2,Pin_2*%
%TO.N,Net-(J1-GPIO20{slash}SPI1_MOSI{slash}PCM_DIN{slash}PWM1)*%
X196010000Y-30827500D03*
%TD*%
D10*
%TO.P,J2,1,Pin_1*%
%TO.N,Net-(J2-Pin_1)*%
X264920000Y-144672500D03*
D11*
%TO.P,J2,2,Pin_2*%
%TO.N,Net-(J1-ID_SD_I2C0{slash}GPIO00)*%
X270000000Y-144672500D03*
%TD*%
D15*
%TO.N,Net-(J1-GPIO14{slash}UART_TXD)*%
X215143807Y-48920000D03*
%TO.N,Net-(J1-GPIO23{slash}SDIO_CMD)*%
X209824726Y-49405805D03*
%TO.N,Net-(J1-MISO_SPI0{slash}GPIO09)*%
X166500000Y-123800000D03*
%TO.N,Net-(J1-~{CE0}_SPI0{slash}GPIO08)*%
X178000000Y-120500000D03*
X237951000Y-60500000D03*
%TO.N,Net-(J1-GPIO17{slash}SPI1_~{CE1})*%
X221000000Y-51000000D03*
%TO.N,Net-(J1-GPIO25{slash}SDIO_DAT1)*%
X163000000Y-47500000D03*
%TO.N,Net-(J1-GPIO13{slash}PWM1)*%
X223000000Y-82500000D03*
%TO.N,Net-(J1-GPCLK2{slash}GPIO06)*%
X201000000Y-102000000D03*
%TO.N,Net-(J1-MOSI_SPI0{slash}GPIO10)*%
X155000000Y-124000000D03*
%TO.N,Net-(J1-GPIO27{slash}SDIO_DAT3)*%
X121000000Y-48000000D03*
%TO.N,Net-(J1-GPIO20{slash}SPI1_MOSI{slash}PCM_DIN{slash}PWM1)*%
X200050000Y-46580000D03*
%TO.N,Net-(J1-GPIO24{slash}SDIO_DAT0)*%
X152500000Y-46000000D03*
%TO.N,Net-(J1-SCLK_SPI0{slash}GPIO11)*%
X209920000Y-83080000D03*
%TO.N,Net-(J1-GPIO14{slash}UART_TXD)*%
X225000000Y-49000000D03*
%TO.N,Net-(J1-SCL_I2C1{slash}GPIO03)*%
X235400000Y-77500000D03*
X235500000Y-125000000D03*
%TO.N,Net-(SW1-C)*%
X255246437Y-127500000D03*
X222336820Y-44890253D03*
X266698490Y-127500000D03*
X197763489Y-127500000D03*
X268226335Y-44890253D03*
X232259462Y-127500000D03*
X151756423Y-127500000D03*
X130399902Y-44890253D03*
X245216041Y-44890253D03*
X186254490Y-127500000D03*
X128699733Y-127463151D03*
X210815626Y-44890253D03*
X256843331Y-44890253D03*
X176410592Y-44890253D03*
X117250000Y-127500000D03*
X209241466Y-127500000D03*
X140500000Y-127500000D03*
X164889398Y-44890253D03*
X163237629Y-127500000D03*
X153368204Y-44890253D03*
X187878937Y-44890253D03*
X118877608Y-44877608D03*
X220750464Y-127500000D03*
X174745492Y-127500000D03*
X243768461Y-127500000D03*
X233872267Y-44890253D03*
X141873435Y-44890253D03*
X199373706Y-44890253D03*
%TO.N,Net-(J1-GPIO15{slash}UART_RXD)*%
X220000000Y-51000000D03*
%TO.N,Net-(J1-GPCLK1{slash}GPIO05)*%
X212500000Y-87960000D03*
%TO.N,Net-(J1-GPIO26{slash}SDIO_DAT2)*%
X209907403Y-50601000D03*
X222825735Y-51174265D03*
%TO.N,Net-(J1-GPIO16{slash}SPI1_~{CE2})*%
X245770000Y-47230000D03*
%TO.N,Net-(J1-~{CE1}_SPI0{slash}GPIO07)*%
X184000000Y-112500000D03*
%TO.N,Net-(J1-GPCLK0{slash}GPIO04)*%
X216500000Y-66000000D03*
%TO.N,Net-(J1-GPIO21{slash}SPI1_SCLK{slash}PCM_DOUT)*%
X187000000Y-46000000D03*
%TO.N,Net-(J1-GPIO12{slash}PWM0)*%
X132000000Y-126000000D03*
%TO.N,Net-(J1-GPIO19{slash}SPI1_MISO{slash}PCM_FS)*%
X212100000Y-47100000D03*
%TD*%
D16*
%TO.N,Net-(J1-GPIO24{slash}SDIO_DAT0)*%
X229180000Y-53500000D02*
X229180000Y-52180000D01*
X225342308Y-48342308D02*
X215387774Y-48342308D01*
X215384466Y-48339000D02*
X163481659Y-48339000D01*
X229180000Y-52180000D02*
X225342308Y-48342308D01*
X215387774Y-48342308D02*
X215384466Y-48339000D01*
X162858341Y-48481000D02*
X162716341Y-48339000D01*
X163481659Y-48339000D02*
X163339659Y-48481000D01*
X163339659Y-48481000D02*
X162858341Y-48481000D01*
X162716341Y-48339000D02*
X154839000Y-48339000D01*
X154839000Y-48339000D02*
X152500000Y-46000000D01*
%TO.N,Net-(J1-GPIO14{slash}UART_TXD)*%
X215223807Y-49000000D02*
X225000000Y-49000000D01*
X215143807Y-48920000D02*
X215223807Y-49000000D01*
%TO.N,Net-(J1-GPIO16{slash}SPI1_~{CE2})*%
X252040000Y-53500000D02*
X245770000Y-47230000D01*
%TO.N,Net-(J1-GPIO26{slash}SDIO_DAT2)*%
X222825735Y-51174265D02*
X222039275Y-50387805D01*
X222039275Y-50387805D02*
X210120598Y-50387805D01*
X210120598Y-50387805D02*
X209907403Y-50601000D01*
%TO.N,Net-(J1-GPIO27{slash}SDIO_DAT3)*%
X222500000Y-50000000D02*
X209327660Y-50000000D01*
X225500000Y-53987760D02*
X225489000Y-53976760D01*
X224100000Y-56040000D02*
X225500000Y-54640000D01*
X225500000Y-53012240D02*
X225500000Y-53000000D01*
X225489000Y-53023240D02*
X225500000Y-53012240D01*
X209327660Y-50000000D02*
X209326660Y-50001000D01*
X225500000Y-53000000D02*
X222500000Y-50000000D01*
X209251057Y-50001000D02*
X209250057Y-50000000D01*
X225489000Y-53976760D02*
X225489000Y-53023240D01*
X209326660Y-50001000D02*
X209251057Y-50001000D01*
X225500000Y-54640000D02*
X225500000Y-53987760D01*
X209250057Y-50000000D02*
X123000000Y-50000000D01*
X123000000Y-50000000D02*
X121000000Y-48000000D01*
%TO.N,Net-(J1-GPIO23{slash}SDIO_CMD)*%
X209824726Y-49405805D02*
X209905805Y-49405805D01*
X210015044Y-49500000D02*
X222567100Y-49500000D01*
X222938779Y-49871679D02*
X223011679Y-49871679D01*
X223011679Y-49871679D02*
X226640000Y-53500000D01*
X209905805Y-49405805D02*
X210007522Y-49507522D01*
X210007522Y-49507522D02*
X210015044Y-49500000D01*
X222567100Y-49500000D02*
X222938779Y-49871679D01*
%TO.N,Net-(J1-GPIO19{slash}SPI1_MISO{slash}PCM_FS)*%
X212100000Y-47100000D02*
X212200000Y-47000000D01*
X212200000Y-47000000D02*
X244627760Y-47000000D01*
X250651000Y-53023240D02*
X250651000Y-54651000D01*
X244627760Y-47000000D02*
X250651000Y-53023240D01*
X250651000Y-54651000D02*
X252040000Y-56040000D01*
%TO.N,Net-(J1-GPIO20{slash}SPI1_MOSI{slash}PCM_DIN{slash}PWM1)*%
X200050000Y-46580000D02*
X200130000Y-46500000D01*
X200130000Y-46500000D02*
X247580000Y-46500000D01*
X247580000Y-46500000D02*
X254580000Y-53500000D01*
%TO.N,Net-(J1-MISO_SPI0{slash}GPIO09)*%
X234260000Y-56040000D02*
X166500000Y-123800000D01*
%TO.N,Net-(SW1-A)*%
X222711000Y-56516760D02*
X222036760Y-57191000D01*
X217869000Y-54889000D02*
X219020000Y-56040000D01*
X243031000Y-54889000D02*
X244420000Y-53500000D01*
X224100000Y-53500000D02*
X222711000Y-54889000D01*
X215329000Y-54889000D02*
X217869000Y-54889000D01*
X220171000Y-57191000D02*
X219020000Y-56040000D01*
X222036760Y-57191000D02*
X220171000Y-57191000D01*
X213940000Y-53500000D02*
X215329000Y-54889000D01*
X222711000Y-54889000D02*
X222711000Y-56516760D01*
X239340000Y-56040000D02*
X240491000Y-54889000D01*
X240491000Y-54889000D02*
X243031000Y-54889000D01*
%TO.N,Net-(J1-~{CE0}_SPI0{slash}GPIO08)*%
X237951000Y-60549000D02*
X178000000Y-120500000D01*
X237951000Y-60500000D02*
X237951000Y-60549000D01*
%TO.N,Net-(J1-GPIO17{slash}SPI1_~{CE1})*%
X221000000Y-51000000D02*
X220171000Y-51829000D01*
X220171000Y-54651000D02*
X221560000Y-56040000D01*
X220171000Y-51829000D02*
X220171000Y-54651000D01*
%TO.N,Net-(J1-GPIO25{slash}SDIO_DAT1)*%
X234260000Y-53500000D02*
X228661000Y-47901000D01*
%TO.N,Net-(J1-GPIO13{slash}PWM1)*%
X223040000Y-82500000D02*
X223000000Y-82500000D01*
X249500000Y-56040000D02*
X223040000Y-82500000D01*
%TO.N,Net-(J1-GPCLK2{slash}GPIO06)*%
X246960000Y-56040000D02*
X201000000Y-102000000D01*
%TO.N,Net-(J1-MOSI_SPI0{slash}GPIO10)*%
X163760000Y-124000000D02*
X155000000Y-124000000D01*
X231720000Y-56040000D02*
X163760000Y-124000000D01*
%TO.N,Net-(J1-SCLK_SPI0{slash}GPIO11)*%
X209920000Y-83080000D02*
X209920000Y-82920000D01*
X209920000Y-82920000D02*
X236800000Y-56040000D01*
%TO.N,Net-(J1-SCL_I2C1{slash}GPIO03)*%
X235500000Y-77600000D02*
X235400000Y-77500000D01*
X235500000Y-125000000D02*
X235500000Y-77600000D01*
%TO.N,Net-(SW1-C)*%
X130399902Y-44890253D02*
X141873435Y-44890253D01*
X174745492Y-127500000D02*
X186254490Y-127500000D01*
X163237629Y-127500000D02*
X174745492Y-127500000D01*
X176410592Y-44890253D02*
X187878937Y-44890253D01*
X151756423Y-127500000D02*
X140500000Y-127500000D01*
X256843331Y-44890253D02*
X268226335Y-44890253D01*
X229180000Y-56040000D02*
X217720000Y-67500000D01*
X153368204Y-44890253D02*
X164889398Y-44890253D01*
X199373706Y-44890253D02*
X210815626Y-44890253D01*
X217720000Y-67500000D02*
X215000000Y-67500000D01*
X245216041Y-44890253D02*
X256843331Y-44890253D01*
X197763489Y-127500000D02*
X209241466Y-127500000D01*
X255246437Y-127500000D02*
X266698490Y-127500000D01*
X130399902Y-44890253D02*
X118890253Y-44890253D01*
X151756423Y-127500000D02*
X163237629Y-127500000D01*
X232259462Y-127500000D02*
X243768461Y-127500000D01*
X187878937Y-44890253D02*
X199373706Y-44890253D01*
X164889398Y-44890253D02*
X176410592Y-44890253D01*
X243768461Y-127500000D02*
X255246437Y-127500000D01*
X209241466Y-127500000D02*
X220750464Y-127500000D01*
X220750464Y-127500000D02*
X232259462Y-127500000D01*
X208860000Y-61360000D02*
X208860000Y-56040000D01*
X222336820Y-44890253D02*
X233872267Y-44890253D01*
X117250000Y-127500000D02*
X140500000Y-127500000D01*
X215000000Y-67500000D02*
X208860000Y-61360000D01*
X141873435Y-44890253D02*
X153368204Y-44890253D01*
X186254490Y-127500000D02*
X197763489Y-127500000D01*
X118890253Y-44890253D02*
X118877608Y-44877608D01*
X210815626Y-44890253D02*
X222336820Y-44890253D01*
X233872267Y-44890253D02*
X245216041Y-44890253D01*
%TO.N,Net-(J1-GPIO15{slash}UART_RXD)*%
X219020000Y-51980000D02*
X220000000Y-51000000D01*
X219020000Y-53500000D02*
X219020000Y-51980000D01*
%TO.N,Net-(J1-GPCLK1{slash}GPIO05)*%
X244420000Y-56040000D02*
X212500000Y-87960000D01*
%TO.N,Net-(J1-~{CE1}_SPI0{slash}GPIO07)*%
X238189000Y-54651000D02*
X239340000Y-53500000D01*
X184000000Y-112500000D02*
X238189000Y-58311000D01*
X238189000Y-58311000D02*
X238189000Y-54651000D01*
%TO.N,Net-(J1-5V-Pad2)*%
X208860000Y-53500000D02*
X211400000Y-53500000D01*
%TO.N,Net-(J1-GPCLK0{slash}GPIO04)*%
X216500000Y-66000000D02*
X216500000Y-65500000D01*
X216500000Y-65500000D02*
X216480000Y-65480000D01*
X216480000Y-65480000D02*
X216480000Y-56040000D01*
%TO.N,Net-(J1-GPIO21{slash}SPI1_SCLK{slash}PCM_DOUT)*%
X249620000Y-46000000D02*
X257120000Y-53500000D01*
X187000000Y-46000000D02*
X249620000Y-46000000D01*
%TO.N,Net-(J1-GPIO12{slash}PWM0)*%
X243943240Y-54889000D02*
X243269000Y-55563240D01*
X246960000Y-53500000D02*
X245571000Y-54889000D01*
X243269000Y-56341057D02*
X173610057Y-126000000D01*
X245571000Y-54889000D02*
X243943240Y-54889000D01*
X173610057Y-126000000D02*
X132000000Y-126000000D01*
X243269000Y-55563240D02*
X243269000Y-56341057D01*
%TO.N,Net-(J1-GPIO26{slash}SDIO_DAT2)*%
X209907403Y-50601000D02*
X210000000Y-50601000D01*
%TD*%
M02*
