%TF.GenerationSoftware,KiCad,Pcbnew,9.0.6*%
%TF.CreationDate,2025-11-21T11:29:12+01:00*%
%TF.ProjectId,BluPi,426c7550-692e-46b6-9963-61645f706362,1*%
%TF.SameCoordinates,Original*%
%TF.FileFunction,Legend,Top*%
%TF.FilePolarity,Positive*%
%FSLAX46Y46*%
G04 Gerber Fmt 4.6, Leading zero omitted, Abs format (unit mm)*
G04 Created by KiCad (PCBNEW 9.0.6) date 2025-11-21 11:29:12*
%MOMM*%
%LPD*%
G01*
G04 APERTURE LIST*
%ADD10C,0.100000*%
%ADD11C,0.150000*%
%ADD12C,0.120000*%
G04 APERTURE END LIST*
D10*
X120637217Y-76628721D02*
X120780074Y-76676340D01*
X120780074Y-76676340D02*
X120827693Y-76723959D01*
X120827693Y-76723959D02*
X120875312Y-76819197D01*
X120875312Y-76819197D02*
X120875312Y-76962054D01*
X120875312Y-76962054D02*
X120827693Y-77057292D01*
X120827693Y-77057292D02*
X120780074Y-77104912D01*
X120780074Y-77104912D02*
X120684836Y-77152531D01*
X120684836Y-77152531D02*
X120303884Y-77152531D01*
X120303884Y-77152531D02*
X120303884Y-76152531D01*
X120303884Y-76152531D02*
X120637217Y-76152531D01*
X120637217Y-76152531D02*
X120732455Y-76200150D01*
X120732455Y-76200150D02*
X120780074Y-76247769D01*
X120780074Y-76247769D02*
X120827693Y-76343007D01*
X120827693Y-76343007D02*
X120827693Y-76438245D01*
X120827693Y-76438245D02*
X120780074Y-76533483D01*
X120780074Y-76533483D02*
X120732455Y-76581102D01*
X120732455Y-76581102D02*
X120637217Y-76628721D01*
X120637217Y-76628721D02*
X120303884Y-76628721D01*
X121446741Y-77152531D02*
X121351503Y-77104912D01*
X121351503Y-77104912D02*
X121303884Y-77009673D01*
X121303884Y-77009673D02*
X121303884Y-76152531D01*
X122256265Y-77152531D02*
X122256265Y-76628721D01*
X122256265Y-76628721D02*
X122208646Y-76533483D01*
X122208646Y-76533483D02*
X122113408Y-76485864D01*
X122113408Y-76485864D02*
X121922932Y-76485864D01*
X121922932Y-76485864D02*
X121827694Y-76533483D01*
X122256265Y-77104912D02*
X122161027Y-77152531D01*
X122161027Y-77152531D02*
X121922932Y-77152531D01*
X121922932Y-77152531D02*
X121827694Y-77104912D01*
X121827694Y-77104912D02*
X121780075Y-77009673D01*
X121780075Y-77009673D02*
X121780075Y-76914435D01*
X121780075Y-76914435D02*
X121827694Y-76819197D01*
X121827694Y-76819197D02*
X121922932Y-76771578D01*
X121922932Y-76771578D02*
X122161027Y-76771578D01*
X122161027Y-76771578D02*
X122256265Y-76723959D01*
X123161027Y-76485864D02*
X123161027Y-77152531D01*
X122732456Y-76485864D02*
X122732456Y-77009673D01*
X122732456Y-77009673D02*
X122780075Y-77104912D01*
X122780075Y-77104912D02*
X122875313Y-77152531D01*
X122875313Y-77152531D02*
X123018170Y-77152531D01*
X123018170Y-77152531D02*
X123113408Y-77104912D01*
X123113408Y-77104912D02*
X123161027Y-77057292D01*
X123541980Y-76485864D02*
X123732456Y-77152531D01*
X123732456Y-77152531D02*
X123922932Y-76676340D01*
X123922932Y-76676340D02*
X124113408Y-77152531D01*
X124113408Y-77152531D02*
X124303884Y-76485864D01*
X125065789Y-77104912D02*
X124970551Y-77152531D01*
X124970551Y-77152531D02*
X124780075Y-77152531D01*
X124780075Y-77152531D02*
X124684837Y-77104912D01*
X124684837Y-77104912D02*
X124637218Y-77009673D01*
X124637218Y-77009673D02*
X124637218Y-76628721D01*
X124637218Y-76628721D02*
X124684837Y-76533483D01*
X124684837Y-76533483D02*
X124780075Y-76485864D01*
X124780075Y-76485864D02*
X124970551Y-76485864D01*
X124970551Y-76485864D02*
X125065789Y-76533483D01*
X125065789Y-76533483D02*
X125113408Y-76628721D01*
X125113408Y-76628721D02*
X125113408Y-76723959D01*
X125113408Y-76723959D02*
X124637218Y-76819197D01*
X126637218Y-76628721D02*
X126780075Y-76676340D01*
X126780075Y-76676340D02*
X126827694Y-76723959D01*
X126827694Y-76723959D02*
X126875313Y-76819197D01*
X126875313Y-76819197D02*
X126875313Y-76962054D01*
X126875313Y-76962054D02*
X126827694Y-77057292D01*
X126827694Y-77057292D02*
X126780075Y-77104912D01*
X126780075Y-77104912D02*
X126684837Y-77152531D01*
X126684837Y-77152531D02*
X126303885Y-77152531D01*
X126303885Y-77152531D02*
X126303885Y-76152531D01*
X126303885Y-76152531D02*
X126637218Y-76152531D01*
X126637218Y-76152531D02*
X126732456Y-76200150D01*
X126732456Y-76200150D02*
X126780075Y-76247769D01*
X126780075Y-76247769D02*
X126827694Y-76343007D01*
X126827694Y-76343007D02*
X126827694Y-76438245D01*
X126827694Y-76438245D02*
X126780075Y-76533483D01*
X126780075Y-76533483D02*
X126732456Y-76581102D01*
X126732456Y-76581102D02*
X126637218Y-76628721D01*
X126637218Y-76628721D02*
X126303885Y-76628721D01*
X127732456Y-77152531D02*
X127732456Y-76628721D01*
X127732456Y-76628721D02*
X127684837Y-76533483D01*
X127684837Y-76533483D02*
X127589599Y-76485864D01*
X127589599Y-76485864D02*
X127399123Y-76485864D01*
X127399123Y-76485864D02*
X127303885Y-76533483D01*
X127732456Y-77104912D02*
X127637218Y-77152531D01*
X127637218Y-77152531D02*
X127399123Y-77152531D01*
X127399123Y-77152531D02*
X127303885Y-77104912D01*
X127303885Y-77104912D02*
X127256266Y-77009673D01*
X127256266Y-77009673D02*
X127256266Y-76914435D01*
X127256266Y-76914435D02*
X127303885Y-76819197D01*
X127303885Y-76819197D02*
X127399123Y-76771578D01*
X127399123Y-76771578D02*
X127637218Y-76771578D01*
X127637218Y-76771578D02*
X127732456Y-76723959D01*
X128637218Y-76485864D02*
X128637218Y-77295388D01*
X128637218Y-77295388D02*
X128589599Y-77390626D01*
X128589599Y-77390626D02*
X128541980Y-77438245D01*
X128541980Y-77438245D02*
X128446742Y-77485864D01*
X128446742Y-77485864D02*
X128303885Y-77485864D01*
X128303885Y-77485864D02*
X128208647Y-77438245D01*
X128637218Y-77104912D02*
X128541980Y-77152531D01*
X128541980Y-77152531D02*
X128351504Y-77152531D01*
X128351504Y-77152531D02*
X128256266Y-77104912D01*
X128256266Y-77104912D02*
X128208647Y-77057292D01*
X128208647Y-77057292D02*
X128161028Y-76962054D01*
X128161028Y-76962054D02*
X128161028Y-76676340D01*
X128161028Y-76676340D02*
X128208647Y-76581102D01*
X128208647Y-76581102D02*
X128256266Y-76533483D01*
X128256266Y-76533483D02*
X128351504Y-76485864D01*
X128351504Y-76485864D02*
X128541980Y-76485864D01*
X128541980Y-76485864D02*
X128637218Y-76533483D01*
X129541980Y-76485864D02*
X129541980Y-77295388D01*
X129541980Y-77295388D02*
X129494361Y-77390626D01*
X129494361Y-77390626D02*
X129446742Y-77438245D01*
X129446742Y-77438245D02*
X129351504Y-77485864D01*
X129351504Y-77485864D02*
X129208647Y-77485864D01*
X129208647Y-77485864D02*
X129113409Y-77438245D01*
X129541980Y-77104912D02*
X129446742Y-77152531D01*
X129446742Y-77152531D02*
X129256266Y-77152531D01*
X129256266Y-77152531D02*
X129161028Y-77104912D01*
X129161028Y-77104912D02*
X129113409Y-77057292D01*
X129113409Y-77057292D02*
X129065790Y-76962054D01*
X129065790Y-76962054D02*
X129065790Y-76676340D01*
X129065790Y-76676340D02*
X129113409Y-76581102D01*
X129113409Y-76581102D02*
X129161028Y-76533483D01*
X129161028Y-76533483D02*
X129256266Y-76485864D01*
X129256266Y-76485864D02*
X129446742Y-76485864D01*
X129446742Y-76485864D02*
X129541980Y-76533483D01*
X130399123Y-77104912D02*
X130303885Y-77152531D01*
X130303885Y-77152531D02*
X130113409Y-77152531D01*
X130113409Y-77152531D02*
X130018171Y-77104912D01*
X130018171Y-77104912D02*
X129970552Y-77009673D01*
X129970552Y-77009673D02*
X129970552Y-76628721D01*
X129970552Y-76628721D02*
X130018171Y-76533483D01*
X130018171Y-76533483D02*
X130113409Y-76485864D01*
X130113409Y-76485864D02*
X130303885Y-76485864D01*
X130303885Y-76485864D02*
X130399123Y-76533483D01*
X130399123Y-76533483D02*
X130446742Y-76628721D01*
X130446742Y-76628721D02*
X130446742Y-76723959D01*
X130446742Y-76723959D02*
X129970552Y-76819197D01*
X130875314Y-77152531D02*
X130875314Y-76485864D01*
X130875314Y-76676340D02*
X130922933Y-76581102D01*
X130922933Y-76581102D02*
X130970552Y-76533483D01*
X130970552Y-76533483D02*
X131065790Y-76485864D01*
X131065790Y-76485864D02*
X131161028Y-76485864D01*
X120637217Y-78238665D02*
X120780074Y-78286284D01*
X120780074Y-78286284D02*
X120827693Y-78333903D01*
X120827693Y-78333903D02*
X120875312Y-78429141D01*
X120875312Y-78429141D02*
X120875312Y-78571998D01*
X120875312Y-78571998D02*
X120827693Y-78667236D01*
X120827693Y-78667236D02*
X120780074Y-78714856D01*
X120780074Y-78714856D02*
X120684836Y-78762475D01*
X120684836Y-78762475D02*
X120303884Y-78762475D01*
X120303884Y-78762475D02*
X120303884Y-77762475D01*
X120303884Y-77762475D02*
X120637217Y-77762475D01*
X120637217Y-77762475D02*
X120732455Y-77810094D01*
X120732455Y-77810094D02*
X120780074Y-77857713D01*
X120780074Y-77857713D02*
X120827693Y-77952951D01*
X120827693Y-77952951D02*
X120827693Y-78048189D01*
X120827693Y-78048189D02*
X120780074Y-78143427D01*
X120780074Y-78143427D02*
X120732455Y-78191046D01*
X120732455Y-78191046D02*
X120637217Y-78238665D01*
X120637217Y-78238665D02*
X120303884Y-78238665D01*
X121446741Y-78762475D02*
X121351503Y-78714856D01*
X121351503Y-78714856D02*
X121303884Y-78619617D01*
X121303884Y-78619617D02*
X121303884Y-77762475D01*
X122256265Y-78095808D02*
X122256265Y-78762475D01*
X121827694Y-78095808D02*
X121827694Y-78619617D01*
X121827694Y-78619617D02*
X121875313Y-78714856D01*
X121875313Y-78714856D02*
X121970551Y-78762475D01*
X121970551Y-78762475D02*
X122113408Y-78762475D01*
X122113408Y-78762475D02*
X122208646Y-78714856D01*
X122208646Y-78714856D02*
X122256265Y-78667236D01*
X123113408Y-78714856D02*
X123018170Y-78762475D01*
X123018170Y-78762475D02*
X122827694Y-78762475D01*
X122827694Y-78762475D02*
X122732456Y-78714856D01*
X122732456Y-78714856D02*
X122684837Y-78619617D01*
X122684837Y-78619617D02*
X122684837Y-78238665D01*
X122684837Y-78238665D02*
X122732456Y-78143427D01*
X122732456Y-78143427D02*
X122827694Y-78095808D01*
X122827694Y-78095808D02*
X123018170Y-78095808D01*
X123018170Y-78095808D02*
X123113408Y-78143427D01*
X123113408Y-78143427D02*
X123161027Y-78238665D01*
X123161027Y-78238665D02*
X123161027Y-78333903D01*
X123161027Y-78333903D02*
X122684837Y-78429141D01*
X123589599Y-78762475D02*
X123589599Y-77762475D01*
X123589599Y-78143427D02*
X123684837Y-78095808D01*
X123684837Y-78095808D02*
X123875313Y-78095808D01*
X123875313Y-78095808D02*
X123970551Y-78143427D01*
X123970551Y-78143427D02*
X124018170Y-78191046D01*
X124018170Y-78191046D02*
X124065789Y-78286284D01*
X124065789Y-78286284D02*
X124065789Y-78571998D01*
X124065789Y-78571998D02*
X124018170Y-78667236D01*
X124018170Y-78667236D02*
X123970551Y-78714856D01*
X123970551Y-78714856D02*
X123875313Y-78762475D01*
X123875313Y-78762475D02*
X123684837Y-78762475D01*
X123684837Y-78762475D02*
X123589599Y-78714856D01*
X124922932Y-78762475D02*
X124922932Y-78238665D01*
X124922932Y-78238665D02*
X124875313Y-78143427D01*
X124875313Y-78143427D02*
X124780075Y-78095808D01*
X124780075Y-78095808D02*
X124589599Y-78095808D01*
X124589599Y-78095808D02*
X124494361Y-78143427D01*
X124922932Y-78714856D02*
X124827694Y-78762475D01*
X124827694Y-78762475D02*
X124589599Y-78762475D01*
X124589599Y-78762475D02*
X124494361Y-78714856D01*
X124494361Y-78714856D02*
X124446742Y-78619617D01*
X124446742Y-78619617D02*
X124446742Y-78524379D01*
X124446742Y-78524379D02*
X124494361Y-78429141D01*
X124494361Y-78429141D02*
X124589599Y-78381522D01*
X124589599Y-78381522D02*
X124827694Y-78381522D01*
X124827694Y-78381522D02*
X124922932Y-78333903D01*
X125827694Y-78095808D02*
X125827694Y-78905332D01*
X125827694Y-78905332D02*
X125780075Y-79000570D01*
X125780075Y-79000570D02*
X125732456Y-79048189D01*
X125732456Y-79048189D02*
X125637218Y-79095808D01*
X125637218Y-79095808D02*
X125494361Y-79095808D01*
X125494361Y-79095808D02*
X125399123Y-79048189D01*
X125827694Y-78714856D02*
X125732456Y-78762475D01*
X125732456Y-78762475D02*
X125541980Y-78762475D01*
X125541980Y-78762475D02*
X125446742Y-78714856D01*
X125446742Y-78714856D02*
X125399123Y-78667236D01*
X125399123Y-78667236D02*
X125351504Y-78571998D01*
X125351504Y-78571998D02*
X125351504Y-78286284D01*
X125351504Y-78286284D02*
X125399123Y-78191046D01*
X125399123Y-78191046D02*
X125446742Y-78143427D01*
X125446742Y-78143427D02*
X125541980Y-78095808D01*
X125541980Y-78095808D02*
X125732456Y-78095808D01*
X125732456Y-78095808D02*
X125827694Y-78143427D01*
X126732456Y-78095808D02*
X126732456Y-78905332D01*
X126732456Y-78905332D02*
X126684837Y-79000570D01*
X126684837Y-79000570D02*
X126637218Y-79048189D01*
X126637218Y-79048189D02*
X126541980Y-79095808D01*
X126541980Y-79095808D02*
X126399123Y-79095808D01*
X126399123Y-79095808D02*
X126303885Y-79048189D01*
X126732456Y-78714856D02*
X126637218Y-78762475D01*
X126637218Y-78762475D02*
X126446742Y-78762475D01*
X126446742Y-78762475D02*
X126351504Y-78714856D01*
X126351504Y-78714856D02*
X126303885Y-78667236D01*
X126303885Y-78667236D02*
X126256266Y-78571998D01*
X126256266Y-78571998D02*
X126256266Y-78286284D01*
X126256266Y-78286284D02*
X126303885Y-78191046D01*
X126303885Y-78191046D02*
X126351504Y-78143427D01*
X126351504Y-78143427D02*
X126446742Y-78095808D01*
X126446742Y-78095808D02*
X126637218Y-78095808D01*
X126637218Y-78095808D02*
X126732456Y-78143427D01*
X127113409Y-78095808D02*
X127351504Y-78762475D01*
X127589599Y-78095808D02*
X127351504Y-78762475D01*
X127351504Y-78762475D02*
X127256266Y-79000570D01*
X127256266Y-79000570D02*
X127208647Y-79048189D01*
X127208647Y-79048189D02*
X127113409Y-79095808D01*
X128732457Y-78762475D02*
X128732457Y-77762475D01*
X128732457Y-77762475D02*
X129113409Y-77762475D01*
X129113409Y-77762475D02*
X129208647Y-77810094D01*
X129208647Y-77810094D02*
X129256266Y-77857713D01*
X129256266Y-77857713D02*
X129303885Y-77952951D01*
X129303885Y-77952951D02*
X129303885Y-78095808D01*
X129303885Y-78095808D02*
X129256266Y-78191046D01*
X129256266Y-78191046D02*
X129208647Y-78238665D01*
X129208647Y-78238665D02*
X129113409Y-78286284D01*
X129113409Y-78286284D02*
X128732457Y-78286284D01*
X129732457Y-78762475D02*
X129732457Y-78095808D01*
X129732457Y-77762475D02*
X129684838Y-77810094D01*
X129684838Y-77810094D02*
X129732457Y-77857713D01*
X129732457Y-77857713D02*
X129780076Y-77810094D01*
X129780076Y-77810094D02*
X129732457Y-77762475D01*
X129732457Y-77762475D02*
X129732457Y-77857713D01*
X120875312Y-80372419D02*
X120541979Y-79896228D01*
X120303884Y-80372419D02*
X120303884Y-79372419D01*
X120303884Y-79372419D02*
X120684836Y-79372419D01*
X120684836Y-79372419D02*
X120780074Y-79420038D01*
X120780074Y-79420038D02*
X120827693Y-79467657D01*
X120827693Y-79467657D02*
X120875312Y-79562895D01*
X120875312Y-79562895D02*
X120875312Y-79705752D01*
X120875312Y-79705752D02*
X120827693Y-79800990D01*
X120827693Y-79800990D02*
X120780074Y-79848609D01*
X120780074Y-79848609D02*
X120684836Y-79896228D01*
X120684836Y-79896228D02*
X120303884Y-79896228D01*
X121684836Y-80324800D02*
X121589598Y-80372419D01*
X121589598Y-80372419D02*
X121399122Y-80372419D01*
X121399122Y-80372419D02*
X121303884Y-80324800D01*
X121303884Y-80324800D02*
X121256265Y-80229561D01*
X121256265Y-80229561D02*
X121256265Y-79848609D01*
X121256265Y-79848609D02*
X121303884Y-79753371D01*
X121303884Y-79753371D02*
X121399122Y-79705752D01*
X121399122Y-79705752D02*
X121589598Y-79705752D01*
X121589598Y-79705752D02*
X121684836Y-79753371D01*
X121684836Y-79753371D02*
X121732455Y-79848609D01*
X121732455Y-79848609D02*
X121732455Y-79943847D01*
X121732455Y-79943847D02*
X121256265Y-80039085D01*
X122065789Y-79705752D02*
X122303884Y-80372419D01*
X122303884Y-80372419D02*
X122541979Y-79705752D01*
X122922932Y-80277180D02*
X122970551Y-80324800D01*
X122970551Y-80324800D02*
X122922932Y-80372419D01*
X122922932Y-80372419D02*
X122875313Y-80324800D01*
X122875313Y-80324800D02*
X122922932Y-80277180D01*
X122922932Y-80277180D02*
X122922932Y-80372419D01*
X124684836Y-80372419D02*
X124113408Y-80372419D01*
X124399122Y-80372419D02*
X124399122Y-79372419D01*
X124399122Y-79372419D02*
X124303884Y-79515276D01*
X124303884Y-79515276D02*
X124208646Y-79610514D01*
X124208646Y-79610514D02*
X124113408Y-79658133D01*
X125113408Y-80277180D02*
X125161027Y-80324800D01*
X125161027Y-80324800D02*
X125113408Y-80372419D01*
X125113408Y-80372419D02*
X125065789Y-80324800D01*
X125065789Y-80324800D02*
X125113408Y-80277180D01*
X125113408Y-80277180D02*
X125113408Y-80372419D01*
X125780074Y-79372419D02*
X125875312Y-79372419D01*
X125875312Y-79372419D02*
X125970550Y-79420038D01*
X125970550Y-79420038D02*
X126018169Y-79467657D01*
X126018169Y-79467657D02*
X126065788Y-79562895D01*
X126065788Y-79562895D02*
X126113407Y-79753371D01*
X126113407Y-79753371D02*
X126113407Y-79991466D01*
X126113407Y-79991466D02*
X126065788Y-80181942D01*
X126065788Y-80181942D02*
X126018169Y-80277180D01*
X126018169Y-80277180D02*
X125970550Y-80324800D01*
X125970550Y-80324800D02*
X125875312Y-80372419D01*
X125875312Y-80372419D02*
X125780074Y-80372419D01*
X125780074Y-80372419D02*
X125684836Y-80324800D01*
X125684836Y-80324800D02*
X125637217Y-80277180D01*
X125637217Y-80277180D02*
X125589598Y-80181942D01*
X125589598Y-80181942D02*
X125541979Y-79991466D01*
X125541979Y-79991466D02*
X125541979Y-79753371D01*
X125541979Y-79753371D02*
X125589598Y-79562895D01*
X125589598Y-79562895D02*
X125637217Y-79467657D01*
X125637217Y-79467657D02*
X125684836Y-79420038D01*
X125684836Y-79420038D02*
X125780074Y-79372419D01*
D11*
X247833333Y-132504819D02*
X247500000Y-132028628D01*
X247261905Y-132504819D02*
X247261905Y-131504819D01*
X247261905Y-131504819D02*
X247642857Y-131504819D01*
X247642857Y-131504819D02*
X247738095Y-131552438D01*
X247738095Y-131552438D02*
X247785714Y-131600057D01*
X247785714Y-131600057D02*
X247833333Y-131695295D01*
X247833333Y-131695295D02*
X247833333Y-131838152D01*
X247833333Y-131838152D02*
X247785714Y-131933390D01*
X247785714Y-131933390D02*
X247738095Y-131981009D01*
X247738095Y-131981009D02*
X247642857Y-132028628D01*
X247642857Y-132028628D02*
X247261905Y-132028628D01*
X248166667Y-131504819D02*
X248785714Y-131504819D01*
X248785714Y-131504819D02*
X248452381Y-131885771D01*
X248452381Y-131885771D02*
X248595238Y-131885771D01*
X248595238Y-131885771D02*
X248690476Y-131933390D01*
X248690476Y-131933390D02*
X248738095Y-131981009D01*
X248738095Y-131981009D02*
X248785714Y-132076247D01*
X248785714Y-132076247D02*
X248785714Y-132314342D01*
X248785714Y-132314342D02*
X248738095Y-132409580D01*
X248738095Y-132409580D02*
X248690476Y-132457200D01*
X248690476Y-132457200D02*
X248595238Y-132504819D01*
X248595238Y-132504819D02*
X248309524Y-132504819D01*
X248309524Y-132504819D02*
X248214286Y-132457200D01*
X248214286Y-132457200D02*
X248166667Y-132409580D01*
X244161666Y-137807319D02*
X244161666Y-138521604D01*
X244161666Y-138521604D02*
X244114047Y-138664461D01*
X244114047Y-138664461D02*
X244018809Y-138759700D01*
X244018809Y-138759700D02*
X243875952Y-138807319D01*
X243875952Y-138807319D02*
X243780714Y-138807319D01*
X245066428Y-138140652D02*
X245066428Y-138807319D01*
X244828333Y-137759700D02*
X244590238Y-138473985D01*
X244590238Y-138473985D02*
X245209285Y-138473985D01*
X270265833Y-132504819D02*
X269932500Y-132028628D01*
X269694405Y-132504819D02*
X269694405Y-131504819D01*
X269694405Y-131504819D02*
X270075357Y-131504819D01*
X270075357Y-131504819D02*
X270170595Y-131552438D01*
X270170595Y-131552438D02*
X270218214Y-131600057D01*
X270218214Y-131600057D02*
X270265833Y-131695295D01*
X270265833Y-131695295D02*
X270265833Y-131838152D01*
X270265833Y-131838152D02*
X270218214Y-131933390D01*
X270218214Y-131933390D02*
X270170595Y-131981009D01*
X270170595Y-131981009D02*
X270075357Y-132028628D01*
X270075357Y-132028628D02*
X269694405Y-132028628D01*
X271218214Y-132504819D02*
X270646786Y-132504819D01*
X270932500Y-132504819D02*
X270932500Y-131504819D01*
X270932500Y-131504819D02*
X270837262Y-131647676D01*
X270837262Y-131647676D02*
X270742024Y-131742914D01*
X270742024Y-131742914D02*
X270646786Y-131790533D01*
X121190476Y-119804819D02*
X121190476Y-118804819D01*
X121190476Y-118804819D02*
X121523809Y-119519104D01*
X121523809Y-119519104D02*
X121857142Y-118804819D01*
X121857142Y-118804819D02*
X121857142Y-119804819D01*
X122238095Y-118804819D02*
X122857142Y-118804819D01*
X122857142Y-118804819D02*
X122523809Y-119185771D01*
X122523809Y-119185771D02*
X122666666Y-119185771D01*
X122666666Y-119185771D02*
X122761904Y-119233390D01*
X122761904Y-119233390D02*
X122809523Y-119281009D01*
X122809523Y-119281009D02*
X122857142Y-119376247D01*
X122857142Y-119376247D02*
X122857142Y-119614342D01*
X122857142Y-119614342D02*
X122809523Y-119709580D01*
X122809523Y-119709580D02*
X122761904Y-119757200D01*
X122761904Y-119757200D02*
X122666666Y-119804819D01*
X122666666Y-119804819D02*
X122380952Y-119804819D01*
X122380952Y-119804819D02*
X122285714Y-119757200D01*
X122285714Y-119757200D02*
X122238095Y-119709580D01*
X216857142Y-42780887D02*
X216523809Y-42304696D01*
X216285714Y-42780887D02*
X216285714Y-41780887D01*
X216285714Y-41780887D02*
X216666666Y-41780887D01*
X216666666Y-41780887D02*
X216761904Y-41828506D01*
X216761904Y-41828506D02*
X216809523Y-41876125D01*
X216809523Y-41876125D02*
X216857142Y-41971363D01*
X216857142Y-41971363D02*
X216857142Y-42114220D01*
X216857142Y-42114220D02*
X216809523Y-42209458D01*
X216809523Y-42209458D02*
X216761904Y-42257077D01*
X216761904Y-42257077D02*
X216666666Y-42304696D01*
X216666666Y-42304696D02*
X216285714Y-42304696D01*
X217809523Y-42780887D02*
X217238095Y-42780887D01*
X217523809Y-42780887D02*
X217523809Y-41780887D01*
X217523809Y-41780887D02*
X217428571Y-41923744D01*
X217428571Y-41923744D02*
X217333333Y-42018982D01*
X217333333Y-42018982D02*
X217238095Y-42066601D01*
X218285714Y-42780887D02*
X218476190Y-42780887D01*
X218476190Y-42780887D02*
X218571428Y-42733268D01*
X218571428Y-42733268D02*
X218619047Y-42685648D01*
X218619047Y-42685648D02*
X218714285Y-42542791D01*
X218714285Y-42542791D02*
X218761904Y-42352315D01*
X218761904Y-42352315D02*
X218761904Y-41971363D01*
X218761904Y-41971363D02*
X218714285Y-41876125D01*
X218714285Y-41876125D02*
X218666666Y-41828506D01*
X218666666Y-41828506D02*
X218571428Y-41780887D01*
X218571428Y-41780887D02*
X218380952Y-41780887D01*
X218380952Y-41780887D02*
X218285714Y-41828506D01*
X218285714Y-41828506D02*
X218238095Y-41876125D01*
X218238095Y-41876125D02*
X218190476Y-41971363D01*
X218190476Y-41971363D02*
X218190476Y-42209458D01*
X218190476Y-42209458D02*
X218238095Y-42304696D01*
X218238095Y-42304696D02*
X218285714Y-42352315D01*
X218285714Y-42352315D02*
X218380952Y-42399934D01*
X218380952Y-42399934D02*
X218571428Y-42399934D01*
X218571428Y-42399934D02*
X218666666Y-42352315D01*
X218666666Y-42352315D02*
X218714285Y-42304696D01*
X218714285Y-42304696D02*
X218761904Y-42209458D01*
X209240476Y-36602319D02*
X209240476Y-37316604D01*
X209240476Y-37316604D02*
X209192857Y-37459461D01*
X209192857Y-37459461D02*
X209097619Y-37554700D01*
X209097619Y-37554700D02*
X208954762Y-37602319D01*
X208954762Y-37602319D02*
X208859524Y-37602319D01*
X209669048Y-36697557D02*
X209716667Y-36649938D01*
X209716667Y-36649938D02*
X209811905Y-36602319D01*
X209811905Y-36602319D02*
X210050000Y-36602319D01*
X210050000Y-36602319D02*
X210145238Y-36649938D01*
X210145238Y-36649938D02*
X210192857Y-36697557D01*
X210192857Y-36697557D02*
X210240476Y-36792795D01*
X210240476Y-36792795D02*
X210240476Y-36888033D01*
X210240476Y-36888033D02*
X210192857Y-37030890D01*
X210192857Y-37030890D02*
X209621429Y-37602319D01*
X209621429Y-37602319D02*
X210240476Y-37602319D01*
X211192857Y-37602319D02*
X210621429Y-37602319D01*
X210907143Y-37602319D02*
X210907143Y-36602319D01*
X210907143Y-36602319D02*
X210811905Y-36745176D01*
X210811905Y-36745176D02*
X210716667Y-36840414D01*
X210716667Y-36840414D02*
X210621429Y-36888033D01*
X186275476Y-36774819D02*
X186275476Y-37489104D01*
X186275476Y-37489104D02*
X186227857Y-37631961D01*
X186227857Y-37631961D02*
X186132619Y-37727200D01*
X186132619Y-37727200D02*
X185989762Y-37774819D01*
X185989762Y-37774819D02*
X185894524Y-37774819D01*
X186704048Y-36870057D02*
X186751667Y-36822438D01*
X186751667Y-36822438D02*
X186846905Y-36774819D01*
X186846905Y-36774819D02*
X187085000Y-36774819D01*
X187085000Y-36774819D02*
X187180238Y-36822438D01*
X187180238Y-36822438D02*
X187227857Y-36870057D01*
X187227857Y-36870057D02*
X187275476Y-36965295D01*
X187275476Y-36965295D02*
X187275476Y-37060533D01*
X187275476Y-37060533D02*
X187227857Y-37203390D01*
X187227857Y-37203390D02*
X186656429Y-37774819D01*
X186656429Y-37774819D02*
X187275476Y-37774819D01*
X187608810Y-36774819D02*
X188227857Y-36774819D01*
X188227857Y-36774819D02*
X187894524Y-37155771D01*
X187894524Y-37155771D02*
X188037381Y-37155771D01*
X188037381Y-37155771D02*
X188132619Y-37203390D01*
X188132619Y-37203390D02*
X188180238Y-37251009D01*
X188180238Y-37251009D02*
X188227857Y-37346247D01*
X188227857Y-37346247D02*
X188227857Y-37584342D01*
X188227857Y-37584342D02*
X188180238Y-37679580D01*
X188180238Y-37679580D02*
X188132619Y-37727200D01*
X188132619Y-37727200D02*
X188037381Y-37774819D01*
X188037381Y-37774819D02*
X187751667Y-37774819D01*
X187751667Y-37774819D02*
X187656429Y-37727200D01*
X187656429Y-37727200D02*
X187608810Y-37679580D01*
X140185476Y-137807319D02*
X140185476Y-138521604D01*
X140185476Y-138521604D02*
X140137857Y-138664461D01*
X140137857Y-138664461D02*
X140042619Y-138759700D01*
X140042619Y-138759700D02*
X139899762Y-138807319D01*
X139899762Y-138807319D02*
X139804524Y-138807319D01*
X141185476Y-138807319D02*
X140614048Y-138807319D01*
X140899762Y-138807319D02*
X140899762Y-137807319D01*
X140899762Y-137807319D02*
X140804524Y-137950176D01*
X140804524Y-137950176D02*
X140709286Y-138045414D01*
X140709286Y-138045414D02*
X140614048Y-138093033D01*
X141518810Y-137807319D02*
X142137857Y-137807319D01*
X142137857Y-137807319D02*
X141804524Y-138188271D01*
X141804524Y-138188271D02*
X141947381Y-138188271D01*
X141947381Y-138188271D02*
X142042619Y-138235890D01*
X142042619Y-138235890D02*
X142090238Y-138283509D01*
X142090238Y-138283509D02*
X142137857Y-138378747D01*
X142137857Y-138378747D02*
X142137857Y-138616842D01*
X142137857Y-138616842D02*
X142090238Y-138712080D01*
X142090238Y-138712080D02*
X142042619Y-138759700D01*
X142042619Y-138759700D02*
X141947381Y-138807319D01*
X141947381Y-138807319D02*
X141661667Y-138807319D01*
X141661667Y-138807319D02*
X141566429Y-138759700D01*
X141566429Y-138759700D02*
X141518810Y-138712080D01*
X164792800Y-129040476D02*
X164745180Y-129183333D01*
X164745180Y-129183333D02*
X164745180Y-129421428D01*
X164745180Y-129421428D02*
X164792800Y-129516666D01*
X164792800Y-129516666D02*
X164840419Y-129564285D01*
X164840419Y-129564285D02*
X164935657Y-129611904D01*
X164935657Y-129611904D02*
X165030895Y-129611904D01*
X165030895Y-129611904D02*
X165126133Y-129564285D01*
X165126133Y-129564285D02*
X165173752Y-129516666D01*
X165173752Y-129516666D02*
X165221371Y-129421428D01*
X165221371Y-129421428D02*
X165268990Y-129230952D01*
X165268990Y-129230952D02*
X165316609Y-129135714D01*
X165316609Y-129135714D02*
X165364228Y-129088095D01*
X165364228Y-129088095D02*
X165459466Y-129040476D01*
X165459466Y-129040476D02*
X165554704Y-129040476D01*
X165554704Y-129040476D02*
X165649942Y-129088095D01*
X165649942Y-129088095D02*
X165697561Y-129135714D01*
X165697561Y-129135714D02*
X165745180Y-129230952D01*
X165745180Y-129230952D02*
X165745180Y-129469047D01*
X165745180Y-129469047D02*
X165697561Y-129611904D01*
X165745180Y-129945238D02*
X164745180Y-130183333D01*
X164745180Y-130183333D02*
X165459466Y-130373809D01*
X165459466Y-130373809D02*
X164745180Y-130564285D01*
X164745180Y-130564285D02*
X165745180Y-130802381D01*
X164745180Y-131707142D02*
X164745180Y-131135714D01*
X164745180Y-131421428D02*
X165745180Y-131421428D01*
X165745180Y-131421428D02*
X165602323Y-131326190D01*
X165602323Y-131326190D02*
X165507085Y-131230952D01*
X165507085Y-131230952D02*
X165459466Y-131135714D01*
X165745180Y-132326190D02*
X165745180Y-132421428D01*
X165745180Y-132421428D02*
X165697561Y-132516666D01*
X165697561Y-132516666D02*
X165649942Y-132564285D01*
X165649942Y-132564285D02*
X165554704Y-132611904D01*
X165554704Y-132611904D02*
X165364228Y-132659523D01*
X165364228Y-132659523D02*
X165126133Y-132659523D01*
X165126133Y-132659523D02*
X164935657Y-132611904D01*
X164935657Y-132611904D02*
X164840419Y-132564285D01*
X164840419Y-132564285D02*
X164792800Y-132516666D01*
X164792800Y-132516666D02*
X164745180Y-132421428D01*
X164745180Y-132421428D02*
X164745180Y-132326190D01*
X164745180Y-132326190D02*
X164792800Y-132230952D01*
X164792800Y-132230952D02*
X164840419Y-132183333D01*
X164840419Y-132183333D02*
X164935657Y-132135714D01*
X164935657Y-132135714D02*
X165126133Y-132088095D01*
X165126133Y-132088095D02*
X165364228Y-132088095D01*
X165364228Y-132088095D02*
X165554704Y-132135714D01*
X165554704Y-132135714D02*
X165649942Y-132183333D01*
X165649942Y-132183333D02*
X165697561Y-132230952D01*
X165697561Y-132230952D02*
X165745180Y-132326190D01*
X174775476Y-36774819D02*
X174775476Y-37489104D01*
X174775476Y-37489104D02*
X174727857Y-37631961D01*
X174727857Y-37631961D02*
X174632619Y-37727200D01*
X174632619Y-37727200D02*
X174489762Y-37774819D01*
X174489762Y-37774819D02*
X174394524Y-37774819D01*
X175204048Y-36870057D02*
X175251667Y-36822438D01*
X175251667Y-36822438D02*
X175346905Y-36774819D01*
X175346905Y-36774819D02*
X175585000Y-36774819D01*
X175585000Y-36774819D02*
X175680238Y-36822438D01*
X175680238Y-36822438D02*
X175727857Y-36870057D01*
X175727857Y-36870057D02*
X175775476Y-36965295D01*
X175775476Y-36965295D02*
X175775476Y-37060533D01*
X175775476Y-37060533D02*
X175727857Y-37203390D01*
X175727857Y-37203390D02*
X175156429Y-37774819D01*
X175156429Y-37774819D02*
X175775476Y-37774819D01*
X176632619Y-37108152D02*
X176632619Y-37774819D01*
X176394524Y-36727200D02*
X176156429Y-37441485D01*
X176156429Y-37441485D02*
X176775476Y-37441485D01*
X121190476Y-49804819D02*
X121190476Y-48804819D01*
X121190476Y-48804819D02*
X121523809Y-49519104D01*
X121523809Y-49519104D02*
X121857142Y-48804819D01*
X121857142Y-48804819D02*
X121857142Y-49804819D01*
X122857142Y-49804819D02*
X122285714Y-49804819D01*
X122571428Y-49804819D02*
X122571428Y-48804819D01*
X122571428Y-48804819D02*
X122476190Y-48947676D01*
X122476190Y-48947676D02*
X122380952Y-49042914D01*
X122380952Y-49042914D02*
X122285714Y-49090533D01*
X255195476Y-36602319D02*
X255195476Y-37316604D01*
X255195476Y-37316604D02*
X255147857Y-37459461D01*
X255147857Y-37459461D02*
X255052619Y-37554700D01*
X255052619Y-37554700D02*
X254909762Y-37602319D01*
X254909762Y-37602319D02*
X254814524Y-37602319D01*
X256195476Y-37602319D02*
X255624048Y-37602319D01*
X255909762Y-37602319D02*
X255909762Y-36602319D01*
X255909762Y-36602319D02*
X255814524Y-36745176D01*
X255814524Y-36745176D02*
X255719286Y-36840414D01*
X255719286Y-36840414D02*
X255624048Y-36888033D01*
X256528810Y-36602319D02*
X257195476Y-36602319D01*
X257195476Y-36602319D02*
X256766905Y-37602319D01*
X166857142Y-132454819D02*
X166523809Y-131978628D01*
X166285714Y-132454819D02*
X166285714Y-131454819D01*
X166285714Y-131454819D02*
X166666666Y-131454819D01*
X166666666Y-131454819D02*
X166761904Y-131502438D01*
X166761904Y-131502438D02*
X166809523Y-131550057D01*
X166809523Y-131550057D02*
X166857142Y-131645295D01*
X166857142Y-131645295D02*
X166857142Y-131788152D01*
X166857142Y-131788152D02*
X166809523Y-131883390D01*
X166809523Y-131883390D02*
X166761904Y-131931009D01*
X166761904Y-131931009D02*
X166666666Y-131978628D01*
X166666666Y-131978628D02*
X166285714Y-131978628D01*
X167809523Y-132454819D02*
X167238095Y-132454819D01*
X167523809Y-132454819D02*
X167523809Y-131454819D01*
X167523809Y-131454819D02*
X167428571Y-131597676D01*
X167428571Y-131597676D02*
X167333333Y-131692914D01*
X167333333Y-131692914D02*
X167238095Y-131740533D01*
X168428571Y-131454819D02*
X168523809Y-131454819D01*
X168523809Y-131454819D02*
X168619047Y-131502438D01*
X168619047Y-131502438D02*
X168666666Y-131550057D01*
X168666666Y-131550057D02*
X168714285Y-131645295D01*
X168714285Y-131645295D02*
X168761904Y-131835771D01*
X168761904Y-131835771D02*
X168761904Y-132073866D01*
X168761904Y-132073866D02*
X168714285Y-132264342D01*
X168714285Y-132264342D02*
X168666666Y-132359580D01*
X168666666Y-132359580D02*
X168619047Y-132407200D01*
X168619047Y-132407200D02*
X168523809Y-132454819D01*
X168523809Y-132454819D02*
X168428571Y-132454819D01*
X168428571Y-132454819D02*
X168333333Y-132407200D01*
X168333333Y-132407200D02*
X168285714Y-132359580D01*
X168285714Y-132359580D02*
X168238095Y-132264342D01*
X168238095Y-132264342D02*
X168190476Y-132073866D01*
X168190476Y-132073866D02*
X168190476Y-131835771D01*
X168190476Y-131835771D02*
X168238095Y-131645295D01*
X168238095Y-131645295D02*
X168285714Y-131550057D01*
X168285714Y-131550057D02*
X168333333Y-131502438D01*
X168333333Y-131502438D02*
X168428571Y-131454819D01*
X142042800Y-129040476D02*
X141995180Y-129183333D01*
X141995180Y-129183333D02*
X141995180Y-129421428D01*
X141995180Y-129421428D02*
X142042800Y-129516666D01*
X142042800Y-129516666D02*
X142090419Y-129564285D01*
X142090419Y-129564285D02*
X142185657Y-129611904D01*
X142185657Y-129611904D02*
X142280895Y-129611904D01*
X142280895Y-129611904D02*
X142376133Y-129564285D01*
X142376133Y-129564285D02*
X142423752Y-129516666D01*
X142423752Y-129516666D02*
X142471371Y-129421428D01*
X142471371Y-129421428D02*
X142518990Y-129230952D01*
X142518990Y-129230952D02*
X142566609Y-129135714D01*
X142566609Y-129135714D02*
X142614228Y-129088095D01*
X142614228Y-129088095D02*
X142709466Y-129040476D01*
X142709466Y-129040476D02*
X142804704Y-129040476D01*
X142804704Y-129040476D02*
X142899942Y-129088095D01*
X142899942Y-129088095D02*
X142947561Y-129135714D01*
X142947561Y-129135714D02*
X142995180Y-129230952D01*
X142995180Y-129230952D02*
X142995180Y-129469047D01*
X142995180Y-129469047D02*
X142947561Y-129611904D01*
X142995180Y-129945238D02*
X141995180Y-130183333D01*
X141995180Y-130183333D02*
X142709466Y-130373809D01*
X142709466Y-130373809D02*
X141995180Y-130564285D01*
X141995180Y-130564285D02*
X142995180Y-130802381D01*
X141995180Y-131707142D02*
X141995180Y-131135714D01*
X141995180Y-131421428D02*
X142995180Y-131421428D01*
X142995180Y-131421428D02*
X142852323Y-131326190D01*
X142852323Y-131326190D02*
X142757085Y-131230952D01*
X142757085Y-131230952D02*
X142709466Y-131135714D01*
X142899942Y-132088095D02*
X142947561Y-132135714D01*
X142947561Y-132135714D02*
X142995180Y-132230952D01*
X142995180Y-132230952D02*
X142995180Y-132469047D01*
X142995180Y-132469047D02*
X142947561Y-132564285D01*
X142947561Y-132564285D02*
X142899942Y-132611904D01*
X142899942Y-132611904D02*
X142804704Y-132659523D01*
X142804704Y-132659523D02*
X142709466Y-132659523D01*
X142709466Y-132659523D02*
X142566609Y-132611904D01*
X142566609Y-132611904D02*
X141995180Y-132040476D01*
X141995180Y-132040476D02*
X141995180Y-132659523D01*
X230990885Y-39698710D02*
X231133742Y-39746329D01*
X231133742Y-39746329D02*
X231371837Y-39746329D01*
X231371837Y-39746329D02*
X231467075Y-39698710D01*
X231467075Y-39698710D02*
X231514694Y-39651090D01*
X231514694Y-39651090D02*
X231562313Y-39555852D01*
X231562313Y-39555852D02*
X231562313Y-39460614D01*
X231562313Y-39460614D02*
X231514694Y-39365376D01*
X231514694Y-39365376D02*
X231467075Y-39317757D01*
X231467075Y-39317757D02*
X231371837Y-39270138D01*
X231371837Y-39270138D02*
X231181361Y-39222519D01*
X231181361Y-39222519D02*
X231086123Y-39174900D01*
X231086123Y-39174900D02*
X231038504Y-39127281D01*
X231038504Y-39127281D02*
X230990885Y-39032043D01*
X230990885Y-39032043D02*
X230990885Y-38936805D01*
X230990885Y-38936805D02*
X231038504Y-38841567D01*
X231038504Y-38841567D02*
X231086123Y-38793948D01*
X231086123Y-38793948D02*
X231181361Y-38746329D01*
X231181361Y-38746329D02*
X231419456Y-38746329D01*
X231419456Y-38746329D02*
X231562313Y-38793948D01*
X231895647Y-38746329D02*
X232133742Y-39746329D01*
X232133742Y-39746329D02*
X232324218Y-39032043D01*
X232324218Y-39032043D02*
X232514694Y-39746329D01*
X232514694Y-39746329D02*
X232752790Y-38746329D01*
X233657551Y-39746329D02*
X233086123Y-39746329D01*
X233371837Y-39746329D02*
X233371837Y-38746329D01*
X233371837Y-38746329D02*
X233276599Y-38889186D01*
X233276599Y-38889186D02*
X233181361Y-38984424D01*
X233181361Y-38984424D02*
X233086123Y-39032043D01*
X234228980Y-39174900D02*
X234133742Y-39127281D01*
X234133742Y-39127281D02*
X234086123Y-39079662D01*
X234086123Y-39079662D02*
X234038504Y-38984424D01*
X234038504Y-38984424D02*
X234038504Y-38936805D01*
X234038504Y-38936805D02*
X234086123Y-38841567D01*
X234086123Y-38841567D02*
X234133742Y-38793948D01*
X234133742Y-38793948D02*
X234228980Y-38746329D01*
X234228980Y-38746329D02*
X234419456Y-38746329D01*
X234419456Y-38746329D02*
X234514694Y-38793948D01*
X234514694Y-38793948D02*
X234562313Y-38841567D01*
X234562313Y-38841567D02*
X234609932Y-38936805D01*
X234609932Y-38936805D02*
X234609932Y-38984424D01*
X234609932Y-38984424D02*
X234562313Y-39079662D01*
X234562313Y-39079662D02*
X234514694Y-39127281D01*
X234514694Y-39127281D02*
X234419456Y-39174900D01*
X234419456Y-39174900D02*
X234228980Y-39174900D01*
X234228980Y-39174900D02*
X234133742Y-39222519D01*
X234133742Y-39222519D02*
X234086123Y-39270138D01*
X234086123Y-39270138D02*
X234038504Y-39365376D01*
X234038504Y-39365376D02*
X234038504Y-39555852D01*
X234038504Y-39555852D02*
X234086123Y-39651090D01*
X234086123Y-39651090D02*
X234133742Y-39698710D01*
X234133742Y-39698710D02*
X234228980Y-39746329D01*
X234228980Y-39746329D02*
X234419456Y-39746329D01*
X234419456Y-39746329D02*
X234514694Y-39698710D01*
X234514694Y-39698710D02*
X234562313Y-39651090D01*
X234562313Y-39651090D02*
X234609932Y-39555852D01*
X234609932Y-39555852D02*
X234609932Y-39365376D01*
X234609932Y-39365376D02*
X234562313Y-39270138D01*
X234562313Y-39270138D02*
X234514694Y-39222519D01*
X234514694Y-39222519D02*
X234419456Y-39174900D01*
X205357142Y-42702520D02*
X205023809Y-42226329D01*
X204785714Y-42702520D02*
X204785714Y-41702520D01*
X204785714Y-41702520D02*
X205166666Y-41702520D01*
X205166666Y-41702520D02*
X205261904Y-41750139D01*
X205261904Y-41750139D02*
X205309523Y-41797758D01*
X205309523Y-41797758D02*
X205357142Y-41892996D01*
X205357142Y-41892996D02*
X205357142Y-42035853D01*
X205357142Y-42035853D02*
X205309523Y-42131091D01*
X205309523Y-42131091D02*
X205261904Y-42178710D01*
X205261904Y-42178710D02*
X205166666Y-42226329D01*
X205166666Y-42226329D02*
X204785714Y-42226329D01*
X205738095Y-41797758D02*
X205785714Y-41750139D01*
X205785714Y-41750139D02*
X205880952Y-41702520D01*
X205880952Y-41702520D02*
X206119047Y-41702520D01*
X206119047Y-41702520D02*
X206214285Y-41750139D01*
X206214285Y-41750139D02*
X206261904Y-41797758D01*
X206261904Y-41797758D02*
X206309523Y-41892996D01*
X206309523Y-41892996D02*
X206309523Y-41988234D01*
X206309523Y-41988234D02*
X206261904Y-42131091D01*
X206261904Y-42131091D02*
X205690476Y-42702520D01*
X205690476Y-42702520D02*
X206309523Y-42702520D01*
X206928571Y-41702520D02*
X207023809Y-41702520D01*
X207023809Y-41702520D02*
X207119047Y-41750139D01*
X207119047Y-41750139D02*
X207166666Y-41797758D01*
X207166666Y-41797758D02*
X207214285Y-41892996D01*
X207214285Y-41892996D02*
X207261904Y-42083472D01*
X207261904Y-42083472D02*
X207261904Y-42321567D01*
X207261904Y-42321567D02*
X207214285Y-42512043D01*
X207214285Y-42512043D02*
X207166666Y-42607281D01*
X207166666Y-42607281D02*
X207119047Y-42654901D01*
X207119047Y-42654901D02*
X207023809Y-42702520D01*
X207023809Y-42702520D02*
X206928571Y-42702520D01*
X206928571Y-42702520D02*
X206833333Y-42654901D01*
X206833333Y-42654901D02*
X206785714Y-42607281D01*
X206785714Y-42607281D02*
X206738095Y-42512043D01*
X206738095Y-42512043D02*
X206690476Y-42321567D01*
X206690476Y-42321567D02*
X206690476Y-42083472D01*
X206690476Y-42083472D02*
X206738095Y-41892996D01*
X206738095Y-41892996D02*
X206785714Y-41797758D01*
X206785714Y-41797758D02*
X206833333Y-41750139D01*
X206833333Y-41750139D02*
X206928571Y-41702520D01*
X222292800Y-129516667D02*
X222245180Y-129659524D01*
X222245180Y-129659524D02*
X222245180Y-129897619D01*
X222245180Y-129897619D02*
X222292800Y-129992857D01*
X222292800Y-129992857D02*
X222340419Y-130040476D01*
X222340419Y-130040476D02*
X222435657Y-130088095D01*
X222435657Y-130088095D02*
X222530895Y-130088095D01*
X222530895Y-130088095D02*
X222626133Y-130040476D01*
X222626133Y-130040476D02*
X222673752Y-129992857D01*
X222673752Y-129992857D02*
X222721371Y-129897619D01*
X222721371Y-129897619D02*
X222768990Y-129707143D01*
X222768990Y-129707143D02*
X222816609Y-129611905D01*
X222816609Y-129611905D02*
X222864228Y-129564286D01*
X222864228Y-129564286D02*
X222959466Y-129516667D01*
X222959466Y-129516667D02*
X223054704Y-129516667D01*
X223054704Y-129516667D02*
X223149942Y-129564286D01*
X223149942Y-129564286D02*
X223197561Y-129611905D01*
X223197561Y-129611905D02*
X223245180Y-129707143D01*
X223245180Y-129707143D02*
X223245180Y-129945238D01*
X223245180Y-129945238D02*
X223197561Y-130088095D01*
X223245180Y-130421429D02*
X222245180Y-130659524D01*
X222245180Y-130659524D02*
X222959466Y-130850000D01*
X222959466Y-130850000D02*
X222245180Y-131040476D01*
X222245180Y-131040476D02*
X223245180Y-131278572D01*
X223245180Y-132135714D02*
X223245180Y-131659524D01*
X223245180Y-131659524D02*
X222768990Y-131611905D01*
X222768990Y-131611905D02*
X222816609Y-131659524D01*
X222816609Y-131659524D02*
X222864228Y-131754762D01*
X222864228Y-131754762D02*
X222864228Y-131992857D01*
X222864228Y-131992857D02*
X222816609Y-132088095D01*
X222816609Y-132088095D02*
X222768990Y-132135714D01*
X222768990Y-132135714D02*
X222673752Y-132183333D01*
X222673752Y-132183333D02*
X222435657Y-132183333D01*
X222435657Y-132183333D02*
X222340419Y-132135714D01*
X222340419Y-132135714D02*
X222292800Y-132088095D01*
X222292800Y-132088095D02*
X222245180Y-131992857D01*
X222245180Y-131992857D02*
X222245180Y-131754762D01*
X222245180Y-131754762D02*
X222292800Y-131659524D01*
X222292800Y-131659524D02*
X222340419Y-131611905D01*
X235740833Y-132504819D02*
X235407500Y-132028628D01*
X235169405Y-132504819D02*
X235169405Y-131504819D01*
X235169405Y-131504819D02*
X235550357Y-131504819D01*
X235550357Y-131504819D02*
X235645595Y-131552438D01*
X235645595Y-131552438D02*
X235693214Y-131600057D01*
X235693214Y-131600057D02*
X235740833Y-131695295D01*
X235740833Y-131695295D02*
X235740833Y-131838152D01*
X235740833Y-131838152D02*
X235693214Y-131933390D01*
X235693214Y-131933390D02*
X235645595Y-131981009D01*
X235645595Y-131981009D02*
X235550357Y-132028628D01*
X235550357Y-132028628D02*
X235169405Y-132028628D01*
X236597976Y-131838152D02*
X236597976Y-132504819D01*
X236359881Y-131457200D02*
X236121786Y-132171485D01*
X236121786Y-132171485D02*
X236740833Y-132171485D01*
X263690476Y-119804819D02*
X263690476Y-118804819D01*
X263690476Y-118804819D02*
X264023809Y-119519104D01*
X264023809Y-119519104D02*
X264357142Y-118804819D01*
X264357142Y-118804819D02*
X264357142Y-119804819D01*
X265261904Y-119138152D02*
X265261904Y-119804819D01*
X265023809Y-118757200D02*
X264785714Y-119471485D01*
X264785714Y-119471485D02*
X265404761Y-119471485D01*
X212765833Y-132504819D02*
X212432500Y-132028628D01*
X212194405Y-132504819D02*
X212194405Y-131504819D01*
X212194405Y-131504819D02*
X212575357Y-131504819D01*
X212575357Y-131504819D02*
X212670595Y-131552438D01*
X212670595Y-131552438D02*
X212718214Y-131600057D01*
X212718214Y-131600057D02*
X212765833Y-131695295D01*
X212765833Y-131695295D02*
X212765833Y-131838152D01*
X212765833Y-131838152D02*
X212718214Y-131933390D01*
X212718214Y-131933390D02*
X212670595Y-131981009D01*
X212670595Y-131981009D02*
X212575357Y-132028628D01*
X212575357Y-132028628D02*
X212194405Y-132028628D01*
X213622976Y-131504819D02*
X213432500Y-131504819D01*
X213432500Y-131504819D02*
X213337262Y-131552438D01*
X213337262Y-131552438D02*
X213289643Y-131600057D01*
X213289643Y-131600057D02*
X213194405Y-131742914D01*
X213194405Y-131742914D02*
X213146786Y-131933390D01*
X213146786Y-131933390D02*
X213146786Y-132314342D01*
X213146786Y-132314342D02*
X213194405Y-132409580D01*
X213194405Y-132409580D02*
X213242024Y-132457200D01*
X213242024Y-132457200D02*
X213337262Y-132504819D01*
X213337262Y-132504819D02*
X213527738Y-132504819D01*
X213527738Y-132504819D02*
X213622976Y-132457200D01*
X213622976Y-132457200D02*
X213670595Y-132409580D01*
X213670595Y-132409580D02*
X213718214Y-132314342D01*
X213718214Y-132314342D02*
X213718214Y-132076247D01*
X213718214Y-132076247D02*
X213670595Y-131981009D01*
X213670595Y-131981009D02*
X213622976Y-131933390D01*
X213622976Y-131933390D02*
X213527738Y-131885771D01*
X213527738Y-131885771D02*
X213337262Y-131885771D01*
X213337262Y-131885771D02*
X213242024Y-131933390D01*
X213242024Y-131933390D02*
X213194405Y-131981009D01*
X213194405Y-131981009D02*
X213146786Y-132076247D01*
X128685476Y-137807319D02*
X128685476Y-138521604D01*
X128685476Y-138521604D02*
X128637857Y-138664461D01*
X128637857Y-138664461D02*
X128542619Y-138759700D01*
X128542619Y-138759700D02*
X128399762Y-138807319D01*
X128399762Y-138807319D02*
X128304524Y-138807319D01*
X129685476Y-138807319D02*
X129114048Y-138807319D01*
X129399762Y-138807319D02*
X129399762Y-137807319D01*
X129399762Y-137807319D02*
X129304524Y-137950176D01*
X129304524Y-137950176D02*
X129209286Y-138045414D01*
X129209286Y-138045414D02*
X129114048Y-138093033D01*
X130542619Y-138140652D02*
X130542619Y-138807319D01*
X130304524Y-137759700D02*
X130066429Y-138473985D01*
X130066429Y-138473985D02*
X130685476Y-138473985D01*
X196478744Y-39601510D02*
X196621601Y-39649129D01*
X196621601Y-39649129D02*
X196859696Y-39649129D01*
X196859696Y-39649129D02*
X196954934Y-39601510D01*
X196954934Y-39601510D02*
X197002553Y-39553890D01*
X197002553Y-39553890D02*
X197050172Y-39458652D01*
X197050172Y-39458652D02*
X197050172Y-39363414D01*
X197050172Y-39363414D02*
X197002553Y-39268176D01*
X197002553Y-39268176D02*
X196954934Y-39220557D01*
X196954934Y-39220557D02*
X196859696Y-39172938D01*
X196859696Y-39172938D02*
X196669220Y-39125319D01*
X196669220Y-39125319D02*
X196573982Y-39077700D01*
X196573982Y-39077700D02*
X196526363Y-39030081D01*
X196526363Y-39030081D02*
X196478744Y-38934843D01*
X196478744Y-38934843D02*
X196478744Y-38839605D01*
X196478744Y-38839605D02*
X196526363Y-38744367D01*
X196526363Y-38744367D02*
X196573982Y-38696748D01*
X196573982Y-38696748D02*
X196669220Y-38649129D01*
X196669220Y-38649129D02*
X196907315Y-38649129D01*
X196907315Y-38649129D02*
X197050172Y-38696748D01*
X197383506Y-38649129D02*
X197621601Y-39649129D01*
X197621601Y-39649129D02*
X197812077Y-38934843D01*
X197812077Y-38934843D02*
X198002553Y-39649129D01*
X198002553Y-39649129D02*
X198240649Y-38649129D01*
X198573982Y-38744367D02*
X198621601Y-38696748D01*
X198621601Y-38696748D02*
X198716839Y-38649129D01*
X198716839Y-38649129D02*
X198954934Y-38649129D01*
X198954934Y-38649129D02*
X199050172Y-38696748D01*
X199050172Y-38696748D02*
X199097791Y-38744367D01*
X199097791Y-38744367D02*
X199145410Y-38839605D01*
X199145410Y-38839605D02*
X199145410Y-38934843D01*
X199145410Y-38934843D02*
X199097791Y-39077700D01*
X199097791Y-39077700D02*
X198526363Y-39649129D01*
X198526363Y-39649129D02*
X199145410Y-39649129D01*
X200097791Y-39649129D02*
X199526363Y-39649129D01*
X199812077Y-39649129D02*
X199812077Y-38649129D01*
X199812077Y-38649129D02*
X199716839Y-38791986D01*
X199716839Y-38791986D02*
X199621601Y-38887224D01*
X199621601Y-38887224D02*
X199526363Y-38934843D01*
X227857142Y-41954819D02*
X227523809Y-41478628D01*
X227285714Y-41954819D02*
X227285714Y-40954819D01*
X227285714Y-40954819D02*
X227666666Y-40954819D01*
X227666666Y-40954819D02*
X227761904Y-41002438D01*
X227761904Y-41002438D02*
X227809523Y-41050057D01*
X227809523Y-41050057D02*
X227857142Y-41145295D01*
X227857142Y-41145295D02*
X227857142Y-41288152D01*
X227857142Y-41288152D02*
X227809523Y-41383390D01*
X227809523Y-41383390D02*
X227761904Y-41431009D01*
X227761904Y-41431009D02*
X227666666Y-41478628D01*
X227666666Y-41478628D02*
X227285714Y-41478628D01*
X228809523Y-41954819D02*
X228238095Y-41954819D01*
X228523809Y-41954819D02*
X228523809Y-40954819D01*
X228523809Y-40954819D02*
X228428571Y-41097676D01*
X228428571Y-41097676D02*
X228333333Y-41192914D01*
X228333333Y-41192914D02*
X228238095Y-41240533D01*
X229380952Y-41383390D02*
X229285714Y-41335771D01*
X229285714Y-41335771D02*
X229238095Y-41288152D01*
X229238095Y-41288152D02*
X229190476Y-41192914D01*
X229190476Y-41192914D02*
X229190476Y-41145295D01*
X229190476Y-41145295D02*
X229238095Y-41050057D01*
X229238095Y-41050057D02*
X229285714Y-41002438D01*
X229285714Y-41002438D02*
X229380952Y-40954819D01*
X229380952Y-40954819D02*
X229571428Y-40954819D01*
X229571428Y-40954819D02*
X229666666Y-41002438D01*
X229666666Y-41002438D02*
X229714285Y-41050057D01*
X229714285Y-41050057D02*
X229761904Y-41145295D01*
X229761904Y-41145295D02*
X229761904Y-41192914D01*
X229761904Y-41192914D02*
X229714285Y-41288152D01*
X229714285Y-41288152D02*
X229666666Y-41335771D01*
X229666666Y-41335771D02*
X229571428Y-41383390D01*
X229571428Y-41383390D02*
X229380952Y-41383390D01*
X229380952Y-41383390D02*
X229285714Y-41431009D01*
X229285714Y-41431009D02*
X229238095Y-41478628D01*
X229238095Y-41478628D02*
X229190476Y-41573866D01*
X229190476Y-41573866D02*
X229190476Y-41764342D01*
X229190476Y-41764342D02*
X229238095Y-41859580D01*
X229238095Y-41859580D02*
X229285714Y-41907200D01*
X229285714Y-41907200D02*
X229380952Y-41954819D01*
X229380952Y-41954819D02*
X229571428Y-41954819D01*
X229571428Y-41954819D02*
X229666666Y-41907200D01*
X229666666Y-41907200D02*
X229714285Y-41859580D01*
X229714285Y-41859580D02*
X229761904Y-41764342D01*
X229761904Y-41764342D02*
X229761904Y-41573866D01*
X229761904Y-41573866D02*
X229714285Y-41478628D01*
X229714285Y-41478628D02*
X229666666Y-41431009D01*
X229666666Y-41431009D02*
X229571428Y-41383390D01*
X205934819Y-55103333D02*
X206649104Y-55103333D01*
X206649104Y-55103333D02*
X206791961Y-55150952D01*
X206791961Y-55150952D02*
X206887200Y-55246190D01*
X206887200Y-55246190D02*
X206934819Y-55389047D01*
X206934819Y-55389047D02*
X206934819Y-55484285D01*
X206934819Y-54103333D02*
X206934819Y-54674761D01*
X206934819Y-54389047D02*
X205934819Y-54389047D01*
X205934819Y-54389047D02*
X206077676Y-54484285D01*
X206077676Y-54484285D02*
X206172914Y-54579523D01*
X206172914Y-54579523D02*
X206220533Y-54674761D01*
X265690476Y-39907200D02*
X265833333Y-39954819D01*
X265833333Y-39954819D02*
X266071428Y-39954819D01*
X266071428Y-39954819D02*
X266166666Y-39907200D01*
X266166666Y-39907200D02*
X266214285Y-39859580D01*
X266214285Y-39859580D02*
X266261904Y-39764342D01*
X266261904Y-39764342D02*
X266261904Y-39669104D01*
X266261904Y-39669104D02*
X266214285Y-39573866D01*
X266214285Y-39573866D02*
X266166666Y-39526247D01*
X266166666Y-39526247D02*
X266071428Y-39478628D01*
X266071428Y-39478628D02*
X265880952Y-39431009D01*
X265880952Y-39431009D02*
X265785714Y-39383390D01*
X265785714Y-39383390D02*
X265738095Y-39335771D01*
X265738095Y-39335771D02*
X265690476Y-39240533D01*
X265690476Y-39240533D02*
X265690476Y-39145295D01*
X265690476Y-39145295D02*
X265738095Y-39050057D01*
X265738095Y-39050057D02*
X265785714Y-39002438D01*
X265785714Y-39002438D02*
X265880952Y-38954819D01*
X265880952Y-38954819D02*
X266119047Y-38954819D01*
X266119047Y-38954819D02*
X266261904Y-39002438D01*
X266595238Y-38954819D02*
X266833333Y-39954819D01*
X266833333Y-39954819D02*
X267023809Y-39240533D01*
X267023809Y-39240533D02*
X267214285Y-39954819D01*
X267214285Y-39954819D02*
X267452381Y-38954819D01*
X268357142Y-39954819D02*
X267785714Y-39954819D01*
X268071428Y-39954819D02*
X268071428Y-38954819D01*
X268071428Y-38954819D02*
X267976190Y-39097676D01*
X267976190Y-39097676D02*
X267880952Y-39192914D01*
X267880952Y-39192914D02*
X267785714Y-39240533D01*
X269261904Y-38954819D02*
X268785714Y-38954819D01*
X268785714Y-38954819D02*
X268738095Y-39431009D01*
X268738095Y-39431009D02*
X268785714Y-39383390D01*
X268785714Y-39383390D02*
X268880952Y-39335771D01*
X268880952Y-39335771D02*
X269119047Y-39335771D01*
X269119047Y-39335771D02*
X269214285Y-39383390D01*
X269214285Y-39383390D02*
X269261904Y-39431009D01*
X269261904Y-39431009D02*
X269309523Y-39526247D01*
X269309523Y-39526247D02*
X269309523Y-39764342D01*
X269309523Y-39764342D02*
X269261904Y-39859580D01*
X269261904Y-39859580D02*
X269214285Y-39907200D01*
X269214285Y-39907200D02*
X269119047Y-39954819D01*
X269119047Y-39954819D02*
X268880952Y-39954819D01*
X268880952Y-39954819D02*
X268785714Y-39907200D01*
X268785714Y-39907200D02*
X268738095Y-39859580D01*
X174685476Y-137807319D02*
X174685476Y-138521604D01*
X174685476Y-138521604D02*
X174637857Y-138664461D01*
X174637857Y-138664461D02*
X174542619Y-138759700D01*
X174542619Y-138759700D02*
X174399762Y-138807319D01*
X174399762Y-138807319D02*
X174304524Y-138807319D01*
X175685476Y-138807319D02*
X175114048Y-138807319D01*
X175399762Y-138807319D02*
X175399762Y-137807319D01*
X175399762Y-137807319D02*
X175304524Y-137950176D01*
X175304524Y-137950176D02*
X175209286Y-138045414D01*
X175209286Y-138045414D02*
X175114048Y-138093033D01*
X176304524Y-137807319D02*
X176399762Y-137807319D01*
X176399762Y-137807319D02*
X176495000Y-137854938D01*
X176495000Y-137854938D02*
X176542619Y-137902557D01*
X176542619Y-137902557D02*
X176590238Y-137997795D01*
X176590238Y-137997795D02*
X176637857Y-138188271D01*
X176637857Y-138188271D02*
X176637857Y-138426366D01*
X176637857Y-138426366D02*
X176590238Y-138616842D01*
X176590238Y-138616842D02*
X176542619Y-138712080D01*
X176542619Y-138712080D02*
X176495000Y-138759700D01*
X176495000Y-138759700D02*
X176399762Y-138807319D01*
X176399762Y-138807319D02*
X176304524Y-138807319D01*
X176304524Y-138807319D02*
X176209286Y-138759700D01*
X176209286Y-138759700D02*
X176161667Y-138712080D01*
X176161667Y-138712080D02*
X176114048Y-138616842D01*
X176114048Y-138616842D02*
X176066429Y-138426366D01*
X176066429Y-138426366D02*
X176066429Y-138188271D01*
X176066429Y-138188271D02*
X176114048Y-137997795D01*
X176114048Y-137997795D02*
X176161667Y-137902557D01*
X176161667Y-137902557D02*
X176209286Y-137854938D01*
X176209286Y-137854938D02*
X176304524Y-137807319D01*
X136357142Y-42703811D02*
X136023809Y-42227620D01*
X135785714Y-42703811D02*
X135785714Y-41703811D01*
X135785714Y-41703811D02*
X136166666Y-41703811D01*
X136166666Y-41703811D02*
X136261904Y-41751430D01*
X136261904Y-41751430D02*
X136309523Y-41799049D01*
X136309523Y-41799049D02*
X136357142Y-41894287D01*
X136357142Y-41894287D02*
X136357142Y-42037144D01*
X136357142Y-42037144D02*
X136309523Y-42132382D01*
X136309523Y-42132382D02*
X136261904Y-42180001D01*
X136261904Y-42180001D02*
X136166666Y-42227620D01*
X136166666Y-42227620D02*
X135785714Y-42227620D01*
X136738095Y-41799049D02*
X136785714Y-41751430D01*
X136785714Y-41751430D02*
X136880952Y-41703811D01*
X136880952Y-41703811D02*
X137119047Y-41703811D01*
X137119047Y-41703811D02*
X137214285Y-41751430D01*
X137214285Y-41751430D02*
X137261904Y-41799049D01*
X137261904Y-41799049D02*
X137309523Y-41894287D01*
X137309523Y-41894287D02*
X137309523Y-41989525D01*
X137309523Y-41989525D02*
X137261904Y-42132382D01*
X137261904Y-42132382D02*
X136690476Y-42703811D01*
X136690476Y-42703811D02*
X137309523Y-42703811D01*
X138166666Y-41703811D02*
X137976190Y-41703811D01*
X137976190Y-41703811D02*
X137880952Y-41751430D01*
X137880952Y-41751430D02*
X137833333Y-41799049D01*
X137833333Y-41799049D02*
X137738095Y-41941906D01*
X137738095Y-41941906D02*
X137690476Y-42132382D01*
X137690476Y-42132382D02*
X137690476Y-42513334D01*
X137690476Y-42513334D02*
X137738095Y-42608572D01*
X137738095Y-42608572D02*
X137785714Y-42656192D01*
X137785714Y-42656192D02*
X137880952Y-42703811D01*
X137880952Y-42703811D02*
X138071428Y-42703811D01*
X138071428Y-42703811D02*
X138166666Y-42656192D01*
X138166666Y-42656192D02*
X138214285Y-42608572D01*
X138214285Y-42608572D02*
X138261904Y-42513334D01*
X138261904Y-42513334D02*
X138261904Y-42275239D01*
X138261904Y-42275239D02*
X138214285Y-42180001D01*
X138214285Y-42180001D02*
X138166666Y-42132382D01*
X138166666Y-42132382D02*
X138071428Y-42084763D01*
X138071428Y-42084763D02*
X137880952Y-42084763D01*
X137880952Y-42084763D02*
X137785714Y-42132382D01*
X137785714Y-42132382D02*
X137738095Y-42180001D01*
X137738095Y-42180001D02*
X137690476Y-42275239D01*
X242359089Y-39698710D02*
X242501946Y-39746329D01*
X242501946Y-39746329D02*
X242740041Y-39746329D01*
X242740041Y-39746329D02*
X242835279Y-39698710D01*
X242835279Y-39698710D02*
X242882898Y-39651090D01*
X242882898Y-39651090D02*
X242930517Y-39555852D01*
X242930517Y-39555852D02*
X242930517Y-39460614D01*
X242930517Y-39460614D02*
X242882898Y-39365376D01*
X242882898Y-39365376D02*
X242835279Y-39317757D01*
X242835279Y-39317757D02*
X242740041Y-39270138D01*
X242740041Y-39270138D02*
X242549565Y-39222519D01*
X242549565Y-39222519D02*
X242454327Y-39174900D01*
X242454327Y-39174900D02*
X242406708Y-39127281D01*
X242406708Y-39127281D02*
X242359089Y-39032043D01*
X242359089Y-39032043D02*
X242359089Y-38936805D01*
X242359089Y-38936805D02*
X242406708Y-38841567D01*
X242406708Y-38841567D02*
X242454327Y-38793948D01*
X242454327Y-38793948D02*
X242549565Y-38746329D01*
X242549565Y-38746329D02*
X242787660Y-38746329D01*
X242787660Y-38746329D02*
X242930517Y-38793948D01*
X243263851Y-38746329D02*
X243501946Y-39746329D01*
X243501946Y-39746329D02*
X243692422Y-39032043D01*
X243692422Y-39032043D02*
X243882898Y-39746329D01*
X243882898Y-39746329D02*
X244120994Y-38746329D01*
X245025755Y-39746329D02*
X244454327Y-39746329D01*
X244740041Y-39746329D02*
X244740041Y-38746329D01*
X244740041Y-38746329D02*
X244644803Y-38889186D01*
X244644803Y-38889186D02*
X244549565Y-38984424D01*
X244549565Y-38984424D02*
X244454327Y-39032043D01*
X245359089Y-38746329D02*
X246025755Y-38746329D01*
X246025755Y-38746329D02*
X245597184Y-39746329D01*
X116008084Y-39613933D02*
X116150941Y-39661552D01*
X116150941Y-39661552D02*
X116389036Y-39661552D01*
X116389036Y-39661552D02*
X116484274Y-39613933D01*
X116484274Y-39613933D02*
X116531893Y-39566313D01*
X116531893Y-39566313D02*
X116579512Y-39471075D01*
X116579512Y-39471075D02*
X116579512Y-39375837D01*
X116579512Y-39375837D02*
X116531893Y-39280599D01*
X116531893Y-39280599D02*
X116484274Y-39232980D01*
X116484274Y-39232980D02*
X116389036Y-39185361D01*
X116389036Y-39185361D02*
X116198560Y-39137742D01*
X116198560Y-39137742D02*
X116103322Y-39090123D01*
X116103322Y-39090123D02*
X116055703Y-39042504D01*
X116055703Y-39042504D02*
X116008084Y-38947266D01*
X116008084Y-38947266D02*
X116008084Y-38852028D01*
X116008084Y-38852028D02*
X116055703Y-38756790D01*
X116055703Y-38756790D02*
X116103322Y-38709171D01*
X116103322Y-38709171D02*
X116198560Y-38661552D01*
X116198560Y-38661552D02*
X116436655Y-38661552D01*
X116436655Y-38661552D02*
X116579512Y-38709171D01*
X116912846Y-38661552D02*
X117150941Y-39661552D01*
X117150941Y-39661552D02*
X117341417Y-38947266D01*
X117341417Y-38947266D02*
X117531893Y-39661552D01*
X117531893Y-39661552D02*
X117769989Y-38661552D01*
X118103322Y-38756790D02*
X118150941Y-38709171D01*
X118150941Y-38709171D02*
X118246179Y-38661552D01*
X118246179Y-38661552D02*
X118484274Y-38661552D01*
X118484274Y-38661552D02*
X118579512Y-38709171D01*
X118579512Y-38709171D02*
X118627131Y-38756790D01*
X118627131Y-38756790D02*
X118674750Y-38852028D01*
X118674750Y-38852028D02*
X118674750Y-38947266D01*
X118674750Y-38947266D02*
X118627131Y-39090123D01*
X118627131Y-39090123D02*
X118055703Y-39661552D01*
X118055703Y-39661552D02*
X118674750Y-39661552D01*
X119246179Y-39090123D02*
X119150941Y-39042504D01*
X119150941Y-39042504D02*
X119103322Y-38994885D01*
X119103322Y-38994885D02*
X119055703Y-38899647D01*
X119055703Y-38899647D02*
X119055703Y-38852028D01*
X119055703Y-38852028D02*
X119103322Y-38756790D01*
X119103322Y-38756790D02*
X119150941Y-38709171D01*
X119150941Y-38709171D02*
X119246179Y-38661552D01*
X119246179Y-38661552D02*
X119436655Y-38661552D01*
X119436655Y-38661552D02*
X119531893Y-38709171D01*
X119531893Y-38709171D02*
X119579512Y-38756790D01*
X119579512Y-38756790D02*
X119627131Y-38852028D01*
X119627131Y-38852028D02*
X119627131Y-38899647D01*
X119627131Y-38899647D02*
X119579512Y-38994885D01*
X119579512Y-38994885D02*
X119531893Y-39042504D01*
X119531893Y-39042504D02*
X119436655Y-39090123D01*
X119436655Y-39090123D02*
X119246179Y-39090123D01*
X119246179Y-39090123D02*
X119150941Y-39137742D01*
X119150941Y-39137742D02*
X119103322Y-39185361D01*
X119103322Y-39185361D02*
X119055703Y-39280599D01*
X119055703Y-39280599D02*
X119055703Y-39471075D01*
X119055703Y-39471075D02*
X119103322Y-39566313D01*
X119103322Y-39566313D02*
X119150941Y-39613933D01*
X119150941Y-39613933D02*
X119246179Y-39661552D01*
X119246179Y-39661552D02*
X119436655Y-39661552D01*
X119436655Y-39661552D02*
X119531893Y-39613933D01*
X119531893Y-39613933D02*
X119579512Y-39566313D01*
X119579512Y-39566313D02*
X119627131Y-39471075D01*
X119627131Y-39471075D02*
X119627131Y-39280599D01*
X119627131Y-39280599D02*
X119579512Y-39185361D01*
X119579512Y-39185361D02*
X119531893Y-39137742D01*
X119531893Y-39137742D02*
X119436655Y-39090123D01*
X117230476Y-137807319D02*
X117230476Y-138521604D01*
X117230476Y-138521604D02*
X117182857Y-138664461D01*
X117182857Y-138664461D02*
X117087619Y-138759700D01*
X117087619Y-138759700D02*
X116944762Y-138807319D01*
X116944762Y-138807319D02*
X116849524Y-138807319D01*
X118230476Y-138807319D02*
X117659048Y-138807319D01*
X117944762Y-138807319D02*
X117944762Y-137807319D01*
X117944762Y-137807319D02*
X117849524Y-137950176D01*
X117849524Y-137950176D02*
X117754286Y-138045414D01*
X117754286Y-138045414D02*
X117659048Y-138093033D01*
X119135238Y-137807319D02*
X118659048Y-137807319D01*
X118659048Y-137807319D02*
X118611429Y-138283509D01*
X118611429Y-138283509D02*
X118659048Y-138235890D01*
X118659048Y-138235890D02*
X118754286Y-138188271D01*
X118754286Y-138188271D02*
X118992381Y-138188271D01*
X118992381Y-138188271D02*
X119087619Y-138235890D01*
X119087619Y-138235890D02*
X119135238Y-138283509D01*
X119135238Y-138283509D02*
X119182857Y-138378747D01*
X119182857Y-138378747D02*
X119182857Y-138616842D01*
X119182857Y-138616842D02*
X119135238Y-138712080D01*
X119135238Y-138712080D02*
X119087619Y-138759700D01*
X119087619Y-138759700D02*
X118992381Y-138807319D01*
X118992381Y-138807319D02*
X118754286Y-138807319D01*
X118754286Y-138807319D02*
X118659048Y-138759700D01*
X118659048Y-138759700D02*
X118611429Y-138712080D01*
X150486431Y-39613933D02*
X150629288Y-39661552D01*
X150629288Y-39661552D02*
X150867383Y-39661552D01*
X150867383Y-39661552D02*
X150962621Y-39613933D01*
X150962621Y-39613933D02*
X151010240Y-39566313D01*
X151010240Y-39566313D02*
X151057859Y-39471075D01*
X151057859Y-39471075D02*
X151057859Y-39375837D01*
X151057859Y-39375837D02*
X151010240Y-39280599D01*
X151010240Y-39280599D02*
X150962621Y-39232980D01*
X150962621Y-39232980D02*
X150867383Y-39185361D01*
X150867383Y-39185361D02*
X150676907Y-39137742D01*
X150676907Y-39137742D02*
X150581669Y-39090123D01*
X150581669Y-39090123D02*
X150534050Y-39042504D01*
X150534050Y-39042504D02*
X150486431Y-38947266D01*
X150486431Y-38947266D02*
X150486431Y-38852028D01*
X150486431Y-38852028D02*
X150534050Y-38756790D01*
X150534050Y-38756790D02*
X150581669Y-38709171D01*
X150581669Y-38709171D02*
X150676907Y-38661552D01*
X150676907Y-38661552D02*
X150915002Y-38661552D01*
X150915002Y-38661552D02*
X151057859Y-38709171D01*
X151391193Y-38661552D02*
X151629288Y-39661552D01*
X151629288Y-39661552D02*
X151819764Y-38947266D01*
X151819764Y-38947266D02*
X152010240Y-39661552D01*
X152010240Y-39661552D02*
X152248336Y-38661552D01*
X152581669Y-38756790D02*
X152629288Y-38709171D01*
X152629288Y-38709171D02*
X152724526Y-38661552D01*
X152724526Y-38661552D02*
X152962621Y-38661552D01*
X152962621Y-38661552D02*
X153057859Y-38709171D01*
X153057859Y-38709171D02*
X153105478Y-38756790D01*
X153105478Y-38756790D02*
X153153097Y-38852028D01*
X153153097Y-38852028D02*
X153153097Y-38947266D01*
X153153097Y-38947266D02*
X153105478Y-39090123D01*
X153105478Y-39090123D02*
X152534050Y-39661552D01*
X152534050Y-39661552D02*
X153153097Y-39661552D01*
X154057859Y-38661552D02*
X153581669Y-38661552D01*
X153581669Y-38661552D02*
X153534050Y-39137742D01*
X153534050Y-39137742D02*
X153581669Y-39090123D01*
X153581669Y-39090123D02*
X153676907Y-39042504D01*
X153676907Y-39042504D02*
X153915002Y-39042504D01*
X153915002Y-39042504D02*
X154010240Y-39090123D01*
X154010240Y-39090123D02*
X154057859Y-39137742D01*
X154057859Y-39137742D02*
X154105478Y-39232980D01*
X154105478Y-39232980D02*
X154105478Y-39471075D01*
X154105478Y-39471075D02*
X154057859Y-39566313D01*
X154057859Y-39566313D02*
X154010240Y-39613933D01*
X154010240Y-39613933D02*
X153915002Y-39661552D01*
X153915002Y-39661552D02*
X153676907Y-39661552D01*
X153676907Y-39661552D02*
X153581669Y-39613933D01*
X153581669Y-39613933D02*
X153534050Y-39566313D01*
X139227081Y-39643467D02*
X139369938Y-39691086D01*
X139369938Y-39691086D02*
X139608033Y-39691086D01*
X139608033Y-39691086D02*
X139703271Y-39643467D01*
X139703271Y-39643467D02*
X139750890Y-39595847D01*
X139750890Y-39595847D02*
X139798509Y-39500609D01*
X139798509Y-39500609D02*
X139798509Y-39405371D01*
X139798509Y-39405371D02*
X139750890Y-39310133D01*
X139750890Y-39310133D02*
X139703271Y-39262514D01*
X139703271Y-39262514D02*
X139608033Y-39214895D01*
X139608033Y-39214895D02*
X139417557Y-39167276D01*
X139417557Y-39167276D02*
X139322319Y-39119657D01*
X139322319Y-39119657D02*
X139274700Y-39072038D01*
X139274700Y-39072038D02*
X139227081Y-38976800D01*
X139227081Y-38976800D02*
X139227081Y-38881562D01*
X139227081Y-38881562D02*
X139274700Y-38786324D01*
X139274700Y-38786324D02*
X139322319Y-38738705D01*
X139322319Y-38738705D02*
X139417557Y-38691086D01*
X139417557Y-38691086D02*
X139655652Y-38691086D01*
X139655652Y-38691086D02*
X139798509Y-38738705D01*
X140131843Y-38691086D02*
X140369938Y-39691086D01*
X140369938Y-39691086D02*
X140560414Y-38976800D01*
X140560414Y-38976800D02*
X140750890Y-39691086D01*
X140750890Y-39691086D02*
X140988986Y-38691086D01*
X141322319Y-38786324D02*
X141369938Y-38738705D01*
X141369938Y-38738705D02*
X141465176Y-38691086D01*
X141465176Y-38691086D02*
X141703271Y-38691086D01*
X141703271Y-38691086D02*
X141798509Y-38738705D01*
X141798509Y-38738705D02*
X141846128Y-38786324D01*
X141846128Y-38786324D02*
X141893747Y-38881562D01*
X141893747Y-38881562D02*
X141893747Y-38976800D01*
X141893747Y-38976800D02*
X141846128Y-39119657D01*
X141846128Y-39119657D02*
X141274700Y-39691086D01*
X141274700Y-39691086D02*
X141893747Y-39691086D01*
X142750890Y-38691086D02*
X142560414Y-38691086D01*
X142560414Y-38691086D02*
X142465176Y-38738705D01*
X142465176Y-38738705D02*
X142417557Y-38786324D01*
X142417557Y-38786324D02*
X142322319Y-38929181D01*
X142322319Y-38929181D02*
X142274700Y-39119657D01*
X142274700Y-39119657D02*
X142274700Y-39500609D01*
X142274700Y-39500609D02*
X142322319Y-39595847D01*
X142322319Y-39595847D02*
X142369938Y-39643467D01*
X142369938Y-39643467D02*
X142465176Y-39691086D01*
X142465176Y-39691086D02*
X142655652Y-39691086D01*
X142655652Y-39691086D02*
X142750890Y-39643467D01*
X142750890Y-39643467D02*
X142798509Y-39595847D01*
X142798509Y-39595847D02*
X142846128Y-39500609D01*
X142846128Y-39500609D02*
X142846128Y-39262514D01*
X142846128Y-39262514D02*
X142798509Y-39167276D01*
X142798509Y-39167276D02*
X142750890Y-39119657D01*
X142750890Y-39119657D02*
X142655652Y-39072038D01*
X142655652Y-39072038D02*
X142465176Y-39072038D01*
X142465176Y-39072038D02*
X142369938Y-39119657D01*
X142369938Y-39119657D02*
X142322319Y-39167276D01*
X142322319Y-39167276D02*
X142274700Y-39262514D01*
X232240476Y-36602319D02*
X232240476Y-37316604D01*
X232240476Y-37316604D02*
X232192857Y-37459461D01*
X232192857Y-37459461D02*
X232097619Y-37554700D01*
X232097619Y-37554700D02*
X231954762Y-37602319D01*
X231954762Y-37602319D02*
X231859524Y-37602319D01*
X233240476Y-37602319D02*
X232669048Y-37602319D01*
X232954762Y-37602319D02*
X232954762Y-36602319D01*
X232954762Y-36602319D02*
X232859524Y-36745176D01*
X232859524Y-36745176D02*
X232764286Y-36840414D01*
X232764286Y-36840414D02*
X232669048Y-36888033D01*
X233716667Y-37602319D02*
X233907143Y-37602319D01*
X233907143Y-37602319D02*
X234002381Y-37554700D01*
X234002381Y-37554700D02*
X234050000Y-37507080D01*
X234050000Y-37507080D02*
X234145238Y-37364223D01*
X234145238Y-37364223D02*
X234192857Y-37173747D01*
X234192857Y-37173747D02*
X234192857Y-36792795D01*
X234192857Y-36792795D02*
X234145238Y-36697557D01*
X234145238Y-36697557D02*
X234097619Y-36649938D01*
X234097619Y-36649938D02*
X234002381Y-36602319D01*
X234002381Y-36602319D02*
X233811905Y-36602319D01*
X233811905Y-36602319D02*
X233716667Y-36649938D01*
X233716667Y-36649938D02*
X233669048Y-36697557D01*
X233669048Y-36697557D02*
X233621429Y-36792795D01*
X233621429Y-36792795D02*
X233621429Y-37030890D01*
X233621429Y-37030890D02*
X233669048Y-37126128D01*
X233669048Y-37126128D02*
X233716667Y-37173747D01*
X233716667Y-37173747D02*
X233811905Y-37221366D01*
X233811905Y-37221366D02*
X234002381Y-37221366D01*
X234002381Y-37221366D02*
X234097619Y-37173747D01*
X234097619Y-37173747D02*
X234145238Y-37126128D01*
X234145238Y-37126128D02*
X234192857Y-37030890D01*
X163185476Y-137807319D02*
X163185476Y-138521604D01*
X163185476Y-138521604D02*
X163137857Y-138664461D01*
X163137857Y-138664461D02*
X163042619Y-138759700D01*
X163042619Y-138759700D02*
X162899762Y-138807319D01*
X162899762Y-138807319D02*
X162804524Y-138807319D01*
X164185476Y-138807319D02*
X163614048Y-138807319D01*
X163899762Y-138807319D02*
X163899762Y-137807319D01*
X163899762Y-137807319D02*
X163804524Y-137950176D01*
X163804524Y-137950176D02*
X163709286Y-138045414D01*
X163709286Y-138045414D02*
X163614048Y-138093033D01*
X165137857Y-138807319D02*
X164566429Y-138807319D01*
X164852143Y-138807319D02*
X164852143Y-137807319D01*
X164852143Y-137807319D02*
X164756905Y-137950176D01*
X164756905Y-137950176D02*
X164661667Y-138045414D01*
X164661667Y-138045414D02*
X164566429Y-138093033D01*
X184998135Y-39635476D02*
X185140992Y-39683095D01*
X185140992Y-39683095D02*
X185379087Y-39683095D01*
X185379087Y-39683095D02*
X185474325Y-39635476D01*
X185474325Y-39635476D02*
X185521944Y-39587856D01*
X185521944Y-39587856D02*
X185569563Y-39492618D01*
X185569563Y-39492618D02*
X185569563Y-39397380D01*
X185569563Y-39397380D02*
X185521944Y-39302142D01*
X185521944Y-39302142D02*
X185474325Y-39254523D01*
X185474325Y-39254523D02*
X185379087Y-39206904D01*
X185379087Y-39206904D02*
X185188611Y-39159285D01*
X185188611Y-39159285D02*
X185093373Y-39111666D01*
X185093373Y-39111666D02*
X185045754Y-39064047D01*
X185045754Y-39064047D02*
X184998135Y-38968809D01*
X184998135Y-38968809D02*
X184998135Y-38873571D01*
X184998135Y-38873571D02*
X185045754Y-38778333D01*
X185045754Y-38778333D02*
X185093373Y-38730714D01*
X185093373Y-38730714D02*
X185188611Y-38683095D01*
X185188611Y-38683095D02*
X185426706Y-38683095D01*
X185426706Y-38683095D02*
X185569563Y-38730714D01*
X185902897Y-38683095D02*
X186140992Y-39683095D01*
X186140992Y-39683095D02*
X186331468Y-38968809D01*
X186331468Y-38968809D02*
X186521944Y-39683095D01*
X186521944Y-39683095D02*
X186760040Y-38683095D01*
X187093373Y-38778333D02*
X187140992Y-38730714D01*
X187140992Y-38730714D02*
X187236230Y-38683095D01*
X187236230Y-38683095D02*
X187474325Y-38683095D01*
X187474325Y-38683095D02*
X187569563Y-38730714D01*
X187569563Y-38730714D02*
X187617182Y-38778333D01*
X187617182Y-38778333D02*
X187664801Y-38873571D01*
X187664801Y-38873571D02*
X187664801Y-38968809D01*
X187664801Y-38968809D02*
X187617182Y-39111666D01*
X187617182Y-39111666D02*
X187045754Y-39683095D01*
X187045754Y-39683095D02*
X187664801Y-39683095D01*
X188045754Y-38778333D02*
X188093373Y-38730714D01*
X188093373Y-38730714D02*
X188188611Y-38683095D01*
X188188611Y-38683095D02*
X188426706Y-38683095D01*
X188426706Y-38683095D02*
X188521944Y-38730714D01*
X188521944Y-38730714D02*
X188569563Y-38778333D01*
X188569563Y-38778333D02*
X188617182Y-38873571D01*
X188617182Y-38873571D02*
X188617182Y-38968809D01*
X188617182Y-38968809D02*
X188569563Y-39111666D01*
X188569563Y-39111666D02*
X187998135Y-39683095D01*
X187998135Y-39683095D02*
X188617182Y-39683095D01*
X163275476Y-36774819D02*
X163275476Y-37489104D01*
X163275476Y-37489104D02*
X163227857Y-37631961D01*
X163227857Y-37631961D02*
X163132619Y-37727200D01*
X163132619Y-37727200D02*
X162989762Y-37774819D01*
X162989762Y-37774819D02*
X162894524Y-37774819D01*
X163704048Y-36870057D02*
X163751667Y-36822438D01*
X163751667Y-36822438D02*
X163846905Y-36774819D01*
X163846905Y-36774819D02*
X164085000Y-36774819D01*
X164085000Y-36774819D02*
X164180238Y-36822438D01*
X164180238Y-36822438D02*
X164227857Y-36870057D01*
X164227857Y-36870057D02*
X164275476Y-36965295D01*
X164275476Y-36965295D02*
X164275476Y-37060533D01*
X164275476Y-37060533D02*
X164227857Y-37203390D01*
X164227857Y-37203390D02*
X163656429Y-37774819D01*
X163656429Y-37774819D02*
X164275476Y-37774819D01*
X165180238Y-36774819D02*
X164704048Y-36774819D01*
X164704048Y-36774819D02*
X164656429Y-37251009D01*
X164656429Y-37251009D02*
X164704048Y-37203390D01*
X164704048Y-37203390D02*
X164799286Y-37155771D01*
X164799286Y-37155771D02*
X165037381Y-37155771D01*
X165037381Y-37155771D02*
X165132619Y-37203390D01*
X165132619Y-37203390D02*
X165180238Y-37251009D01*
X165180238Y-37251009D02*
X165227857Y-37346247D01*
X165227857Y-37346247D02*
X165227857Y-37584342D01*
X165227857Y-37584342D02*
X165180238Y-37679580D01*
X165180238Y-37679580D02*
X165132619Y-37727200D01*
X165132619Y-37727200D02*
X165037381Y-37774819D01*
X165037381Y-37774819D02*
X164799286Y-37774819D01*
X164799286Y-37774819D02*
X164704048Y-37727200D01*
X164704048Y-37727200D02*
X164656429Y-37679580D01*
X210792800Y-129516667D02*
X210745180Y-129659524D01*
X210745180Y-129659524D02*
X210745180Y-129897619D01*
X210745180Y-129897619D02*
X210792800Y-129992857D01*
X210792800Y-129992857D02*
X210840419Y-130040476D01*
X210840419Y-130040476D02*
X210935657Y-130088095D01*
X210935657Y-130088095D02*
X211030895Y-130088095D01*
X211030895Y-130088095D02*
X211126133Y-130040476D01*
X211126133Y-130040476D02*
X211173752Y-129992857D01*
X211173752Y-129992857D02*
X211221371Y-129897619D01*
X211221371Y-129897619D02*
X211268990Y-129707143D01*
X211268990Y-129707143D02*
X211316609Y-129611905D01*
X211316609Y-129611905D02*
X211364228Y-129564286D01*
X211364228Y-129564286D02*
X211459466Y-129516667D01*
X211459466Y-129516667D02*
X211554704Y-129516667D01*
X211554704Y-129516667D02*
X211649942Y-129564286D01*
X211649942Y-129564286D02*
X211697561Y-129611905D01*
X211697561Y-129611905D02*
X211745180Y-129707143D01*
X211745180Y-129707143D02*
X211745180Y-129945238D01*
X211745180Y-129945238D02*
X211697561Y-130088095D01*
X211745180Y-130421429D02*
X210745180Y-130659524D01*
X210745180Y-130659524D02*
X211459466Y-130850000D01*
X211459466Y-130850000D02*
X210745180Y-131040476D01*
X210745180Y-131040476D02*
X211745180Y-131278572D01*
X211745180Y-132088095D02*
X211745180Y-131897619D01*
X211745180Y-131897619D02*
X211697561Y-131802381D01*
X211697561Y-131802381D02*
X211649942Y-131754762D01*
X211649942Y-131754762D02*
X211507085Y-131659524D01*
X211507085Y-131659524D02*
X211316609Y-131611905D01*
X211316609Y-131611905D02*
X210935657Y-131611905D01*
X210935657Y-131611905D02*
X210840419Y-131659524D01*
X210840419Y-131659524D02*
X210792800Y-131707143D01*
X210792800Y-131707143D02*
X210745180Y-131802381D01*
X210745180Y-131802381D02*
X210745180Y-131992857D01*
X210745180Y-131992857D02*
X210792800Y-132088095D01*
X210792800Y-132088095D02*
X210840419Y-132135714D01*
X210840419Y-132135714D02*
X210935657Y-132183333D01*
X210935657Y-132183333D02*
X211173752Y-132183333D01*
X211173752Y-132183333D02*
X211268990Y-132135714D01*
X211268990Y-132135714D02*
X211316609Y-132088095D01*
X211316609Y-132088095D02*
X211364228Y-131992857D01*
X211364228Y-131992857D02*
X211364228Y-131802381D01*
X211364228Y-131802381D02*
X211316609Y-131707143D01*
X211316609Y-131707143D02*
X211268990Y-131659524D01*
X211268990Y-131659524D02*
X211173752Y-131611905D01*
X186661666Y-137807319D02*
X186661666Y-138521604D01*
X186661666Y-138521604D02*
X186614047Y-138664461D01*
X186614047Y-138664461D02*
X186518809Y-138759700D01*
X186518809Y-138759700D02*
X186375952Y-138807319D01*
X186375952Y-138807319D02*
X186280714Y-138807319D01*
X187185476Y-138807319D02*
X187375952Y-138807319D01*
X187375952Y-138807319D02*
X187471190Y-138759700D01*
X187471190Y-138759700D02*
X187518809Y-138712080D01*
X187518809Y-138712080D02*
X187614047Y-138569223D01*
X187614047Y-138569223D02*
X187661666Y-138378747D01*
X187661666Y-138378747D02*
X187661666Y-137997795D01*
X187661666Y-137997795D02*
X187614047Y-137902557D01*
X187614047Y-137902557D02*
X187566428Y-137854938D01*
X187566428Y-137854938D02*
X187471190Y-137807319D01*
X187471190Y-137807319D02*
X187280714Y-137807319D01*
X187280714Y-137807319D02*
X187185476Y-137854938D01*
X187185476Y-137854938D02*
X187137857Y-137902557D01*
X187137857Y-137902557D02*
X187090238Y-137997795D01*
X187090238Y-137997795D02*
X187090238Y-138235890D01*
X187090238Y-138235890D02*
X187137857Y-138331128D01*
X187137857Y-138331128D02*
X187185476Y-138378747D01*
X187185476Y-138378747D02*
X187280714Y-138426366D01*
X187280714Y-138426366D02*
X187471190Y-138426366D01*
X187471190Y-138426366D02*
X187566428Y-138378747D01*
X187566428Y-138378747D02*
X187614047Y-138331128D01*
X187614047Y-138331128D02*
X187661666Y-138235890D01*
X170857142Y-42696968D02*
X170523809Y-42220777D01*
X170285714Y-42696968D02*
X170285714Y-41696968D01*
X170285714Y-41696968D02*
X170666666Y-41696968D01*
X170666666Y-41696968D02*
X170761904Y-41744587D01*
X170761904Y-41744587D02*
X170809523Y-41792206D01*
X170809523Y-41792206D02*
X170857142Y-41887444D01*
X170857142Y-41887444D02*
X170857142Y-42030301D01*
X170857142Y-42030301D02*
X170809523Y-42125539D01*
X170809523Y-42125539D02*
X170761904Y-42173158D01*
X170761904Y-42173158D02*
X170666666Y-42220777D01*
X170666666Y-42220777D02*
X170285714Y-42220777D01*
X171238095Y-41792206D02*
X171285714Y-41744587D01*
X171285714Y-41744587D02*
X171380952Y-41696968D01*
X171380952Y-41696968D02*
X171619047Y-41696968D01*
X171619047Y-41696968D02*
X171714285Y-41744587D01*
X171714285Y-41744587D02*
X171761904Y-41792206D01*
X171761904Y-41792206D02*
X171809523Y-41887444D01*
X171809523Y-41887444D02*
X171809523Y-41982682D01*
X171809523Y-41982682D02*
X171761904Y-42125539D01*
X171761904Y-42125539D02*
X171190476Y-42696968D01*
X171190476Y-42696968D02*
X171809523Y-42696968D01*
X172142857Y-41696968D02*
X172761904Y-41696968D01*
X172761904Y-41696968D02*
X172428571Y-42077920D01*
X172428571Y-42077920D02*
X172571428Y-42077920D01*
X172571428Y-42077920D02*
X172666666Y-42125539D01*
X172666666Y-42125539D02*
X172714285Y-42173158D01*
X172714285Y-42173158D02*
X172761904Y-42268396D01*
X172761904Y-42268396D02*
X172761904Y-42506491D01*
X172761904Y-42506491D02*
X172714285Y-42601729D01*
X172714285Y-42601729D02*
X172666666Y-42649349D01*
X172666666Y-42649349D02*
X172571428Y-42696968D01*
X172571428Y-42696968D02*
X172285714Y-42696968D01*
X172285714Y-42696968D02*
X172190476Y-42649349D01*
X172190476Y-42649349D02*
X172142857Y-42601729D01*
X199342800Y-129616667D02*
X199295180Y-129759524D01*
X199295180Y-129759524D02*
X199295180Y-129997619D01*
X199295180Y-129997619D02*
X199342800Y-130092857D01*
X199342800Y-130092857D02*
X199390419Y-130140476D01*
X199390419Y-130140476D02*
X199485657Y-130188095D01*
X199485657Y-130188095D02*
X199580895Y-130188095D01*
X199580895Y-130188095D02*
X199676133Y-130140476D01*
X199676133Y-130140476D02*
X199723752Y-130092857D01*
X199723752Y-130092857D02*
X199771371Y-129997619D01*
X199771371Y-129997619D02*
X199818990Y-129807143D01*
X199818990Y-129807143D02*
X199866609Y-129711905D01*
X199866609Y-129711905D02*
X199914228Y-129664286D01*
X199914228Y-129664286D02*
X200009466Y-129616667D01*
X200009466Y-129616667D02*
X200104704Y-129616667D01*
X200104704Y-129616667D02*
X200199942Y-129664286D01*
X200199942Y-129664286D02*
X200247561Y-129711905D01*
X200247561Y-129711905D02*
X200295180Y-129807143D01*
X200295180Y-129807143D02*
X200295180Y-130045238D01*
X200295180Y-130045238D02*
X200247561Y-130188095D01*
X200295180Y-130521429D02*
X199295180Y-130759524D01*
X199295180Y-130759524D02*
X200009466Y-130950000D01*
X200009466Y-130950000D02*
X199295180Y-131140476D01*
X199295180Y-131140476D02*
X200295180Y-131378572D01*
X200295180Y-131664286D02*
X200295180Y-132330952D01*
X200295180Y-132330952D02*
X199295180Y-131902381D01*
X220740476Y-36602319D02*
X220740476Y-37316604D01*
X220740476Y-37316604D02*
X220692857Y-37459461D01*
X220692857Y-37459461D02*
X220597619Y-37554700D01*
X220597619Y-37554700D02*
X220454762Y-37602319D01*
X220454762Y-37602319D02*
X220359524Y-37602319D01*
X221169048Y-36697557D02*
X221216667Y-36649938D01*
X221216667Y-36649938D02*
X221311905Y-36602319D01*
X221311905Y-36602319D02*
X221550000Y-36602319D01*
X221550000Y-36602319D02*
X221645238Y-36649938D01*
X221645238Y-36649938D02*
X221692857Y-36697557D01*
X221692857Y-36697557D02*
X221740476Y-36792795D01*
X221740476Y-36792795D02*
X221740476Y-36888033D01*
X221740476Y-36888033D02*
X221692857Y-37030890D01*
X221692857Y-37030890D02*
X221121429Y-37602319D01*
X221121429Y-37602319D02*
X221740476Y-37602319D01*
X222359524Y-36602319D02*
X222454762Y-36602319D01*
X222454762Y-36602319D02*
X222550000Y-36649938D01*
X222550000Y-36649938D02*
X222597619Y-36697557D01*
X222597619Y-36697557D02*
X222645238Y-36792795D01*
X222645238Y-36792795D02*
X222692857Y-36983271D01*
X222692857Y-36983271D02*
X222692857Y-37221366D01*
X222692857Y-37221366D02*
X222645238Y-37411842D01*
X222645238Y-37411842D02*
X222597619Y-37507080D01*
X222597619Y-37507080D02*
X222550000Y-37554700D01*
X222550000Y-37554700D02*
X222454762Y-37602319D01*
X222454762Y-37602319D02*
X222359524Y-37602319D01*
X222359524Y-37602319D02*
X222264286Y-37554700D01*
X222264286Y-37554700D02*
X222216667Y-37507080D01*
X222216667Y-37507080D02*
X222169048Y-37411842D01*
X222169048Y-37411842D02*
X222121429Y-37221366D01*
X222121429Y-37221366D02*
X222121429Y-36983271D01*
X222121429Y-36983271D02*
X222169048Y-36792795D01*
X222169048Y-36792795D02*
X222216667Y-36697557D01*
X222216667Y-36697557D02*
X222264286Y-36649938D01*
X222264286Y-36649938D02*
X222359524Y-36602319D01*
X255661666Y-137807319D02*
X255661666Y-138521604D01*
X255661666Y-138521604D02*
X255614047Y-138664461D01*
X255614047Y-138664461D02*
X255518809Y-138759700D01*
X255518809Y-138759700D02*
X255375952Y-138807319D01*
X255375952Y-138807319D02*
X255280714Y-138807319D01*
X256042619Y-137807319D02*
X256661666Y-137807319D01*
X256661666Y-137807319D02*
X256328333Y-138188271D01*
X256328333Y-138188271D02*
X256471190Y-138188271D01*
X256471190Y-138188271D02*
X256566428Y-138235890D01*
X256566428Y-138235890D02*
X256614047Y-138283509D01*
X256614047Y-138283509D02*
X256661666Y-138378747D01*
X256661666Y-138378747D02*
X256661666Y-138616842D01*
X256661666Y-138616842D02*
X256614047Y-138712080D01*
X256614047Y-138712080D02*
X256566428Y-138759700D01*
X256566428Y-138759700D02*
X256471190Y-138807319D01*
X256471190Y-138807319D02*
X256185476Y-138807319D01*
X256185476Y-138807319D02*
X256090238Y-138759700D01*
X256090238Y-138759700D02*
X256042619Y-138712080D01*
X207945538Y-39601510D02*
X208088395Y-39649129D01*
X208088395Y-39649129D02*
X208326490Y-39649129D01*
X208326490Y-39649129D02*
X208421728Y-39601510D01*
X208421728Y-39601510D02*
X208469347Y-39553890D01*
X208469347Y-39553890D02*
X208516966Y-39458652D01*
X208516966Y-39458652D02*
X208516966Y-39363414D01*
X208516966Y-39363414D02*
X208469347Y-39268176D01*
X208469347Y-39268176D02*
X208421728Y-39220557D01*
X208421728Y-39220557D02*
X208326490Y-39172938D01*
X208326490Y-39172938D02*
X208136014Y-39125319D01*
X208136014Y-39125319D02*
X208040776Y-39077700D01*
X208040776Y-39077700D02*
X207993157Y-39030081D01*
X207993157Y-39030081D02*
X207945538Y-38934843D01*
X207945538Y-38934843D02*
X207945538Y-38839605D01*
X207945538Y-38839605D02*
X207993157Y-38744367D01*
X207993157Y-38744367D02*
X208040776Y-38696748D01*
X208040776Y-38696748D02*
X208136014Y-38649129D01*
X208136014Y-38649129D02*
X208374109Y-38649129D01*
X208374109Y-38649129D02*
X208516966Y-38696748D01*
X208850300Y-38649129D02*
X209088395Y-39649129D01*
X209088395Y-39649129D02*
X209278871Y-38934843D01*
X209278871Y-38934843D02*
X209469347Y-39649129D01*
X209469347Y-39649129D02*
X209707443Y-38649129D01*
X210040776Y-38744367D02*
X210088395Y-38696748D01*
X210088395Y-38696748D02*
X210183633Y-38649129D01*
X210183633Y-38649129D02*
X210421728Y-38649129D01*
X210421728Y-38649129D02*
X210516966Y-38696748D01*
X210516966Y-38696748D02*
X210564585Y-38744367D01*
X210564585Y-38744367D02*
X210612204Y-38839605D01*
X210612204Y-38839605D02*
X210612204Y-38934843D01*
X210612204Y-38934843D02*
X210564585Y-39077700D01*
X210564585Y-39077700D02*
X209993157Y-39649129D01*
X209993157Y-39649129D02*
X210612204Y-39649129D01*
X211231252Y-38649129D02*
X211326490Y-38649129D01*
X211326490Y-38649129D02*
X211421728Y-38696748D01*
X211421728Y-38696748D02*
X211469347Y-38744367D01*
X211469347Y-38744367D02*
X211516966Y-38839605D01*
X211516966Y-38839605D02*
X211564585Y-39030081D01*
X211564585Y-39030081D02*
X211564585Y-39268176D01*
X211564585Y-39268176D02*
X211516966Y-39458652D01*
X211516966Y-39458652D02*
X211469347Y-39553890D01*
X211469347Y-39553890D02*
X211421728Y-39601510D01*
X211421728Y-39601510D02*
X211326490Y-39649129D01*
X211326490Y-39649129D02*
X211231252Y-39649129D01*
X211231252Y-39649129D02*
X211136014Y-39601510D01*
X211136014Y-39601510D02*
X211088395Y-39553890D01*
X211088395Y-39553890D02*
X211040776Y-39458652D01*
X211040776Y-39458652D02*
X210993157Y-39268176D01*
X210993157Y-39268176D02*
X210993157Y-39030081D01*
X210993157Y-39030081D02*
X211040776Y-38839605D01*
X211040776Y-38839605D02*
X211088395Y-38744367D01*
X211088395Y-38744367D02*
X211136014Y-38696748D01*
X211136014Y-38696748D02*
X211231252Y-38649129D01*
X221161666Y-137807319D02*
X221161666Y-138521604D01*
X221161666Y-138521604D02*
X221114047Y-138664461D01*
X221114047Y-138664461D02*
X221018809Y-138759700D01*
X221018809Y-138759700D02*
X220875952Y-138807319D01*
X220875952Y-138807319D02*
X220780714Y-138807319D01*
X222066428Y-137807319D02*
X221875952Y-137807319D01*
X221875952Y-137807319D02*
X221780714Y-137854938D01*
X221780714Y-137854938D02*
X221733095Y-137902557D01*
X221733095Y-137902557D02*
X221637857Y-138045414D01*
X221637857Y-138045414D02*
X221590238Y-138235890D01*
X221590238Y-138235890D02*
X221590238Y-138616842D01*
X221590238Y-138616842D02*
X221637857Y-138712080D01*
X221637857Y-138712080D02*
X221685476Y-138759700D01*
X221685476Y-138759700D02*
X221780714Y-138807319D01*
X221780714Y-138807319D02*
X221971190Y-138807319D01*
X221971190Y-138807319D02*
X222066428Y-138759700D01*
X222066428Y-138759700D02*
X222114047Y-138712080D01*
X222114047Y-138712080D02*
X222161666Y-138616842D01*
X222161666Y-138616842D02*
X222161666Y-138378747D01*
X222161666Y-138378747D02*
X222114047Y-138283509D01*
X222114047Y-138283509D02*
X222066428Y-138235890D01*
X222066428Y-138235890D02*
X221971190Y-138188271D01*
X221971190Y-138188271D02*
X221780714Y-138188271D01*
X221780714Y-138188271D02*
X221685476Y-138235890D01*
X221685476Y-138235890D02*
X221637857Y-138283509D01*
X221637857Y-138283509D02*
X221590238Y-138378747D01*
X117275476Y-36774819D02*
X117275476Y-37489104D01*
X117275476Y-37489104D02*
X117227857Y-37631961D01*
X117227857Y-37631961D02*
X117132619Y-37727200D01*
X117132619Y-37727200D02*
X116989762Y-37774819D01*
X116989762Y-37774819D02*
X116894524Y-37774819D01*
X117704048Y-36870057D02*
X117751667Y-36822438D01*
X117751667Y-36822438D02*
X117846905Y-36774819D01*
X117846905Y-36774819D02*
X118085000Y-36774819D01*
X118085000Y-36774819D02*
X118180238Y-36822438D01*
X118180238Y-36822438D02*
X118227857Y-36870057D01*
X118227857Y-36870057D02*
X118275476Y-36965295D01*
X118275476Y-36965295D02*
X118275476Y-37060533D01*
X118275476Y-37060533D02*
X118227857Y-37203390D01*
X118227857Y-37203390D02*
X117656429Y-37774819D01*
X117656429Y-37774819D02*
X118275476Y-37774819D01*
X118751667Y-37774819D02*
X118942143Y-37774819D01*
X118942143Y-37774819D02*
X119037381Y-37727200D01*
X119037381Y-37727200D02*
X119085000Y-37679580D01*
X119085000Y-37679580D02*
X119180238Y-37536723D01*
X119180238Y-37536723D02*
X119227857Y-37346247D01*
X119227857Y-37346247D02*
X119227857Y-36965295D01*
X119227857Y-36965295D02*
X119180238Y-36870057D01*
X119180238Y-36870057D02*
X119132619Y-36822438D01*
X119132619Y-36822438D02*
X119037381Y-36774819D01*
X119037381Y-36774819D02*
X118846905Y-36774819D01*
X118846905Y-36774819D02*
X118751667Y-36822438D01*
X118751667Y-36822438D02*
X118704048Y-36870057D01*
X118704048Y-36870057D02*
X118656429Y-36965295D01*
X118656429Y-36965295D02*
X118656429Y-37203390D01*
X118656429Y-37203390D02*
X118704048Y-37298628D01*
X118704048Y-37298628D02*
X118751667Y-37346247D01*
X118751667Y-37346247D02*
X118846905Y-37393866D01*
X118846905Y-37393866D02*
X119037381Y-37393866D01*
X119037381Y-37393866D02*
X119132619Y-37346247D01*
X119132619Y-37346247D02*
X119180238Y-37298628D01*
X119180238Y-37298628D02*
X119227857Y-37203390D01*
X140275476Y-36774819D02*
X140275476Y-37489104D01*
X140275476Y-37489104D02*
X140227857Y-37631961D01*
X140227857Y-37631961D02*
X140132619Y-37727200D01*
X140132619Y-37727200D02*
X139989762Y-37774819D01*
X139989762Y-37774819D02*
X139894524Y-37774819D01*
X140704048Y-36870057D02*
X140751667Y-36822438D01*
X140751667Y-36822438D02*
X140846905Y-36774819D01*
X140846905Y-36774819D02*
X141085000Y-36774819D01*
X141085000Y-36774819D02*
X141180238Y-36822438D01*
X141180238Y-36822438D02*
X141227857Y-36870057D01*
X141227857Y-36870057D02*
X141275476Y-36965295D01*
X141275476Y-36965295D02*
X141275476Y-37060533D01*
X141275476Y-37060533D02*
X141227857Y-37203390D01*
X141227857Y-37203390D02*
X140656429Y-37774819D01*
X140656429Y-37774819D02*
X141275476Y-37774819D01*
X141608810Y-36774819D02*
X142275476Y-36774819D01*
X142275476Y-36774819D02*
X141846905Y-37774819D01*
X224265833Y-132504819D02*
X223932500Y-132028628D01*
X223694405Y-132504819D02*
X223694405Y-131504819D01*
X223694405Y-131504819D02*
X224075357Y-131504819D01*
X224075357Y-131504819D02*
X224170595Y-131552438D01*
X224170595Y-131552438D02*
X224218214Y-131600057D01*
X224218214Y-131600057D02*
X224265833Y-131695295D01*
X224265833Y-131695295D02*
X224265833Y-131838152D01*
X224265833Y-131838152D02*
X224218214Y-131933390D01*
X224218214Y-131933390D02*
X224170595Y-131981009D01*
X224170595Y-131981009D02*
X224075357Y-132028628D01*
X224075357Y-132028628D02*
X223694405Y-132028628D01*
X225170595Y-131504819D02*
X224694405Y-131504819D01*
X224694405Y-131504819D02*
X224646786Y-131981009D01*
X224646786Y-131981009D02*
X224694405Y-131933390D01*
X224694405Y-131933390D02*
X224789643Y-131885771D01*
X224789643Y-131885771D02*
X225027738Y-131885771D01*
X225027738Y-131885771D02*
X225122976Y-131933390D01*
X225122976Y-131933390D02*
X225170595Y-131981009D01*
X225170595Y-131981009D02*
X225218214Y-132076247D01*
X225218214Y-132076247D02*
X225218214Y-132314342D01*
X225218214Y-132314342D02*
X225170595Y-132409580D01*
X225170595Y-132409580D02*
X225122976Y-132457200D01*
X225122976Y-132457200D02*
X225027738Y-132504819D01*
X225027738Y-132504819D02*
X224789643Y-132504819D01*
X224789643Y-132504819D02*
X224694405Y-132457200D01*
X224694405Y-132457200D02*
X224646786Y-132409580D01*
X159357142Y-42741043D02*
X159023809Y-42264852D01*
X158785714Y-42741043D02*
X158785714Y-41741043D01*
X158785714Y-41741043D02*
X159166666Y-41741043D01*
X159166666Y-41741043D02*
X159261904Y-41788662D01*
X159261904Y-41788662D02*
X159309523Y-41836281D01*
X159309523Y-41836281D02*
X159357142Y-41931519D01*
X159357142Y-41931519D02*
X159357142Y-42074376D01*
X159357142Y-42074376D02*
X159309523Y-42169614D01*
X159309523Y-42169614D02*
X159261904Y-42217233D01*
X159261904Y-42217233D02*
X159166666Y-42264852D01*
X159166666Y-42264852D02*
X158785714Y-42264852D01*
X159738095Y-41836281D02*
X159785714Y-41788662D01*
X159785714Y-41788662D02*
X159880952Y-41741043D01*
X159880952Y-41741043D02*
X160119047Y-41741043D01*
X160119047Y-41741043D02*
X160214285Y-41788662D01*
X160214285Y-41788662D02*
X160261904Y-41836281D01*
X160261904Y-41836281D02*
X160309523Y-41931519D01*
X160309523Y-41931519D02*
X160309523Y-42026757D01*
X160309523Y-42026757D02*
X160261904Y-42169614D01*
X160261904Y-42169614D02*
X159690476Y-42741043D01*
X159690476Y-42741043D02*
X160309523Y-42741043D01*
X161166666Y-42074376D02*
X161166666Y-42741043D01*
X160928571Y-41693424D02*
X160690476Y-42407709D01*
X160690476Y-42407709D02*
X161309523Y-42407709D01*
X176292800Y-129516667D02*
X176245180Y-129659524D01*
X176245180Y-129659524D02*
X176245180Y-129897619D01*
X176245180Y-129897619D02*
X176292800Y-129992857D01*
X176292800Y-129992857D02*
X176340419Y-130040476D01*
X176340419Y-130040476D02*
X176435657Y-130088095D01*
X176435657Y-130088095D02*
X176530895Y-130088095D01*
X176530895Y-130088095D02*
X176626133Y-130040476D01*
X176626133Y-130040476D02*
X176673752Y-129992857D01*
X176673752Y-129992857D02*
X176721371Y-129897619D01*
X176721371Y-129897619D02*
X176768990Y-129707143D01*
X176768990Y-129707143D02*
X176816609Y-129611905D01*
X176816609Y-129611905D02*
X176864228Y-129564286D01*
X176864228Y-129564286D02*
X176959466Y-129516667D01*
X176959466Y-129516667D02*
X177054704Y-129516667D01*
X177054704Y-129516667D02*
X177149942Y-129564286D01*
X177149942Y-129564286D02*
X177197561Y-129611905D01*
X177197561Y-129611905D02*
X177245180Y-129707143D01*
X177245180Y-129707143D02*
X177245180Y-129945238D01*
X177245180Y-129945238D02*
X177197561Y-130088095D01*
X177245180Y-130421429D02*
X176245180Y-130659524D01*
X176245180Y-130659524D02*
X176959466Y-130850000D01*
X176959466Y-130850000D02*
X176245180Y-131040476D01*
X176245180Y-131040476D02*
X177245180Y-131278572D01*
X176245180Y-131707143D02*
X176245180Y-131897619D01*
X176245180Y-131897619D02*
X176292800Y-131992857D01*
X176292800Y-131992857D02*
X176340419Y-132040476D01*
X176340419Y-132040476D02*
X176483276Y-132135714D01*
X176483276Y-132135714D02*
X176673752Y-132183333D01*
X176673752Y-132183333D02*
X177054704Y-132183333D01*
X177054704Y-132183333D02*
X177149942Y-132135714D01*
X177149942Y-132135714D02*
X177197561Y-132088095D01*
X177197561Y-132088095D02*
X177245180Y-131992857D01*
X177245180Y-131992857D02*
X177245180Y-131802381D01*
X177245180Y-131802381D02*
X177197561Y-131707143D01*
X177197561Y-131707143D02*
X177149942Y-131659524D01*
X177149942Y-131659524D02*
X177054704Y-131611905D01*
X177054704Y-131611905D02*
X176816609Y-131611905D01*
X176816609Y-131611905D02*
X176721371Y-131659524D01*
X176721371Y-131659524D02*
X176673752Y-131707143D01*
X176673752Y-131707143D02*
X176626133Y-131802381D01*
X176626133Y-131802381D02*
X176626133Y-131992857D01*
X176626133Y-131992857D02*
X176673752Y-132088095D01*
X176673752Y-132088095D02*
X176721371Y-132135714D01*
X176721371Y-132135714D02*
X176816609Y-132183333D01*
X120857142Y-132454819D02*
X120523809Y-131978628D01*
X120285714Y-132454819D02*
X120285714Y-131454819D01*
X120285714Y-131454819D02*
X120666666Y-131454819D01*
X120666666Y-131454819D02*
X120761904Y-131502438D01*
X120761904Y-131502438D02*
X120809523Y-131550057D01*
X120809523Y-131550057D02*
X120857142Y-131645295D01*
X120857142Y-131645295D02*
X120857142Y-131788152D01*
X120857142Y-131788152D02*
X120809523Y-131883390D01*
X120809523Y-131883390D02*
X120761904Y-131931009D01*
X120761904Y-131931009D02*
X120666666Y-131978628D01*
X120666666Y-131978628D02*
X120285714Y-131978628D01*
X121809523Y-132454819D02*
X121238095Y-132454819D01*
X121523809Y-132454819D02*
X121523809Y-131454819D01*
X121523809Y-131454819D02*
X121428571Y-131597676D01*
X121428571Y-131597676D02*
X121333333Y-131692914D01*
X121333333Y-131692914D02*
X121238095Y-131740533D01*
X122666666Y-131788152D02*
X122666666Y-132454819D01*
X122428571Y-131407200D02*
X122190476Y-132121485D01*
X122190476Y-132121485D02*
X122809523Y-132121485D01*
X251357142Y-42901543D02*
X251023809Y-42425352D01*
X250785714Y-42901543D02*
X250785714Y-41901543D01*
X250785714Y-41901543D02*
X251166666Y-41901543D01*
X251166666Y-41901543D02*
X251261904Y-41949162D01*
X251261904Y-41949162D02*
X251309523Y-41996781D01*
X251309523Y-41996781D02*
X251357142Y-42092019D01*
X251357142Y-42092019D02*
X251357142Y-42234876D01*
X251357142Y-42234876D02*
X251309523Y-42330114D01*
X251309523Y-42330114D02*
X251261904Y-42377733D01*
X251261904Y-42377733D02*
X251166666Y-42425352D01*
X251166666Y-42425352D02*
X250785714Y-42425352D01*
X252309523Y-42901543D02*
X251738095Y-42901543D01*
X252023809Y-42901543D02*
X252023809Y-41901543D01*
X252023809Y-41901543D02*
X251928571Y-42044400D01*
X251928571Y-42044400D02*
X251833333Y-42139638D01*
X251833333Y-42139638D02*
X251738095Y-42187257D01*
X253166666Y-41901543D02*
X252976190Y-41901543D01*
X252976190Y-41901543D02*
X252880952Y-41949162D01*
X252880952Y-41949162D02*
X252833333Y-41996781D01*
X252833333Y-41996781D02*
X252738095Y-42139638D01*
X252738095Y-42139638D02*
X252690476Y-42330114D01*
X252690476Y-42330114D02*
X252690476Y-42711066D01*
X252690476Y-42711066D02*
X252738095Y-42806304D01*
X252738095Y-42806304D02*
X252785714Y-42853924D01*
X252785714Y-42853924D02*
X252880952Y-42901543D01*
X252880952Y-42901543D02*
X253071428Y-42901543D01*
X253071428Y-42901543D02*
X253166666Y-42853924D01*
X253166666Y-42853924D02*
X253214285Y-42806304D01*
X253214285Y-42806304D02*
X253261904Y-42711066D01*
X253261904Y-42711066D02*
X253261904Y-42472971D01*
X253261904Y-42472971D02*
X253214285Y-42377733D01*
X253214285Y-42377733D02*
X253166666Y-42330114D01*
X253166666Y-42330114D02*
X253071428Y-42282495D01*
X253071428Y-42282495D02*
X252880952Y-42282495D01*
X252880952Y-42282495D02*
X252785714Y-42330114D01*
X252785714Y-42330114D02*
X252738095Y-42377733D01*
X252738095Y-42377733D02*
X252690476Y-42472971D01*
X147857142Y-42741043D02*
X147523809Y-42264852D01*
X147285714Y-42741043D02*
X147285714Y-41741043D01*
X147285714Y-41741043D02*
X147666666Y-41741043D01*
X147666666Y-41741043D02*
X147761904Y-41788662D01*
X147761904Y-41788662D02*
X147809523Y-41836281D01*
X147809523Y-41836281D02*
X147857142Y-41931519D01*
X147857142Y-41931519D02*
X147857142Y-42074376D01*
X147857142Y-42074376D02*
X147809523Y-42169614D01*
X147809523Y-42169614D02*
X147761904Y-42217233D01*
X147761904Y-42217233D02*
X147666666Y-42264852D01*
X147666666Y-42264852D02*
X147285714Y-42264852D01*
X148238095Y-41836281D02*
X148285714Y-41788662D01*
X148285714Y-41788662D02*
X148380952Y-41741043D01*
X148380952Y-41741043D02*
X148619047Y-41741043D01*
X148619047Y-41741043D02*
X148714285Y-41788662D01*
X148714285Y-41788662D02*
X148761904Y-41836281D01*
X148761904Y-41836281D02*
X148809523Y-41931519D01*
X148809523Y-41931519D02*
X148809523Y-42026757D01*
X148809523Y-42026757D02*
X148761904Y-42169614D01*
X148761904Y-42169614D02*
X148190476Y-42741043D01*
X148190476Y-42741043D02*
X148809523Y-42741043D01*
X149714285Y-41741043D02*
X149238095Y-41741043D01*
X149238095Y-41741043D02*
X149190476Y-42217233D01*
X149190476Y-42217233D02*
X149238095Y-42169614D01*
X149238095Y-42169614D02*
X149333333Y-42121995D01*
X149333333Y-42121995D02*
X149571428Y-42121995D01*
X149571428Y-42121995D02*
X149666666Y-42169614D01*
X149666666Y-42169614D02*
X149714285Y-42217233D01*
X149714285Y-42217233D02*
X149761904Y-42312471D01*
X149761904Y-42312471D02*
X149761904Y-42550566D01*
X149761904Y-42550566D02*
X149714285Y-42645804D01*
X149714285Y-42645804D02*
X149666666Y-42693424D01*
X149666666Y-42693424D02*
X149571428Y-42741043D01*
X149571428Y-42741043D02*
X149333333Y-42741043D01*
X149333333Y-42741043D02*
X149238095Y-42693424D01*
X149238095Y-42693424D02*
X149190476Y-42645804D01*
X130292800Y-129040476D02*
X130245180Y-129183333D01*
X130245180Y-129183333D02*
X130245180Y-129421428D01*
X130245180Y-129421428D02*
X130292800Y-129516666D01*
X130292800Y-129516666D02*
X130340419Y-129564285D01*
X130340419Y-129564285D02*
X130435657Y-129611904D01*
X130435657Y-129611904D02*
X130530895Y-129611904D01*
X130530895Y-129611904D02*
X130626133Y-129564285D01*
X130626133Y-129564285D02*
X130673752Y-129516666D01*
X130673752Y-129516666D02*
X130721371Y-129421428D01*
X130721371Y-129421428D02*
X130768990Y-129230952D01*
X130768990Y-129230952D02*
X130816609Y-129135714D01*
X130816609Y-129135714D02*
X130864228Y-129088095D01*
X130864228Y-129088095D02*
X130959466Y-129040476D01*
X130959466Y-129040476D02*
X131054704Y-129040476D01*
X131054704Y-129040476D02*
X131149942Y-129088095D01*
X131149942Y-129088095D02*
X131197561Y-129135714D01*
X131197561Y-129135714D02*
X131245180Y-129230952D01*
X131245180Y-129230952D02*
X131245180Y-129469047D01*
X131245180Y-129469047D02*
X131197561Y-129611904D01*
X131245180Y-129945238D02*
X130245180Y-130183333D01*
X130245180Y-130183333D02*
X130959466Y-130373809D01*
X130959466Y-130373809D02*
X130245180Y-130564285D01*
X130245180Y-130564285D02*
X131245180Y-130802381D01*
X130245180Y-131707142D02*
X130245180Y-131135714D01*
X130245180Y-131421428D02*
X131245180Y-131421428D01*
X131245180Y-131421428D02*
X131102323Y-131326190D01*
X131102323Y-131326190D02*
X131007085Y-131230952D01*
X131007085Y-131230952D02*
X130959466Y-131135714D01*
X131245180Y-132040476D02*
X131245180Y-132659523D01*
X131245180Y-132659523D02*
X130864228Y-132326190D01*
X130864228Y-132326190D02*
X130864228Y-132469047D01*
X130864228Y-132469047D02*
X130816609Y-132564285D01*
X130816609Y-132564285D02*
X130768990Y-132611904D01*
X130768990Y-132611904D02*
X130673752Y-132659523D01*
X130673752Y-132659523D02*
X130435657Y-132659523D01*
X130435657Y-132659523D02*
X130340419Y-132611904D01*
X130340419Y-132611904D02*
X130292800Y-132564285D01*
X130292800Y-132564285D02*
X130245180Y-132469047D01*
X130245180Y-132469047D02*
X130245180Y-132183333D01*
X130245180Y-132183333D02*
X130292800Y-132088095D01*
X130292800Y-132088095D02*
X130340419Y-132040476D01*
X219449174Y-39713265D02*
X219592031Y-39760884D01*
X219592031Y-39760884D02*
X219830126Y-39760884D01*
X219830126Y-39760884D02*
X219925364Y-39713265D01*
X219925364Y-39713265D02*
X219972983Y-39665645D01*
X219972983Y-39665645D02*
X220020602Y-39570407D01*
X220020602Y-39570407D02*
X220020602Y-39475169D01*
X220020602Y-39475169D02*
X219972983Y-39379931D01*
X219972983Y-39379931D02*
X219925364Y-39332312D01*
X219925364Y-39332312D02*
X219830126Y-39284693D01*
X219830126Y-39284693D02*
X219639650Y-39237074D01*
X219639650Y-39237074D02*
X219544412Y-39189455D01*
X219544412Y-39189455D02*
X219496793Y-39141836D01*
X219496793Y-39141836D02*
X219449174Y-39046598D01*
X219449174Y-39046598D02*
X219449174Y-38951360D01*
X219449174Y-38951360D02*
X219496793Y-38856122D01*
X219496793Y-38856122D02*
X219544412Y-38808503D01*
X219544412Y-38808503D02*
X219639650Y-38760884D01*
X219639650Y-38760884D02*
X219877745Y-38760884D01*
X219877745Y-38760884D02*
X220020602Y-38808503D01*
X220353936Y-38760884D02*
X220592031Y-39760884D01*
X220592031Y-39760884D02*
X220782507Y-39046598D01*
X220782507Y-39046598D02*
X220972983Y-39760884D01*
X220972983Y-39760884D02*
X221211079Y-38760884D01*
X222115840Y-39760884D02*
X221544412Y-39760884D01*
X221830126Y-39760884D02*
X221830126Y-38760884D01*
X221830126Y-38760884D02*
X221734888Y-38903741D01*
X221734888Y-38903741D02*
X221639650Y-38998979D01*
X221639650Y-38998979D02*
X221544412Y-39046598D01*
X222592031Y-39760884D02*
X222782507Y-39760884D01*
X222782507Y-39760884D02*
X222877745Y-39713265D01*
X222877745Y-39713265D02*
X222925364Y-39665645D01*
X222925364Y-39665645D02*
X223020602Y-39522788D01*
X223020602Y-39522788D02*
X223068221Y-39332312D01*
X223068221Y-39332312D02*
X223068221Y-38951360D01*
X223068221Y-38951360D02*
X223020602Y-38856122D01*
X223020602Y-38856122D02*
X222972983Y-38808503D01*
X222972983Y-38808503D02*
X222877745Y-38760884D01*
X222877745Y-38760884D02*
X222687269Y-38760884D01*
X222687269Y-38760884D02*
X222592031Y-38808503D01*
X222592031Y-38808503D02*
X222544412Y-38856122D01*
X222544412Y-38856122D02*
X222496793Y-38951360D01*
X222496793Y-38951360D02*
X222496793Y-39189455D01*
X222496793Y-39189455D02*
X222544412Y-39284693D01*
X222544412Y-39284693D02*
X222592031Y-39332312D01*
X222592031Y-39332312D02*
X222687269Y-39379931D01*
X222687269Y-39379931D02*
X222877745Y-39379931D01*
X222877745Y-39379931D02*
X222972983Y-39332312D01*
X222972983Y-39332312D02*
X223020602Y-39284693D01*
X223020602Y-39284693D02*
X223068221Y-39189455D01*
X132357142Y-132454819D02*
X132023809Y-131978628D01*
X131785714Y-132454819D02*
X131785714Y-131454819D01*
X131785714Y-131454819D02*
X132166666Y-131454819D01*
X132166666Y-131454819D02*
X132261904Y-131502438D01*
X132261904Y-131502438D02*
X132309523Y-131550057D01*
X132309523Y-131550057D02*
X132357142Y-131645295D01*
X132357142Y-131645295D02*
X132357142Y-131788152D01*
X132357142Y-131788152D02*
X132309523Y-131883390D01*
X132309523Y-131883390D02*
X132261904Y-131931009D01*
X132261904Y-131931009D02*
X132166666Y-131978628D01*
X132166666Y-131978628D02*
X131785714Y-131978628D01*
X133309523Y-132454819D02*
X132738095Y-132454819D01*
X133023809Y-132454819D02*
X133023809Y-131454819D01*
X133023809Y-131454819D02*
X132928571Y-131597676D01*
X132928571Y-131597676D02*
X132833333Y-131692914D01*
X132833333Y-131692914D02*
X132738095Y-131740533D01*
X133642857Y-131454819D02*
X134261904Y-131454819D01*
X134261904Y-131454819D02*
X133928571Y-131835771D01*
X133928571Y-131835771D02*
X134071428Y-131835771D01*
X134071428Y-131835771D02*
X134166666Y-131883390D01*
X134166666Y-131883390D02*
X134214285Y-131931009D01*
X134214285Y-131931009D02*
X134261904Y-132026247D01*
X134261904Y-132026247D02*
X134261904Y-132264342D01*
X134261904Y-132264342D02*
X134214285Y-132359580D01*
X134214285Y-132359580D02*
X134166666Y-132407200D01*
X134166666Y-132407200D02*
X134071428Y-132454819D01*
X134071428Y-132454819D02*
X133785714Y-132454819D01*
X133785714Y-132454819D02*
X133690476Y-132407200D01*
X133690476Y-132407200D02*
X133642857Y-132359580D01*
X201240833Y-132504819D02*
X200907500Y-132028628D01*
X200669405Y-132504819D02*
X200669405Y-131504819D01*
X200669405Y-131504819D02*
X201050357Y-131504819D01*
X201050357Y-131504819D02*
X201145595Y-131552438D01*
X201145595Y-131552438D02*
X201193214Y-131600057D01*
X201193214Y-131600057D02*
X201240833Y-131695295D01*
X201240833Y-131695295D02*
X201240833Y-131838152D01*
X201240833Y-131838152D02*
X201193214Y-131933390D01*
X201193214Y-131933390D02*
X201145595Y-131981009D01*
X201145595Y-131981009D02*
X201050357Y-132028628D01*
X201050357Y-132028628D02*
X200669405Y-132028628D01*
X201574167Y-131504819D02*
X202240833Y-131504819D01*
X202240833Y-131504819D02*
X201812262Y-132504819D01*
X187792800Y-129516667D02*
X187745180Y-129659524D01*
X187745180Y-129659524D02*
X187745180Y-129897619D01*
X187745180Y-129897619D02*
X187792800Y-129992857D01*
X187792800Y-129992857D02*
X187840419Y-130040476D01*
X187840419Y-130040476D02*
X187935657Y-130088095D01*
X187935657Y-130088095D02*
X188030895Y-130088095D01*
X188030895Y-130088095D02*
X188126133Y-130040476D01*
X188126133Y-130040476D02*
X188173752Y-129992857D01*
X188173752Y-129992857D02*
X188221371Y-129897619D01*
X188221371Y-129897619D02*
X188268990Y-129707143D01*
X188268990Y-129707143D02*
X188316609Y-129611905D01*
X188316609Y-129611905D02*
X188364228Y-129564286D01*
X188364228Y-129564286D02*
X188459466Y-129516667D01*
X188459466Y-129516667D02*
X188554704Y-129516667D01*
X188554704Y-129516667D02*
X188649942Y-129564286D01*
X188649942Y-129564286D02*
X188697561Y-129611905D01*
X188697561Y-129611905D02*
X188745180Y-129707143D01*
X188745180Y-129707143D02*
X188745180Y-129945238D01*
X188745180Y-129945238D02*
X188697561Y-130088095D01*
X188745180Y-130421429D02*
X187745180Y-130659524D01*
X187745180Y-130659524D02*
X188459466Y-130850000D01*
X188459466Y-130850000D02*
X187745180Y-131040476D01*
X187745180Y-131040476D02*
X188745180Y-131278572D01*
X188316609Y-131802381D02*
X188364228Y-131707143D01*
X188364228Y-131707143D02*
X188411847Y-131659524D01*
X188411847Y-131659524D02*
X188507085Y-131611905D01*
X188507085Y-131611905D02*
X188554704Y-131611905D01*
X188554704Y-131611905D02*
X188649942Y-131659524D01*
X188649942Y-131659524D02*
X188697561Y-131707143D01*
X188697561Y-131707143D02*
X188745180Y-131802381D01*
X188745180Y-131802381D02*
X188745180Y-131992857D01*
X188745180Y-131992857D02*
X188697561Y-132088095D01*
X188697561Y-132088095D02*
X188649942Y-132135714D01*
X188649942Y-132135714D02*
X188554704Y-132183333D01*
X188554704Y-132183333D02*
X188507085Y-132183333D01*
X188507085Y-132183333D02*
X188411847Y-132135714D01*
X188411847Y-132135714D02*
X188364228Y-132088095D01*
X188364228Y-132088095D02*
X188316609Y-131992857D01*
X188316609Y-131992857D02*
X188316609Y-131802381D01*
X188316609Y-131802381D02*
X188268990Y-131707143D01*
X188268990Y-131707143D02*
X188221371Y-131659524D01*
X188221371Y-131659524D02*
X188126133Y-131611905D01*
X188126133Y-131611905D02*
X187935657Y-131611905D01*
X187935657Y-131611905D02*
X187840419Y-131659524D01*
X187840419Y-131659524D02*
X187792800Y-131707143D01*
X187792800Y-131707143D02*
X187745180Y-131802381D01*
X187745180Y-131802381D02*
X187745180Y-131992857D01*
X187745180Y-131992857D02*
X187792800Y-132088095D01*
X187792800Y-132088095D02*
X187840419Y-132135714D01*
X187840419Y-132135714D02*
X187935657Y-132183333D01*
X187935657Y-132183333D02*
X188126133Y-132183333D01*
X188126133Y-132183333D02*
X188221371Y-132135714D01*
X188221371Y-132135714D02*
X188268990Y-132088095D01*
X188268990Y-132088095D02*
X188316609Y-131992857D01*
X182357142Y-42769499D02*
X182023809Y-42293308D01*
X181785714Y-42769499D02*
X181785714Y-41769499D01*
X181785714Y-41769499D02*
X182166666Y-41769499D01*
X182166666Y-41769499D02*
X182261904Y-41817118D01*
X182261904Y-41817118D02*
X182309523Y-41864737D01*
X182309523Y-41864737D02*
X182357142Y-41959975D01*
X182357142Y-41959975D02*
X182357142Y-42102832D01*
X182357142Y-42102832D02*
X182309523Y-42198070D01*
X182309523Y-42198070D02*
X182261904Y-42245689D01*
X182261904Y-42245689D02*
X182166666Y-42293308D01*
X182166666Y-42293308D02*
X181785714Y-42293308D01*
X182738095Y-41864737D02*
X182785714Y-41817118D01*
X182785714Y-41817118D02*
X182880952Y-41769499D01*
X182880952Y-41769499D02*
X183119047Y-41769499D01*
X183119047Y-41769499D02*
X183214285Y-41817118D01*
X183214285Y-41817118D02*
X183261904Y-41864737D01*
X183261904Y-41864737D02*
X183309523Y-41959975D01*
X183309523Y-41959975D02*
X183309523Y-42055213D01*
X183309523Y-42055213D02*
X183261904Y-42198070D01*
X183261904Y-42198070D02*
X182690476Y-42769499D01*
X182690476Y-42769499D02*
X183309523Y-42769499D01*
X183690476Y-41864737D02*
X183738095Y-41817118D01*
X183738095Y-41817118D02*
X183833333Y-41769499D01*
X183833333Y-41769499D02*
X184071428Y-41769499D01*
X184071428Y-41769499D02*
X184166666Y-41817118D01*
X184166666Y-41817118D02*
X184214285Y-41864737D01*
X184214285Y-41864737D02*
X184261904Y-41959975D01*
X184261904Y-41959975D02*
X184261904Y-42055213D01*
X184261904Y-42055213D02*
X184214285Y-42198070D01*
X184214285Y-42198070D02*
X183642857Y-42769499D01*
X183642857Y-42769499D02*
X184261904Y-42769499D01*
X239857142Y-42739170D02*
X239523809Y-42262979D01*
X239285714Y-42739170D02*
X239285714Y-41739170D01*
X239285714Y-41739170D02*
X239666666Y-41739170D01*
X239666666Y-41739170D02*
X239761904Y-41786789D01*
X239761904Y-41786789D02*
X239809523Y-41834408D01*
X239809523Y-41834408D02*
X239857142Y-41929646D01*
X239857142Y-41929646D02*
X239857142Y-42072503D01*
X239857142Y-42072503D02*
X239809523Y-42167741D01*
X239809523Y-42167741D02*
X239761904Y-42215360D01*
X239761904Y-42215360D02*
X239666666Y-42262979D01*
X239666666Y-42262979D02*
X239285714Y-42262979D01*
X240809523Y-42739170D02*
X240238095Y-42739170D01*
X240523809Y-42739170D02*
X240523809Y-41739170D01*
X240523809Y-41739170D02*
X240428571Y-41882027D01*
X240428571Y-41882027D02*
X240333333Y-41977265D01*
X240333333Y-41977265D02*
X240238095Y-42024884D01*
X241142857Y-41739170D02*
X241809523Y-41739170D01*
X241809523Y-41739170D02*
X241380952Y-42739170D01*
X124857142Y-42787406D02*
X124523809Y-42311215D01*
X124285714Y-42787406D02*
X124285714Y-41787406D01*
X124285714Y-41787406D02*
X124666666Y-41787406D01*
X124666666Y-41787406D02*
X124761904Y-41835025D01*
X124761904Y-41835025D02*
X124809523Y-41882644D01*
X124809523Y-41882644D02*
X124857142Y-41977882D01*
X124857142Y-41977882D02*
X124857142Y-42120739D01*
X124857142Y-42120739D02*
X124809523Y-42215977D01*
X124809523Y-42215977D02*
X124761904Y-42263596D01*
X124761904Y-42263596D02*
X124666666Y-42311215D01*
X124666666Y-42311215D02*
X124285714Y-42311215D01*
X125238095Y-41882644D02*
X125285714Y-41835025D01*
X125285714Y-41835025D02*
X125380952Y-41787406D01*
X125380952Y-41787406D02*
X125619047Y-41787406D01*
X125619047Y-41787406D02*
X125714285Y-41835025D01*
X125714285Y-41835025D02*
X125761904Y-41882644D01*
X125761904Y-41882644D02*
X125809523Y-41977882D01*
X125809523Y-41977882D02*
X125809523Y-42073120D01*
X125809523Y-42073120D02*
X125761904Y-42215977D01*
X125761904Y-42215977D02*
X125190476Y-42787406D01*
X125190476Y-42787406D02*
X125809523Y-42787406D01*
X126142857Y-41787406D02*
X126809523Y-41787406D01*
X126809523Y-41787406D02*
X126380952Y-42787406D01*
X151775476Y-36774819D02*
X151775476Y-37489104D01*
X151775476Y-37489104D02*
X151727857Y-37631961D01*
X151727857Y-37631961D02*
X151632619Y-37727200D01*
X151632619Y-37727200D02*
X151489762Y-37774819D01*
X151489762Y-37774819D02*
X151394524Y-37774819D01*
X152204048Y-36870057D02*
X152251667Y-36822438D01*
X152251667Y-36822438D02*
X152346905Y-36774819D01*
X152346905Y-36774819D02*
X152585000Y-36774819D01*
X152585000Y-36774819D02*
X152680238Y-36822438D01*
X152680238Y-36822438D02*
X152727857Y-36870057D01*
X152727857Y-36870057D02*
X152775476Y-36965295D01*
X152775476Y-36965295D02*
X152775476Y-37060533D01*
X152775476Y-37060533D02*
X152727857Y-37203390D01*
X152727857Y-37203390D02*
X152156429Y-37774819D01*
X152156429Y-37774819D02*
X152775476Y-37774819D01*
X153632619Y-36774819D02*
X153442143Y-36774819D01*
X153442143Y-36774819D02*
X153346905Y-36822438D01*
X153346905Y-36822438D02*
X153299286Y-36870057D01*
X153299286Y-36870057D02*
X153204048Y-37012914D01*
X153204048Y-37012914D02*
X153156429Y-37203390D01*
X153156429Y-37203390D02*
X153156429Y-37584342D01*
X153156429Y-37584342D02*
X153204048Y-37679580D01*
X153204048Y-37679580D02*
X153251667Y-37727200D01*
X153251667Y-37727200D02*
X153346905Y-37774819D01*
X153346905Y-37774819D02*
X153537381Y-37774819D01*
X153537381Y-37774819D02*
X153632619Y-37727200D01*
X153632619Y-37727200D02*
X153680238Y-37679580D01*
X153680238Y-37679580D02*
X153727857Y-37584342D01*
X153727857Y-37584342D02*
X153727857Y-37346247D01*
X153727857Y-37346247D02*
X153680238Y-37251009D01*
X153680238Y-37251009D02*
X153632619Y-37203390D01*
X153632619Y-37203390D02*
X153537381Y-37155771D01*
X153537381Y-37155771D02*
X153346905Y-37155771D01*
X153346905Y-37155771D02*
X153251667Y-37203390D01*
X153251667Y-37203390D02*
X153204048Y-37251009D01*
X153204048Y-37251009D02*
X153156429Y-37346247D01*
X127518505Y-39613933D02*
X127661362Y-39661552D01*
X127661362Y-39661552D02*
X127899457Y-39661552D01*
X127899457Y-39661552D02*
X127994695Y-39613933D01*
X127994695Y-39613933D02*
X128042314Y-39566313D01*
X128042314Y-39566313D02*
X128089933Y-39471075D01*
X128089933Y-39471075D02*
X128089933Y-39375837D01*
X128089933Y-39375837D02*
X128042314Y-39280599D01*
X128042314Y-39280599D02*
X127994695Y-39232980D01*
X127994695Y-39232980D02*
X127899457Y-39185361D01*
X127899457Y-39185361D02*
X127708981Y-39137742D01*
X127708981Y-39137742D02*
X127613743Y-39090123D01*
X127613743Y-39090123D02*
X127566124Y-39042504D01*
X127566124Y-39042504D02*
X127518505Y-38947266D01*
X127518505Y-38947266D02*
X127518505Y-38852028D01*
X127518505Y-38852028D02*
X127566124Y-38756790D01*
X127566124Y-38756790D02*
X127613743Y-38709171D01*
X127613743Y-38709171D02*
X127708981Y-38661552D01*
X127708981Y-38661552D02*
X127947076Y-38661552D01*
X127947076Y-38661552D02*
X128089933Y-38709171D01*
X128423267Y-38661552D02*
X128661362Y-39661552D01*
X128661362Y-39661552D02*
X128851838Y-38947266D01*
X128851838Y-38947266D02*
X129042314Y-39661552D01*
X129042314Y-39661552D02*
X129280410Y-38661552D01*
X129613743Y-38756790D02*
X129661362Y-38709171D01*
X129661362Y-38709171D02*
X129756600Y-38661552D01*
X129756600Y-38661552D02*
X129994695Y-38661552D01*
X129994695Y-38661552D02*
X130089933Y-38709171D01*
X130089933Y-38709171D02*
X130137552Y-38756790D01*
X130137552Y-38756790D02*
X130185171Y-38852028D01*
X130185171Y-38852028D02*
X130185171Y-38947266D01*
X130185171Y-38947266D02*
X130137552Y-39090123D01*
X130137552Y-39090123D02*
X129566124Y-39661552D01*
X129566124Y-39661552D02*
X130185171Y-39661552D01*
X130518505Y-38661552D02*
X131185171Y-38661552D01*
X131185171Y-38661552D02*
X130756600Y-39661552D01*
X245292800Y-129516667D02*
X245245180Y-129659524D01*
X245245180Y-129659524D02*
X245245180Y-129897619D01*
X245245180Y-129897619D02*
X245292800Y-129992857D01*
X245292800Y-129992857D02*
X245340419Y-130040476D01*
X245340419Y-130040476D02*
X245435657Y-130088095D01*
X245435657Y-130088095D02*
X245530895Y-130088095D01*
X245530895Y-130088095D02*
X245626133Y-130040476D01*
X245626133Y-130040476D02*
X245673752Y-129992857D01*
X245673752Y-129992857D02*
X245721371Y-129897619D01*
X245721371Y-129897619D02*
X245768990Y-129707143D01*
X245768990Y-129707143D02*
X245816609Y-129611905D01*
X245816609Y-129611905D02*
X245864228Y-129564286D01*
X245864228Y-129564286D02*
X245959466Y-129516667D01*
X245959466Y-129516667D02*
X246054704Y-129516667D01*
X246054704Y-129516667D02*
X246149942Y-129564286D01*
X246149942Y-129564286D02*
X246197561Y-129611905D01*
X246197561Y-129611905D02*
X246245180Y-129707143D01*
X246245180Y-129707143D02*
X246245180Y-129945238D01*
X246245180Y-129945238D02*
X246197561Y-130088095D01*
X246245180Y-130421429D02*
X245245180Y-130659524D01*
X245245180Y-130659524D02*
X245959466Y-130850000D01*
X245959466Y-130850000D02*
X245245180Y-131040476D01*
X245245180Y-131040476D02*
X246245180Y-131278572D01*
X246245180Y-131564286D02*
X246245180Y-132183333D01*
X246245180Y-132183333D02*
X245864228Y-131850000D01*
X245864228Y-131850000D02*
X245864228Y-131992857D01*
X245864228Y-131992857D02*
X245816609Y-132088095D01*
X245816609Y-132088095D02*
X245768990Y-132135714D01*
X245768990Y-132135714D02*
X245673752Y-132183333D01*
X245673752Y-132183333D02*
X245435657Y-132183333D01*
X245435657Y-132183333D02*
X245340419Y-132135714D01*
X245340419Y-132135714D02*
X245292800Y-132088095D01*
X245292800Y-132088095D02*
X245245180Y-131992857D01*
X245245180Y-131992857D02*
X245245180Y-131707143D01*
X245245180Y-131707143D02*
X245292800Y-131611905D01*
X245292800Y-131611905D02*
X245340419Y-131564286D01*
X209661666Y-137807319D02*
X209661666Y-138521604D01*
X209661666Y-138521604D02*
X209614047Y-138664461D01*
X209614047Y-138664461D02*
X209518809Y-138759700D01*
X209518809Y-138759700D02*
X209375952Y-138807319D01*
X209375952Y-138807319D02*
X209280714Y-138807319D01*
X210042619Y-137807319D02*
X210709285Y-137807319D01*
X210709285Y-137807319D02*
X210280714Y-138807319D01*
X232661666Y-137807319D02*
X232661666Y-138521604D01*
X232661666Y-138521604D02*
X232614047Y-138664461D01*
X232614047Y-138664461D02*
X232518809Y-138759700D01*
X232518809Y-138759700D02*
X232375952Y-138807319D01*
X232375952Y-138807319D02*
X232280714Y-138807319D01*
X233614047Y-137807319D02*
X233137857Y-137807319D01*
X233137857Y-137807319D02*
X233090238Y-138283509D01*
X233090238Y-138283509D02*
X233137857Y-138235890D01*
X233137857Y-138235890D02*
X233233095Y-138188271D01*
X233233095Y-138188271D02*
X233471190Y-138188271D01*
X233471190Y-138188271D02*
X233566428Y-138235890D01*
X233566428Y-138235890D02*
X233614047Y-138283509D01*
X233614047Y-138283509D02*
X233661666Y-138378747D01*
X233661666Y-138378747D02*
X233661666Y-138616842D01*
X233661666Y-138616842D02*
X233614047Y-138712080D01*
X233614047Y-138712080D02*
X233566428Y-138759700D01*
X233566428Y-138759700D02*
X233471190Y-138807319D01*
X233471190Y-138807319D02*
X233233095Y-138807319D01*
X233233095Y-138807319D02*
X233137857Y-138759700D01*
X233137857Y-138759700D02*
X233090238Y-138712080D01*
X233792800Y-129516667D02*
X233745180Y-129659524D01*
X233745180Y-129659524D02*
X233745180Y-129897619D01*
X233745180Y-129897619D02*
X233792800Y-129992857D01*
X233792800Y-129992857D02*
X233840419Y-130040476D01*
X233840419Y-130040476D02*
X233935657Y-130088095D01*
X233935657Y-130088095D02*
X234030895Y-130088095D01*
X234030895Y-130088095D02*
X234126133Y-130040476D01*
X234126133Y-130040476D02*
X234173752Y-129992857D01*
X234173752Y-129992857D02*
X234221371Y-129897619D01*
X234221371Y-129897619D02*
X234268990Y-129707143D01*
X234268990Y-129707143D02*
X234316609Y-129611905D01*
X234316609Y-129611905D02*
X234364228Y-129564286D01*
X234364228Y-129564286D02*
X234459466Y-129516667D01*
X234459466Y-129516667D02*
X234554704Y-129516667D01*
X234554704Y-129516667D02*
X234649942Y-129564286D01*
X234649942Y-129564286D02*
X234697561Y-129611905D01*
X234697561Y-129611905D02*
X234745180Y-129707143D01*
X234745180Y-129707143D02*
X234745180Y-129945238D01*
X234745180Y-129945238D02*
X234697561Y-130088095D01*
X234745180Y-130421429D02*
X233745180Y-130659524D01*
X233745180Y-130659524D02*
X234459466Y-130850000D01*
X234459466Y-130850000D02*
X233745180Y-131040476D01*
X233745180Y-131040476D02*
X234745180Y-131278572D01*
X234411847Y-132088095D02*
X233745180Y-132088095D01*
X234792800Y-131850000D02*
X234078514Y-131611905D01*
X234078514Y-131611905D02*
X234078514Y-132230952D01*
X155357142Y-132504819D02*
X155023809Y-132028628D01*
X154785714Y-132504819D02*
X154785714Y-131504819D01*
X154785714Y-131504819D02*
X155166666Y-131504819D01*
X155166666Y-131504819D02*
X155261904Y-131552438D01*
X155261904Y-131552438D02*
X155309523Y-131600057D01*
X155309523Y-131600057D02*
X155357142Y-131695295D01*
X155357142Y-131695295D02*
X155357142Y-131838152D01*
X155357142Y-131838152D02*
X155309523Y-131933390D01*
X155309523Y-131933390D02*
X155261904Y-131981009D01*
X155261904Y-131981009D02*
X155166666Y-132028628D01*
X155166666Y-132028628D02*
X154785714Y-132028628D01*
X156309523Y-132504819D02*
X155738095Y-132504819D01*
X156023809Y-132504819D02*
X156023809Y-131504819D01*
X156023809Y-131504819D02*
X155928571Y-131647676D01*
X155928571Y-131647676D02*
X155833333Y-131742914D01*
X155833333Y-131742914D02*
X155738095Y-131790533D01*
X157261904Y-132504819D02*
X156690476Y-132504819D01*
X156976190Y-132504819D02*
X156976190Y-131504819D01*
X156976190Y-131504819D02*
X156880952Y-131647676D01*
X156880952Y-131647676D02*
X156785714Y-131742914D01*
X156785714Y-131742914D02*
X156690476Y-131790533D01*
X258833333Y-132504819D02*
X258500000Y-132028628D01*
X258261905Y-132504819D02*
X258261905Y-131504819D01*
X258261905Y-131504819D02*
X258642857Y-131504819D01*
X258642857Y-131504819D02*
X258738095Y-131552438D01*
X258738095Y-131552438D02*
X258785714Y-131600057D01*
X258785714Y-131600057D02*
X258833333Y-131695295D01*
X258833333Y-131695295D02*
X258833333Y-131838152D01*
X258833333Y-131838152D02*
X258785714Y-131933390D01*
X258785714Y-131933390D02*
X258738095Y-131981009D01*
X258738095Y-131981009D02*
X258642857Y-132028628D01*
X258642857Y-132028628D02*
X258261905Y-132028628D01*
X259214286Y-131600057D02*
X259261905Y-131552438D01*
X259261905Y-131552438D02*
X259357143Y-131504819D01*
X259357143Y-131504819D02*
X259595238Y-131504819D01*
X259595238Y-131504819D02*
X259690476Y-131552438D01*
X259690476Y-131552438D02*
X259738095Y-131600057D01*
X259738095Y-131600057D02*
X259785714Y-131695295D01*
X259785714Y-131695295D02*
X259785714Y-131790533D01*
X259785714Y-131790533D02*
X259738095Y-131933390D01*
X259738095Y-131933390D02*
X259166667Y-132504819D01*
X259166667Y-132504819D02*
X259785714Y-132504819D01*
X151685476Y-137807319D02*
X151685476Y-138521604D01*
X151685476Y-138521604D02*
X151637857Y-138664461D01*
X151637857Y-138664461D02*
X151542619Y-138759700D01*
X151542619Y-138759700D02*
X151399762Y-138807319D01*
X151399762Y-138807319D02*
X151304524Y-138807319D01*
X152685476Y-138807319D02*
X152114048Y-138807319D01*
X152399762Y-138807319D02*
X152399762Y-137807319D01*
X152399762Y-137807319D02*
X152304524Y-137950176D01*
X152304524Y-137950176D02*
X152209286Y-138045414D01*
X152209286Y-138045414D02*
X152114048Y-138093033D01*
X153066429Y-137902557D02*
X153114048Y-137854938D01*
X153114048Y-137854938D02*
X153209286Y-137807319D01*
X153209286Y-137807319D02*
X153447381Y-137807319D01*
X153447381Y-137807319D02*
X153542619Y-137854938D01*
X153542619Y-137854938D02*
X153590238Y-137902557D01*
X153590238Y-137902557D02*
X153637857Y-137997795D01*
X153637857Y-137997795D02*
X153637857Y-138093033D01*
X153637857Y-138093033D02*
X153590238Y-138235890D01*
X153590238Y-138235890D02*
X153018810Y-138807319D01*
X153018810Y-138807319D02*
X153637857Y-138807319D01*
X198161666Y-137807319D02*
X198161666Y-138521604D01*
X198161666Y-138521604D02*
X198114047Y-138664461D01*
X198114047Y-138664461D02*
X198018809Y-138759700D01*
X198018809Y-138759700D02*
X197875952Y-138807319D01*
X197875952Y-138807319D02*
X197780714Y-138807319D01*
X198780714Y-138235890D02*
X198685476Y-138188271D01*
X198685476Y-138188271D02*
X198637857Y-138140652D01*
X198637857Y-138140652D02*
X198590238Y-138045414D01*
X198590238Y-138045414D02*
X198590238Y-137997795D01*
X198590238Y-137997795D02*
X198637857Y-137902557D01*
X198637857Y-137902557D02*
X198685476Y-137854938D01*
X198685476Y-137854938D02*
X198780714Y-137807319D01*
X198780714Y-137807319D02*
X198971190Y-137807319D01*
X198971190Y-137807319D02*
X199066428Y-137854938D01*
X199066428Y-137854938D02*
X199114047Y-137902557D01*
X199114047Y-137902557D02*
X199161666Y-137997795D01*
X199161666Y-137997795D02*
X199161666Y-138045414D01*
X199161666Y-138045414D02*
X199114047Y-138140652D01*
X199114047Y-138140652D02*
X199066428Y-138188271D01*
X199066428Y-138188271D02*
X198971190Y-138235890D01*
X198971190Y-138235890D02*
X198780714Y-138235890D01*
X198780714Y-138235890D02*
X198685476Y-138283509D01*
X198685476Y-138283509D02*
X198637857Y-138331128D01*
X198637857Y-138331128D02*
X198590238Y-138426366D01*
X198590238Y-138426366D02*
X198590238Y-138616842D01*
X198590238Y-138616842D02*
X198637857Y-138712080D01*
X198637857Y-138712080D02*
X198685476Y-138759700D01*
X198685476Y-138759700D02*
X198780714Y-138807319D01*
X198780714Y-138807319D02*
X198971190Y-138807319D01*
X198971190Y-138807319D02*
X199066428Y-138759700D01*
X199066428Y-138759700D02*
X199114047Y-138712080D01*
X199114047Y-138712080D02*
X199161666Y-138616842D01*
X199161666Y-138616842D02*
X199161666Y-138426366D01*
X199161666Y-138426366D02*
X199114047Y-138331128D01*
X199114047Y-138331128D02*
X199066428Y-138283509D01*
X199066428Y-138283509D02*
X198971190Y-138235890D01*
X143857142Y-132504819D02*
X143523809Y-132028628D01*
X143285714Y-132504819D02*
X143285714Y-131504819D01*
X143285714Y-131504819D02*
X143666666Y-131504819D01*
X143666666Y-131504819D02*
X143761904Y-131552438D01*
X143761904Y-131552438D02*
X143809523Y-131600057D01*
X143809523Y-131600057D02*
X143857142Y-131695295D01*
X143857142Y-131695295D02*
X143857142Y-131838152D01*
X143857142Y-131838152D02*
X143809523Y-131933390D01*
X143809523Y-131933390D02*
X143761904Y-131981009D01*
X143761904Y-131981009D02*
X143666666Y-132028628D01*
X143666666Y-132028628D02*
X143285714Y-132028628D01*
X144809523Y-132504819D02*
X144238095Y-132504819D01*
X144523809Y-132504819D02*
X144523809Y-131504819D01*
X144523809Y-131504819D02*
X144428571Y-131647676D01*
X144428571Y-131647676D02*
X144333333Y-131742914D01*
X144333333Y-131742914D02*
X144238095Y-131790533D01*
X145190476Y-131600057D02*
X145238095Y-131552438D01*
X145238095Y-131552438D02*
X145333333Y-131504819D01*
X145333333Y-131504819D02*
X145571428Y-131504819D01*
X145571428Y-131504819D02*
X145666666Y-131552438D01*
X145666666Y-131552438D02*
X145714285Y-131600057D01*
X145714285Y-131600057D02*
X145761904Y-131695295D01*
X145761904Y-131695295D02*
X145761904Y-131790533D01*
X145761904Y-131790533D02*
X145714285Y-131933390D01*
X145714285Y-131933390D02*
X145142857Y-132504819D01*
X145142857Y-132504819D02*
X145761904Y-132504819D01*
X153292800Y-129040476D02*
X153245180Y-129183333D01*
X153245180Y-129183333D02*
X153245180Y-129421428D01*
X153245180Y-129421428D02*
X153292800Y-129516666D01*
X153292800Y-129516666D02*
X153340419Y-129564285D01*
X153340419Y-129564285D02*
X153435657Y-129611904D01*
X153435657Y-129611904D02*
X153530895Y-129611904D01*
X153530895Y-129611904D02*
X153626133Y-129564285D01*
X153626133Y-129564285D02*
X153673752Y-129516666D01*
X153673752Y-129516666D02*
X153721371Y-129421428D01*
X153721371Y-129421428D02*
X153768990Y-129230952D01*
X153768990Y-129230952D02*
X153816609Y-129135714D01*
X153816609Y-129135714D02*
X153864228Y-129088095D01*
X153864228Y-129088095D02*
X153959466Y-129040476D01*
X153959466Y-129040476D02*
X154054704Y-129040476D01*
X154054704Y-129040476D02*
X154149942Y-129088095D01*
X154149942Y-129088095D02*
X154197561Y-129135714D01*
X154197561Y-129135714D02*
X154245180Y-129230952D01*
X154245180Y-129230952D02*
X154245180Y-129469047D01*
X154245180Y-129469047D02*
X154197561Y-129611904D01*
X154245180Y-129945238D02*
X153245180Y-130183333D01*
X153245180Y-130183333D02*
X153959466Y-130373809D01*
X153959466Y-130373809D02*
X153245180Y-130564285D01*
X153245180Y-130564285D02*
X154245180Y-130802381D01*
X153245180Y-131707142D02*
X153245180Y-131135714D01*
X153245180Y-131421428D02*
X154245180Y-131421428D01*
X154245180Y-131421428D02*
X154102323Y-131326190D01*
X154102323Y-131326190D02*
X154007085Y-131230952D01*
X154007085Y-131230952D02*
X153959466Y-131135714D01*
X153245180Y-132659523D02*
X153245180Y-132088095D01*
X153245180Y-132373809D02*
X154245180Y-132373809D01*
X154245180Y-132373809D02*
X154102323Y-132278571D01*
X154102323Y-132278571D02*
X154007085Y-132183333D01*
X154007085Y-132183333D02*
X153959466Y-132088095D01*
X128775476Y-36774819D02*
X128775476Y-37489104D01*
X128775476Y-37489104D02*
X128727857Y-37631961D01*
X128727857Y-37631961D02*
X128632619Y-37727200D01*
X128632619Y-37727200D02*
X128489762Y-37774819D01*
X128489762Y-37774819D02*
X128394524Y-37774819D01*
X129204048Y-36870057D02*
X129251667Y-36822438D01*
X129251667Y-36822438D02*
X129346905Y-36774819D01*
X129346905Y-36774819D02*
X129585000Y-36774819D01*
X129585000Y-36774819D02*
X129680238Y-36822438D01*
X129680238Y-36822438D02*
X129727857Y-36870057D01*
X129727857Y-36870057D02*
X129775476Y-36965295D01*
X129775476Y-36965295D02*
X129775476Y-37060533D01*
X129775476Y-37060533D02*
X129727857Y-37203390D01*
X129727857Y-37203390D02*
X129156429Y-37774819D01*
X129156429Y-37774819D02*
X129775476Y-37774819D01*
X130346905Y-37203390D02*
X130251667Y-37155771D01*
X130251667Y-37155771D02*
X130204048Y-37108152D01*
X130204048Y-37108152D02*
X130156429Y-37012914D01*
X130156429Y-37012914D02*
X130156429Y-36965295D01*
X130156429Y-36965295D02*
X130204048Y-36870057D01*
X130204048Y-36870057D02*
X130251667Y-36822438D01*
X130251667Y-36822438D02*
X130346905Y-36774819D01*
X130346905Y-36774819D02*
X130537381Y-36774819D01*
X130537381Y-36774819D02*
X130632619Y-36822438D01*
X130632619Y-36822438D02*
X130680238Y-36870057D01*
X130680238Y-36870057D02*
X130727857Y-36965295D01*
X130727857Y-36965295D02*
X130727857Y-37012914D01*
X130727857Y-37012914D02*
X130680238Y-37108152D01*
X130680238Y-37108152D02*
X130632619Y-37155771D01*
X130632619Y-37155771D02*
X130537381Y-37203390D01*
X130537381Y-37203390D02*
X130346905Y-37203390D01*
X130346905Y-37203390D02*
X130251667Y-37251009D01*
X130251667Y-37251009D02*
X130204048Y-37298628D01*
X130204048Y-37298628D02*
X130156429Y-37393866D01*
X130156429Y-37393866D02*
X130156429Y-37584342D01*
X130156429Y-37584342D02*
X130204048Y-37679580D01*
X130204048Y-37679580D02*
X130251667Y-37727200D01*
X130251667Y-37727200D02*
X130346905Y-37774819D01*
X130346905Y-37774819D02*
X130537381Y-37774819D01*
X130537381Y-37774819D02*
X130632619Y-37727200D01*
X130632619Y-37727200D02*
X130680238Y-37679580D01*
X130680238Y-37679580D02*
X130727857Y-37584342D01*
X130727857Y-37584342D02*
X130727857Y-37393866D01*
X130727857Y-37393866D02*
X130680238Y-37298628D01*
X130680238Y-37298628D02*
X130632619Y-37251009D01*
X130632619Y-37251009D02*
X130537381Y-37203390D01*
X256792800Y-129516667D02*
X256745180Y-129659524D01*
X256745180Y-129659524D02*
X256745180Y-129897619D01*
X256745180Y-129897619D02*
X256792800Y-129992857D01*
X256792800Y-129992857D02*
X256840419Y-130040476D01*
X256840419Y-130040476D02*
X256935657Y-130088095D01*
X256935657Y-130088095D02*
X257030895Y-130088095D01*
X257030895Y-130088095D02*
X257126133Y-130040476D01*
X257126133Y-130040476D02*
X257173752Y-129992857D01*
X257173752Y-129992857D02*
X257221371Y-129897619D01*
X257221371Y-129897619D02*
X257268990Y-129707143D01*
X257268990Y-129707143D02*
X257316609Y-129611905D01*
X257316609Y-129611905D02*
X257364228Y-129564286D01*
X257364228Y-129564286D02*
X257459466Y-129516667D01*
X257459466Y-129516667D02*
X257554704Y-129516667D01*
X257554704Y-129516667D02*
X257649942Y-129564286D01*
X257649942Y-129564286D02*
X257697561Y-129611905D01*
X257697561Y-129611905D02*
X257745180Y-129707143D01*
X257745180Y-129707143D02*
X257745180Y-129945238D01*
X257745180Y-129945238D02*
X257697561Y-130088095D01*
X257745180Y-130421429D02*
X256745180Y-130659524D01*
X256745180Y-130659524D02*
X257459466Y-130850000D01*
X257459466Y-130850000D02*
X256745180Y-131040476D01*
X256745180Y-131040476D02*
X257745180Y-131278572D01*
X257649942Y-131611905D02*
X257697561Y-131659524D01*
X257697561Y-131659524D02*
X257745180Y-131754762D01*
X257745180Y-131754762D02*
X257745180Y-131992857D01*
X257745180Y-131992857D02*
X257697561Y-132088095D01*
X257697561Y-132088095D02*
X257649942Y-132135714D01*
X257649942Y-132135714D02*
X257554704Y-132183333D01*
X257554704Y-132183333D02*
X257459466Y-132183333D01*
X257459466Y-132183333D02*
X257316609Y-132135714D01*
X257316609Y-132135714D02*
X256745180Y-131564286D01*
X256745180Y-131564286D02*
X256745180Y-132183333D01*
X262357142Y-41954819D02*
X262023809Y-41478628D01*
X261785714Y-41954819D02*
X261785714Y-40954819D01*
X261785714Y-40954819D02*
X262166666Y-40954819D01*
X262166666Y-40954819D02*
X262261904Y-41002438D01*
X262261904Y-41002438D02*
X262309523Y-41050057D01*
X262309523Y-41050057D02*
X262357142Y-41145295D01*
X262357142Y-41145295D02*
X262357142Y-41288152D01*
X262357142Y-41288152D02*
X262309523Y-41383390D01*
X262309523Y-41383390D02*
X262261904Y-41431009D01*
X262261904Y-41431009D02*
X262166666Y-41478628D01*
X262166666Y-41478628D02*
X261785714Y-41478628D01*
X263309523Y-41954819D02*
X262738095Y-41954819D01*
X263023809Y-41954819D02*
X263023809Y-40954819D01*
X263023809Y-40954819D02*
X262928571Y-41097676D01*
X262928571Y-41097676D02*
X262833333Y-41192914D01*
X262833333Y-41192914D02*
X262738095Y-41240533D01*
X264214285Y-40954819D02*
X263738095Y-40954819D01*
X263738095Y-40954819D02*
X263690476Y-41431009D01*
X263690476Y-41431009D02*
X263738095Y-41383390D01*
X263738095Y-41383390D02*
X263833333Y-41335771D01*
X263833333Y-41335771D02*
X264071428Y-41335771D01*
X264071428Y-41335771D02*
X264166666Y-41383390D01*
X264166666Y-41383390D02*
X264214285Y-41431009D01*
X264214285Y-41431009D02*
X264261904Y-41526247D01*
X264261904Y-41526247D02*
X264261904Y-41764342D01*
X264261904Y-41764342D02*
X264214285Y-41859580D01*
X264214285Y-41859580D02*
X264166666Y-41907200D01*
X264166666Y-41907200D02*
X264071428Y-41954819D01*
X264071428Y-41954819D02*
X263833333Y-41954819D01*
X263833333Y-41954819D02*
X263738095Y-41907200D01*
X263738095Y-41907200D02*
X263690476Y-41859580D01*
X193388351Y-41713283D02*
X193055018Y-41237092D01*
X192816923Y-41713283D02*
X192816923Y-40713283D01*
X192816923Y-40713283D02*
X193197875Y-40713283D01*
X193197875Y-40713283D02*
X193293113Y-40760902D01*
X193293113Y-40760902D02*
X193340732Y-40808521D01*
X193340732Y-40808521D02*
X193388351Y-40903759D01*
X193388351Y-40903759D02*
X193388351Y-41046616D01*
X193388351Y-41046616D02*
X193340732Y-41141854D01*
X193340732Y-41141854D02*
X193293113Y-41189473D01*
X193293113Y-41189473D02*
X193197875Y-41237092D01*
X193197875Y-41237092D02*
X192816923Y-41237092D01*
X193769304Y-40808521D02*
X193816923Y-40760902D01*
X193816923Y-40760902D02*
X193912161Y-40713283D01*
X193912161Y-40713283D02*
X194150256Y-40713283D01*
X194150256Y-40713283D02*
X194245494Y-40760902D01*
X194245494Y-40760902D02*
X194293113Y-40808521D01*
X194293113Y-40808521D02*
X194340732Y-40903759D01*
X194340732Y-40903759D02*
X194340732Y-40998997D01*
X194340732Y-40998997D02*
X194293113Y-41141854D01*
X194293113Y-41141854D02*
X193721685Y-41713283D01*
X193721685Y-41713283D02*
X194340732Y-41713283D01*
X195293113Y-41713283D02*
X194721685Y-41713283D01*
X195007399Y-41713283D02*
X195007399Y-40713283D01*
X195007399Y-40713283D02*
X194912161Y-40856140D01*
X194912161Y-40856140D02*
X194816923Y-40951378D01*
X194816923Y-40951378D02*
X194721685Y-40998997D01*
X268292800Y-129516667D02*
X268245180Y-129659524D01*
X268245180Y-129659524D02*
X268245180Y-129897619D01*
X268245180Y-129897619D02*
X268292800Y-129992857D01*
X268292800Y-129992857D02*
X268340419Y-130040476D01*
X268340419Y-130040476D02*
X268435657Y-130088095D01*
X268435657Y-130088095D02*
X268530895Y-130088095D01*
X268530895Y-130088095D02*
X268626133Y-130040476D01*
X268626133Y-130040476D02*
X268673752Y-129992857D01*
X268673752Y-129992857D02*
X268721371Y-129897619D01*
X268721371Y-129897619D02*
X268768990Y-129707143D01*
X268768990Y-129707143D02*
X268816609Y-129611905D01*
X268816609Y-129611905D02*
X268864228Y-129564286D01*
X268864228Y-129564286D02*
X268959466Y-129516667D01*
X268959466Y-129516667D02*
X269054704Y-129516667D01*
X269054704Y-129516667D02*
X269149942Y-129564286D01*
X269149942Y-129564286D02*
X269197561Y-129611905D01*
X269197561Y-129611905D02*
X269245180Y-129707143D01*
X269245180Y-129707143D02*
X269245180Y-129945238D01*
X269245180Y-129945238D02*
X269197561Y-130088095D01*
X269245180Y-130421429D02*
X268245180Y-130659524D01*
X268245180Y-130659524D02*
X268959466Y-130850000D01*
X268959466Y-130850000D02*
X268245180Y-131040476D01*
X268245180Y-131040476D02*
X269245180Y-131278572D01*
X268245180Y-132183333D02*
X268245180Y-131611905D01*
X268245180Y-131897619D02*
X269245180Y-131897619D01*
X269245180Y-131897619D02*
X269102323Y-131802381D01*
X269102323Y-131802381D02*
X269007085Y-131707143D01*
X269007085Y-131707143D02*
X268959466Y-131611905D01*
X173521343Y-39613933D02*
X173664200Y-39661552D01*
X173664200Y-39661552D02*
X173902295Y-39661552D01*
X173902295Y-39661552D02*
X173997533Y-39613933D01*
X173997533Y-39613933D02*
X174045152Y-39566313D01*
X174045152Y-39566313D02*
X174092771Y-39471075D01*
X174092771Y-39471075D02*
X174092771Y-39375837D01*
X174092771Y-39375837D02*
X174045152Y-39280599D01*
X174045152Y-39280599D02*
X173997533Y-39232980D01*
X173997533Y-39232980D02*
X173902295Y-39185361D01*
X173902295Y-39185361D02*
X173711819Y-39137742D01*
X173711819Y-39137742D02*
X173616581Y-39090123D01*
X173616581Y-39090123D02*
X173568962Y-39042504D01*
X173568962Y-39042504D02*
X173521343Y-38947266D01*
X173521343Y-38947266D02*
X173521343Y-38852028D01*
X173521343Y-38852028D02*
X173568962Y-38756790D01*
X173568962Y-38756790D02*
X173616581Y-38709171D01*
X173616581Y-38709171D02*
X173711819Y-38661552D01*
X173711819Y-38661552D02*
X173949914Y-38661552D01*
X173949914Y-38661552D02*
X174092771Y-38709171D01*
X174426105Y-38661552D02*
X174664200Y-39661552D01*
X174664200Y-39661552D02*
X174854676Y-38947266D01*
X174854676Y-38947266D02*
X175045152Y-39661552D01*
X175045152Y-39661552D02*
X175283248Y-38661552D01*
X175616581Y-38756790D02*
X175664200Y-38709171D01*
X175664200Y-38709171D02*
X175759438Y-38661552D01*
X175759438Y-38661552D02*
X175997533Y-38661552D01*
X175997533Y-38661552D02*
X176092771Y-38709171D01*
X176092771Y-38709171D02*
X176140390Y-38756790D01*
X176140390Y-38756790D02*
X176188009Y-38852028D01*
X176188009Y-38852028D02*
X176188009Y-38947266D01*
X176188009Y-38947266D02*
X176140390Y-39090123D01*
X176140390Y-39090123D02*
X175568962Y-39661552D01*
X175568962Y-39661552D02*
X176188009Y-39661552D01*
X176521343Y-38661552D02*
X177140390Y-38661552D01*
X177140390Y-38661552D02*
X176807057Y-39042504D01*
X176807057Y-39042504D02*
X176949914Y-39042504D01*
X176949914Y-39042504D02*
X177045152Y-39090123D01*
X177045152Y-39090123D02*
X177092771Y-39137742D01*
X177092771Y-39137742D02*
X177140390Y-39232980D01*
X177140390Y-39232980D02*
X177140390Y-39471075D01*
X177140390Y-39471075D02*
X177092771Y-39566313D01*
X177092771Y-39566313D02*
X177045152Y-39613933D01*
X177045152Y-39613933D02*
X176949914Y-39661552D01*
X176949914Y-39661552D02*
X176664200Y-39661552D01*
X176664200Y-39661552D02*
X176568962Y-39613933D01*
X176568962Y-39613933D02*
X176521343Y-39566313D01*
X113357142Y-42709808D02*
X113023809Y-42233617D01*
X112785714Y-42709808D02*
X112785714Y-41709808D01*
X112785714Y-41709808D02*
X113166666Y-41709808D01*
X113166666Y-41709808D02*
X113261904Y-41757427D01*
X113261904Y-41757427D02*
X113309523Y-41805046D01*
X113309523Y-41805046D02*
X113357142Y-41900284D01*
X113357142Y-41900284D02*
X113357142Y-42043141D01*
X113357142Y-42043141D02*
X113309523Y-42138379D01*
X113309523Y-42138379D02*
X113261904Y-42185998D01*
X113261904Y-42185998D02*
X113166666Y-42233617D01*
X113166666Y-42233617D02*
X112785714Y-42233617D01*
X113738095Y-41805046D02*
X113785714Y-41757427D01*
X113785714Y-41757427D02*
X113880952Y-41709808D01*
X113880952Y-41709808D02*
X114119047Y-41709808D01*
X114119047Y-41709808D02*
X114214285Y-41757427D01*
X114214285Y-41757427D02*
X114261904Y-41805046D01*
X114261904Y-41805046D02*
X114309523Y-41900284D01*
X114309523Y-41900284D02*
X114309523Y-41995522D01*
X114309523Y-41995522D02*
X114261904Y-42138379D01*
X114261904Y-42138379D02*
X113690476Y-42709808D01*
X113690476Y-42709808D02*
X114309523Y-42709808D01*
X114880952Y-42138379D02*
X114785714Y-42090760D01*
X114785714Y-42090760D02*
X114738095Y-42043141D01*
X114738095Y-42043141D02*
X114690476Y-41947903D01*
X114690476Y-41947903D02*
X114690476Y-41900284D01*
X114690476Y-41900284D02*
X114738095Y-41805046D01*
X114738095Y-41805046D02*
X114785714Y-41757427D01*
X114785714Y-41757427D02*
X114880952Y-41709808D01*
X114880952Y-41709808D02*
X115071428Y-41709808D01*
X115071428Y-41709808D02*
X115166666Y-41757427D01*
X115166666Y-41757427D02*
X115214285Y-41805046D01*
X115214285Y-41805046D02*
X115261904Y-41900284D01*
X115261904Y-41900284D02*
X115261904Y-41947903D01*
X115261904Y-41947903D02*
X115214285Y-42043141D01*
X115214285Y-42043141D02*
X115166666Y-42090760D01*
X115166666Y-42090760D02*
X115071428Y-42138379D01*
X115071428Y-42138379D02*
X114880952Y-42138379D01*
X114880952Y-42138379D02*
X114785714Y-42185998D01*
X114785714Y-42185998D02*
X114738095Y-42233617D01*
X114738095Y-42233617D02*
X114690476Y-42328855D01*
X114690476Y-42328855D02*
X114690476Y-42519331D01*
X114690476Y-42519331D02*
X114738095Y-42614569D01*
X114738095Y-42614569D02*
X114785714Y-42662189D01*
X114785714Y-42662189D02*
X114880952Y-42709808D01*
X114880952Y-42709808D02*
X115071428Y-42709808D01*
X115071428Y-42709808D02*
X115166666Y-42662189D01*
X115166666Y-42662189D02*
X115214285Y-42614569D01*
X115214285Y-42614569D02*
X115261904Y-42519331D01*
X115261904Y-42519331D02*
X115261904Y-42328855D01*
X115261904Y-42328855D02*
X115214285Y-42233617D01*
X115214285Y-42233617D02*
X115166666Y-42185998D01*
X115166666Y-42185998D02*
X115071428Y-42138379D01*
X266695476Y-36602319D02*
X266695476Y-37316604D01*
X266695476Y-37316604D02*
X266647857Y-37459461D01*
X266647857Y-37459461D02*
X266552619Y-37554700D01*
X266552619Y-37554700D02*
X266409762Y-37602319D01*
X266409762Y-37602319D02*
X266314524Y-37602319D01*
X267695476Y-37602319D02*
X267124048Y-37602319D01*
X267409762Y-37602319D02*
X267409762Y-36602319D01*
X267409762Y-36602319D02*
X267314524Y-36745176D01*
X267314524Y-36745176D02*
X267219286Y-36840414D01*
X267219286Y-36840414D02*
X267124048Y-36888033D01*
X268552619Y-36602319D02*
X268362143Y-36602319D01*
X268362143Y-36602319D02*
X268266905Y-36649938D01*
X268266905Y-36649938D02*
X268219286Y-36697557D01*
X268219286Y-36697557D02*
X268124048Y-36840414D01*
X268124048Y-36840414D02*
X268076429Y-37030890D01*
X268076429Y-37030890D02*
X268076429Y-37411842D01*
X268076429Y-37411842D02*
X268124048Y-37507080D01*
X268124048Y-37507080D02*
X268171667Y-37554700D01*
X268171667Y-37554700D02*
X268266905Y-37602319D01*
X268266905Y-37602319D02*
X268457381Y-37602319D01*
X268457381Y-37602319D02*
X268552619Y-37554700D01*
X268552619Y-37554700D02*
X268600238Y-37507080D01*
X268600238Y-37507080D02*
X268647857Y-37411842D01*
X268647857Y-37411842D02*
X268647857Y-37173747D01*
X268647857Y-37173747D02*
X268600238Y-37078509D01*
X268600238Y-37078509D02*
X268552619Y-37030890D01*
X268552619Y-37030890D02*
X268457381Y-36983271D01*
X268457381Y-36983271D02*
X268266905Y-36983271D01*
X268266905Y-36983271D02*
X268171667Y-37030890D01*
X268171667Y-37030890D02*
X268124048Y-37078509D01*
X268124048Y-37078509D02*
X268076429Y-37173747D01*
X161820122Y-39613933D02*
X161962979Y-39661552D01*
X161962979Y-39661552D02*
X162201074Y-39661552D01*
X162201074Y-39661552D02*
X162296312Y-39613933D01*
X162296312Y-39613933D02*
X162343931Y-39566313D01*
X162343931Y-39566313D02*
X162391550Y-39471075D01*
X162391550Y-39471075D02*
X162391550Y-39375837D01*
X162391550Y-39375837D02*
X162343931Y-39280599D01*
X162343931Y-39280599D02*
X162296312Y-39232980D01*
X162296312Y-39232980D02*
X162201074Y-39185361D01*
X162201074Y-39185361D02*
X162010598Y-39137742D01*
X162010598Y-39137742D02*
X161915360Y-39090123D01*
X161915360Y-39090123D02*
X161867741Y-39042504D01*
X161867741Y-39042504D02*
X161820122Y-38947266D01*
X161820122Y-38947266D02*
X161820122Y-38852028D01*
X161820122Y-38852028D02*
X161867741Y-38756790D01*
X161867741Y-38756790D02*
X161915360Y-38709171D01*
X161915360Y-38709171D02*
X162010598Y-38661552D01*
X162010598Y-38661552D02*
X162248693Y-38661552D01*
X162248693Y-38661552D02*
X162391550Y-38709171D01*
X162724884Y-38661552D02*
X162962979Y-39661552D01*
X162962979Y-39661552D02*
X163153455Y-38947266D01*
X163153455Y-38947266D02*
X163343931Y-39661552D01*
X163343931Y-39661552D02*
X163582027Y-38661552D01*
X163915360Y-38756790D02*
X163962979Y-38709171D01*
X163962979Y-38709171D02*
X164058217Y-38661552D01*
X164058217Y-38661552D02*
X164296312Y-38661552D01*
X164296312Y-38661552D02*
X164391550Y-38709171D01*
X164391550Y-38709171D02*
X164439169Y-38756790D01*
X164439169Y-38756790D02*
X164486788Y-38852028D01*
X164486788Y-38852028D02*
X164486788Y-38947266D01*
X164486788Y-38947266D02*
X164439169Y-39090123D01*
X164439169Y-39090123D02*
X163867741Y-39661552D01*
X163867741Y-39661552D02*
X164486788Y-39661552D01*
X165343931Y-38994885D02*
X165343931Y-39661552D01*
X165105836Y-38613933D02*
X164867741Y-39328218D01*
X164867741Y-39328218D02*
X165486788Y-39328218D01*
D10*
X226499999Y-88457419D02*
X226166666Y-87981228D01*
X225928571Y-88457419D02*
X225928571Y-87457419D01*
X225928571Y-87457419D02*
X226309523Y-87457419D01*
X226309523Y-87457419D02*
X226404761Y-87505038D01*
X226404761Y-87505038D02*
X226452380Y-87552657D01*
X226452380Y-87552657D02*
X226499999Y-87647895D01*
X226499999Y-87647895D02*
X226499999Y-87790752D01*
X226499999Y-87790752D02*
X226452380Y-87885990D01*
X226452380Y-87885990D02*
X226404761Y-87933609D01*
X226404761Y-87933609D02*
X226309523Y-87981228D01*
X226309523Y-87981228D02*
X225928571Y-87981228D01*
X227357142Y-88457419D02*
X227357142Y-87933609D01*
X227357142Y-87933609D02*
X227309523Y-87838371D01*
X227309523Y-87838371D02*
X227214285Y-87790752D01*
X227214285Y-87790752D02*
X227023809Y-87790752D01*
X227023809Y-87790752D02*
X226928571Y-87838371D01*
X227357142Y-88409800D02*
X227261904Y-88457419D01*
X227261904Y-88457419D02*
X227023809Y-88457419D01*
X227023809Y-88457419D02*
X226928571Y-88409800D01*
X226928571Y-88409800D02*
X226880952Y-88314561D01*
X226880952Y-88314561D02*
X226880952Y-88219323D01*
X226880952Y-88219323D02*
X226928571Y-88124085D01*
X226928571Y-88124085D02*
X227023809Y-88076466D01*
X227023809Y-88076466D02*
X227261904Y-88076466D01*
X227261904Y-88076466D02*
X227357142Y-88028847D01*
X227785714Y-88409800D02*
X227880952Y-88457419D01*
X227880952Y-88457419D02*
X228071428Y-88457419D01*
X228071428Y-88457419D02*
X228166666Y-88409800D01*
X228166666Y-88409800D02*
X228214285Y-88314561D01*
X228214285Y-88314561D02*
X228214285Y-88266942D01*
X228214285Y-88266942D02*
X228166666Y-88171704D01*
X228166666Y-88171704D02*
X228071428Y-88124085D01*
X228071428Y-88124085D02*
X227928571Y-88124085D01*
X227928571Y-88124085D02*
X227833333Y-88076466D01*
X227833333Y-88076466D02*
X227785714Y-87981228D01*
X227785714Y-87981228D02*
X227785714Y-87933609D01*
X227785714Y-87933609D02*
X227833333Y-87838371D01*
X227833333Y-87838371D02*
X227928571Y-87790752D01*
X227928571Y-87790752D02*
X228071428Y-87790752D01*
X228071428Y-87790752D02*
X228166666Y-87838371D01*
X228642857Y-87790752D02*
X228642857Y-88790752D01*
X228642857Y-87838371D02*
X228738095Y-87790752D01*
X228738095Y-87790752D02*
X228928571Y-87790752D01*
X228928571Y-87790752D02*
X229023809Y-87838371D01*
X229023809Y-87838371D02*
X229071428Y-87885990D01*
X229071428Y-87885990D02*
X229119047Y-87981228D01*
X229119047Y-87981228D02*
X229119047Y-88266942D01*
X229119047Y-88266942D02*
X229071428Y-88362180D01*
X229071428Y-88362180D02*
X229023809Y-88409800D01*
X229023809Y-88409800D02*
X228928571Y-88457419D01*
X228928571Y-88457419D02*
X228738095Y-88457419D01*
X228738095Y-88457419D02*
X228642857Y-88409800D01*
X229547619Y-88457419D02*
X229547619Y-87457419D01*
X229547619Y-87838371D02*
X229642857Y-87790752D01*
X229642857Y-87790752D02*
X229833333Y-87790752D01*
X229833333Y-87790752D02*
X229928571Y-87838371D01*
X229928571Y-87838371D02*
X229976190Y-87885990D01*
X229976190Y-87885990D02*
X230023809Y-87981228D01*
X230023809Y-87981228D02*
X230023809Y-88266942D01*
X230023809Y-88266942D02*
X229976190Y-88362180D01*
X229976190Y-88362180D02*
X229928571Y-88409800D01*
X229928571Y-88409800D02*
X229833333Y-88457419D01*
X229833333Y-88457419D02*
X229642857Y-88457419D01*
X229642857Y-88457419D02*
X229547619Y-88409800D01*
X230833333Y-88409800D02*
X230738095Y-88457419D01*
X230738095Y-88457419D02*
X230547619Y-88457419D01*
X230547619Y-88457419D02*
X230452381Y-88409800D01*
X230452381Y-88409800D02*
X230404762Y-88314561D01*
X230404762Y-88314561D02*
X230404762Y-87933609D01*
X230404762Y-87933609D02*
X230452381Y-87838371D01*
X230452381Y-87838371D02*
X230547619Y-87790752D01*
X230547619Y-87790752D02*
X230738095Y-87790752D01*
X230738095Y-87790752D02*
X230833333Y-87838371D01*
X230833333Y-87838371D02*
X230880952Y-87933609D01*
X230880952Y-87933609D02*
X230880952Y-88028847D01*
X230880952Y-88028847D02*
X230404762Y-88124085D01*
X231309524Y-88457419D02*
X231309524Y-87790752D01*
X231309524Y-87981228D02*
X231357143Y-87885990D01*
X231357143Y-87885990D02*
X231404762Y-87838371D01*
X231404762Y-87838371D02*
X231500000Y-87790752D01*
X231500000Y-87790752D02*
X231595238Y-87790752D01*
X231928572Y-88457419D02*
X231928572Y-87790752D01*
X231928572Y-87981228D02*
X231976191Y-87885990D01*
X231976191Y-87885990D02*
X232023810Y-87838371D01*
X232023810Y-87838371D02*
X232119048Y-87790752D01*
X232119048Y-87790752D02*
X232214286Y-87790752D01*
X232452382Y-87790752D02*
X232690477Y-88457419D01*
X232928572Y-87790752D02*
X232690477Y-88457419D01*
X232690477Y-88457419D02*
X232595239Y-88695514D01*
X232595239Y-88695514D02*
X232547620Y-88743133D01*
X232547620Y-88743133D02*
X232452382Y-88790752D01*
X234071430Y-88457419D02*
X234071430Y-87457419D01*
X234071430Y-87457419D02*
X234452382Y-87457419D01*
X234452382Y-87457419D02*
X234547620Y-87505038D01*
X234547620Y-87505038D02*
X234595239Y-87552657D01*
X234595239Y-87552657D02*
X234642858Y-87647895D01*
X234642858Y-87647895D02*
X234642858Y-87790752D01*
X234642858Y-87790752D02*
X234595239Y-87885990D01*
X234595239Y-87885990D02*
X234547620Y-87933609D01*
X234547620Y-87933609D02*
X234452382Y-87981228D01*
X234452382Y-87981228D02*
X234071430Y-87981228D01*
X235071430Y-88457419D02*
X235071430Y-87790752D01*
X235071430Y-87457419D02*
X235023811Y-87505038D01*
X235023811Y-87505038D02*
X235071430Y-87552657D01*
X235071430Y-87552657D02*
X235119049Y-87505038D01*
X235119049Y-87505038D02*
X235071430Y-87457419D01*
X235071430Y-87457419D02*
X235071430Y-87552657D01*
D11*
X243695476Y-36602319D02*
X243695476Y-37316604D01*
X243695476Y-37316604D02*
X243647857Y-37459461D01*
X243647857Y-37459461D02*
X243552619Y-37554700D01*
X243552619Y-37554700D02*
X243409762Y-37602319D01*
X243409762Y-37602319D02*
X243314524Y-37602319D01*
X244695476Y-37602319D02*
X244124048Y-37602319D01*
X244409762Y-37602319D02*
X244409762Y-36602319D01*
X244409762Y-36602319D02*
X244314524Y-36745176D01*
X244314524Y-36745176D02*
X244219286Y-36840414D01*
X244219286Y-36840414D02*
X244124048Y-36888033D01*
X245266905Y-37030890D02*
X245171667Y-36983271D01*
X245171667Y-36983271D02*
X245124048Y-36935652D01*
X245124048Y-36935652D02*
X245076429Y-36840414D01*
X245076429Y-36840414D02*
X245076429Y-36792795D01*
X245076429Y-36792795D02*
X245124048Y-36697557D01*
X245124048Y-36697557D02*
X245171667Y-36649938D01*
X245171667Y-36649938D02*
X245266905Y-36602319D01*
X245266905Y-36602319D02*
X245457381Y-36602319D01*
X245457381Y-36602319D02*
X245552619Y-36649938D01*
X245552619Y-36649938D02*
X245600238Y-36697557D01*
X245600238Y-36697557D02*
X245647857Y-36792795D01*
X245647857Y-36792795D02*
X245647857Y-36840414D01*
X245647857Y-36840414D02*
X245600238Y-36935652D01*
X245600238Y-36935652D02*
X245552619Y-36983271D01*
X245552619Y-36983271D02*
X245457381Y-37030890D01*
X245457381Y-37030890D02*
X245266905Y-37030890D01*
X245266905Y-37030890D02*
X245171667Y-37078509D01*
X245171667Y-37078509D02*
X245124048Y-37126128D01*
X245124048Y-37126128D02*
X245076429Y-37221366D01*
X245076429Y-37221366D02*
X245076429Y-37411842D01*
X245076429Y-37411842D02*
X245124048Y-37507080D01*
X245124048Y-37507080D02*
X245171667Y-37554700D01*
X245171667Y-37554700D02*
X245266905Y-37602319D01*
X245266905Y-37602319D02*
X245457381Y-37602319D01*
X245457381Y-37602319D02*
X245552619Y-37554700D01*
X245552619Y-37554700D02*
X245600238Y-37507080D01*
X245600238Y-37507080D02*
X245647857Y-37411842D01*
X245647857Y-37411842D02*
X245647857Y-37221366D01*
X245647857Y-37221366D02*
X245600238Y-37126128D01*
X245600238Y-37126128D02*
X245552619Y-37078509D01*
X245552619Y-37078509D02*
X245457381Y-37030890D01*
X253963712Y-39725795D02*
X254106569Y-39773414D01*
X254106569Y-39773414D02*
X254344664Y-39773414D01*
X254344664Y-39773414D02*
X254439902Y-39725795D01*
X254439902Y-39725795D02*
X254487521Y-39678175D01*
X254487521Y-39678175D02*
X254535140Y-39582937D01*
X254535140Y-39582937D02*
X254535140Y-39487699D01*
X254535140Y-39487699D02*
X254487521Y-39392461D01*
X254487521Y-39392461D02*
X254439902Y-39344842D01*
X254439902Y-39344842D02*
X254344664Y-39297223D01*
X254344664Y-39297223D02*
X254154188Y-39249604D01*
X254154188Y-39249604D02*
X254058950Y-39201985D01*
X254058950Y-39201985D02*
X254011331Y-39154366D01*
X254011331Y-39154366D02*
X253963712Y-39059128D01*
X253963712Y-39059128D02*
X253963712Y-38963890D01*
X253963712Y-38963890D02*
X254011331Y-38868652D01*
X254011331Y-38868652D02*
X254058950Y-38821033D01*
X254058950Y-38821033D02*
X254154188Y-38773414D01*
X254154188Y-38773414D02*
X254392283Y-38773414D01*
X254392283Y-38773414D02*
X254535140Y-38821033D01*
X254868474Y-38773414D02*
X255106569Y-39773414D01*
X255106569Y-39773414D02*
X255297045Y-39059128D01*
X255297045Y-39059128D02*
X255487521Y-39773414D01*
X255487521Y-39773414D02*
X255725617Y-38773414D01*
X256630378Y-39773414D02*
X256058950Y-39773414D01*
X256344664Y-39773414D02*
X256344664Y-38773414D01*
X256344664Y-38773414D02*
X256249426Y-38916271D01*
X256249426Y-38916271D02*
X256154188Y-39011509D01*
X256154188Y-39011509D02*
X256058950Y-39059128D01*
X257487521Y-38773414D02*
X257297045Y-38773414D01*
X257297045Y-38773414D02*
X257201807Y-38821033D01*
X257201807Y-38821033D02*
X257154188Y-38868652D01*
X257154188Y-38868652D02*
X257058950Y-39011509D01*
X257058950Y-39011509D02*
X257011331Y-39201985D01*
X257011331Y-39201985D02*
X257011331Y-39582937D01*
X257011331Y-39582937D02*
X257058950Y-39678175D01*
X257058950Y-39678175D02*
X257106569Y-39725795D01*
X257106569Y-39725795D02*
X257201807Y-39773414D01*
X257201807Y-39773414D02*
X257392283Y-39773414D01*
X257392283Y-39773414D02*
X257487521Y-39725795D01*
X257487521Y-39725795D02*
X257535140Y-39678175D01*
X257535140Y-39678175D02*
X257582759Y-39582937D01*
X257582759Y-39582937D02*
X257582759Y-39344842D01*
X257582759Y-39344842D02*
X257535140Y-39249604D01*
X257535140Y-39249604D02*
X257487521Y-39201985D01*
X257487521Y-39201985D02*
X257392283Y-39154366D01*
X257392283Y-39154366D02*
X257201807Y-39154366D01*
X257201807Y-39154366D02*
X257106569Y-39201985D01*
X257106569Y-39201985D02*
X257058950Y-39249604D01*
X257058950Y-39249604D02*
X257011331Y-39344842D01*
X263690476Y-49804819D02*
X263690476Y-48804819D01*
X263690476Y-48804819D02*
X264023809Y-49519104D01*
X264023809Y-49519104D02*
X264357142Y-48804819D01*
X264357142Y-48804819D02*
X264357142Y-49804819D01*
X264785714Y-48900057D02*
X264833333Y-48852438D01*
X264833333Y-48852438D02*
X264928571Y-48804819D01*
X264928571Y-48804819D02*
X265166666Y-48804819D01*
X265166666Y-48804819D02*
X265261904Y-48852438D01*
X265261904Y-48852438D02*
X265309523Y-48900057D01*
X265309523Y-48900057D02*
X265357142Y-48995295D01*
X265357142Y-48995295D02*
X265357142Y-49090533D01*
X265357142Y-49090533D02*
X265309523Y-49233390D01*
X265309523Y-49233390D02*
X264738095Y-49804819D01*
X264738095Y-49804819D02*
X265357142Y-49804819D01*
X197740476Y-36602319D02*
X197740476Y-37316604D01*
X197740476Y-37316604D02*
X197692857Y-37459461D01*
X197692857Y-37459461D02*
X197597619Y-37554700D01*
X197597619Y-37554700D02*
X197454762Y-37602319D01*
X197454762Y-37602319D02*
X197359524Y-37602319D01*
X198169048Y-36697557D02*
X198216667Y-36649938D01*
X198216667Y-36649938D02*
X198311905Y-36602319D01*
X198311905Y-36602319D02*
X198550000Y-36602319D01*
X198550000Y-36602319D02*
X198645238Y-36649938D01*
X198645238Y-36649938D02*
X198692857Y-36697557D01*
X198692857Y-36697557D02*
X198740476Y-36792795D01*
X198740476Y-36792795D02*
X198740476Y-36888033D01*
X198740476Y-36888033D02*
X198692857Y-37030890D01*
X198692857Y-37030890D02*
X198121429Y-37602319D01*
X198121429Y-37602319D02*
X198740476Y-37602319D01*
X199121429Y-36697557D02*
X199169048Y-36649938D01*
X199169048Y-36649938D02*
X199264286Y-36602319D01*
X199264286Y-36602319D02*
X199502381Y-36602319D01*
X199502381Y-36602319D02*
X199597619Y-36649938D01*
X199597619Y-36649938D02*
X199645238Y-36697557D01*
X199645238Y-36697557D02*
X199692857Y-36792795D01*
X199692857Y-36792795D02*
X199692857Y-36888033D01*
X199692857Y-36888033D02*
X199645238Y-37030890D01*
X199645238Y-37030890D02*
X199073810Y-37602319D01*
X199073810Y-37602319D02*
X199692857Y-37602319D01*
X118792800Y-129040476D02*
X118745180Y-129183333D01*
X118745180Y-129183333D02*
X118745180Y-129421428D01*
X118745180Y-129421428D02*
X118792800Y-129516666D01*
X118792800Y-129516666D02*
X118840419Y-129564285D01*
X118840419Y-129564285D02*
X118935657Y-129611904D01*
X118935657Y-129611904D02*
X119030895Y-129611904D01*
X119030895Y-129611904D02*
X119126133Y-129564285D01*
X119126133Y-129564285D02*
X119173752Y-129516666D01*
X119173752Y-129516666D02*
X119221371Y-129421428D01*
X119221371Y-129421428D02*
X119268990Y-129230952D01*
X119268990Y-129230952D02*
X119316609Y-129135714D01*
X119316609Y-129135714D02*
X119364228Y-129088095D01*
X119364228Y-129088095D02*
X119459466Y-129040476D01*
X119459466Y-129040476D02*
X119554704Y-129040476D01*
X119554704Y-129040476D02*
X119649942Y-129088095D01*
X119649942Y-129088095D02*
X119697561Y-129135714D01*
X119697561Y-129135714D02*
X119745180Y-129230952D01*
X119745180Y-129230952D02*
X119745180Y-129469047D01*
X119745180Y-129469047D02*
X119697561Y-129611904D01*
X119745180Y-129945238D02*
X118745180Y-130183333D01*
X118745180Y-130183333D02*
X119459466Y-130373809D01*
X119459466Y-130373809D02*
X118745180Y-130564285D01*
X118745180Y-130564285D02*
X119745180Y-130802381D01*
X118745180Y-131707142D02*
X118745180Y-131135714D01*
X118745180Y-131421428D02*
X119745180Y-131421428D01*
X119745180Y-131421428D02*
X119602323Y-131326190D01*
X119602323Y-131326190D02*
X119507085Y-131230952D01*
X119507085Y-131230952D02*
X119459466Y-131135714D01*
X119411847Y-132564285D02*
X118745180Y-132564285D01*
X119792800Y-132326190D02*
X119078514Y-132088095D01*
X119078514Y-132088095D02*
X119078514Y-132707142D01*
X267126666Y-137807319D02*
X267126666Y-138521604D01*
X267126666Y-138521604D02*
X267079047Y-138664461D01*
X267079047Y-138664461D02*
X266983809Y-138759700D01*
X266983809Y-138759700D02*
X266840952Y-138807319D01*
X266840952Y-138807319D02*
X266745714Y-138807319D01*
X267555238Y-137902557D02*
X267602857Y-137854938D01*
X267602857Y-137854938D02*
X267698095Y-137807319D01*
X267698095Y-137807319D02*
X267936190Y-137807319D01*
X267936190Y-137807319D02*
X268031428Y-137854938D01*
X268031428Y-137854938D02*
X268079047Y-137902557D01*
X268079047Y-137902557D02*
X268126666Y-137997795D01*
X268126666Y-137997795D02*
X268126666Y-138093033D01*
X268126666Y-138093033D02*
X268079047Y-138235890D01*
X268079047Y-138235890D02*
X267507619Y-138807319D01*
X267507619Y-138807319D02*
X268126666Y-138807319D01*
X189833333Y-132504819D02*
X189500000Y-132028628D01*
X189261905Y-132504819D02*
X189261905Y-131504819D01*
X189261905Y-131504819D02*
X189642857Y-131504819D01*
X189642857Y-131504819D02*
X189738095Y-131552438D01*
X189738095Y-131552438D02*
X189785714Y-131600057D01*
X189785714Y-131600057D02*
X189833333Y-131695295D01*
X189833333Y-131695295D02*
X189833333Y-131838152D01*
X189833333Y-131838152D02*
X189785714Y-131933390D01*
X189785714Y-131933390D02*
X189738095Y-131981009D01*
X189738095Y-131981009D02*
X189642857Y-132028628D01*
X189642857Y-132028628D02*
X189261905Y-132028628D01*
X190404762Y-131933390D02*
X190309524Y-131885771D01*
X190309524Y-131885771D02*
X190261905Y-131838152D01*
X190261905Y-131838152D02*
X190214286Y-131742914D01*
X190214286Y-131742914D02*
X190214286Y-131695295D01*
X190214286Y-131695295D02*
X190261905Y-131600057D01*
X190261905Y-131600057D02*
X190309524Y-131552438D01*
X190309524Y-131552438D02*
X190404762Y-131504819D01*
X190404762Y-131504819D02*
X190595238Y-131504819D01*
X190595238Y-131504819D02*
X190690476Y-131552438D01*
X190690476Y-131552438D02*
X190738095Y-131600057D01*
X190738095Y-131600057D02*
X190785714Y-131695295D01*
X190785714Y-131695295D02*
X190785714Y-131742914D01*
X190785714Y-131742914D02*
X190738095Y-131838152D01*
X190738095Y-131838152D02*
X190690476Y-131885771D01*
X190690476Y-131885771D02*
X190595238Y-131933390D01*
X190595238Y-131933390D02*
X190404762Y-131933390D01*
X190404762Y-131933390D02*
X190309524Y-131981009D01*
X190309524Y-131981009D02*
X190261905Y-132028628D01*
X190261905Y-132028628D02*
X190214286Y-132123866D01*
X190214286Y-132123866D02*
X190214286Y-132314342D01*
X190214286Y-132314342D02*
X190261905Y-132409580D01*
X190261905Y-132409580D02*
X190309524Y-132457200D01*
X190309524Y-132457200D02*
X190404762Y-132504819D01*
X190404762Y-132504819D02*
X190595238Y-132504819D01*
X190595238Y-132504819D02*
X190690476Y-132457200D01*
X190690476Y-132457200D02*
X190738095Y-132409580D01*
X190738095Y-132409580D02*
X190785714Y-132314342D01*
X190785714Y-132314342D02*
X190785714Y-132123866D01*
X190785714Y-132123866D02*
X190738095Y-132028628D01*
X190738095Y-132028628D02*
X190690476Y-131981009D01*
X190690476Y-131981009D02*
X190595238Y-131933390D01*
X178265833Y-132504819D02*
X177932500Y-132028628D01*
X177694405Y-132504819D02*
X177694405Y-131504819D01*
X177694405Y-131504819D02*
X178075357Y-131504819D01*
X178075357Y-131504819D02*
X178170595Y-131552438D01*
X178170595Y-131552438D02*
X178218214Y-131600057D01*
X178218214Y-131600057D02*
X178265833Y-131695295D01*
X178265833Y-131695295D02*
X178265833Y-131838152D01*
X178265833Y-131838152D02*
X178218214Y-131933390D01*
X178218214Y-131933390D02*
X178170595Y-131981009D01*
X178170595Y-131981009D02*
X178075357Y-132028628D01*
X178075357Y-132028628D02*
X177694405Y-132028628D01*
X178742024Y-132504819D02*
X178932500Y-132504819D01*
X178932500Y-132504819D02*
X179027738Y-132457200D01*
X179027738Y-132457200D02*
X179075357Y-132409580D01*
X179075357Y-132409580D02*
X179170595Y-132266723D01*
X179170595Y-132266723D02*
X179218214Y-132076247D01*
X179218214Y-132076247D02*
X179218214Y-131695295D01*
X179218214Y-131695295D02*
X179170595Y-131600057D01*
X179170595Y-131600057D02*
X179122976Y-131552438D01*
X179122976Y-131552438D02*
X179027738Y-131504819D01*
X179027738Y-131504819D02*
X178837262Y-131504819D01*
X178837262Y-131504819D02*
X178742024Y-131552438D01*
X178742024Y-131552438D02*
X178694405Y-131600057D01*
X178694405Y-131600057D02*
X178646786Y-131695295D01*
X178646786Y-131695295D02*
X178646786Y-131933390D01*
X178646786Y-131933390D02*
X178694405Y-132028628D01*
X178694405Y-132028628D02*
X178742024Y-132076247D01*
X178742024Y-132076247D02*
X178837262Y-132123866D01*
X178837262Y-132123866D02*
X179027738Y-132123866D01*
X179027738Y-132123866D02*
X179122976Y-132076247D01*
X179122976Y-132076247D02*
X179170595Y-132028628D01*
X179170595Y-132028628D02*
X179218214Y-131933390D01*
D12*
%TO.C,J4*%
X239295000Y-139352500D02*
X249695000Y-139352500D01*
X239295000Y-142372500D02*
X249695000Y-142372500D01*
X239295000Y-147272500D02*
X249695000Y-147272500D01*
X239295000Y-148772500D02*
X249695000Y-148772500D01*
X239295000Y-149392500D02*
X239295000Y-139352500D01*
X241655000Y-149392500D02*
X239295000Y-149392500D01*
X249695000Y-139352500D02*
X249695000Y-149392500D01*
X249695000Y-149392500D02*
X242255000Y-149392500D01*
X242395000Y-150002500D02*
X241515000Y-150002500D01*
X241955000Y-149392500D01*
X242395000Y-150002500D01*
G36*
X242395000Y-150002500D02*
G01*
X241515000Y-150002500D01*
X241955000Y-149392500D01*
X242395000Y-150002500D01*
G37*
%TO.C,J21*%
X204850000Y-26107500D02*
X212290000Y-26107500D01*
X204850000Y-36147500D02*
X204850000Y-26107500D01*
X212890000Y-26107500D02*
X215250000Y-26107500D01*
X215250000Y-26107500D02*
X215250000Y-36147500D01*
X215250000Y-26727500D02*
X204850000Y-26727500D01*
X215250000Y-28227500D02*
X204850000Y-28227500D01*
X215250000Y-33127500D02*
X204850000Y-33127500D01*
X215250000Y-36147500D02*
X204850000Y-36147500D01*
X212590000Y-26107500D02*
X212150000Y-25497500D01*
X213030000Y-25497500D01*
X212590000Y-26107500D01*
G36*
X212590000Y-26107500D02*
G01*
X212150000Y-25497500D01*
X213030000Y-25497500D01*
X212590000Y-26107500D01*
G37*
%TO.C,J23*%
X181885000Y-26280000D02*
X189325000Y-26280000D01*
X181885000Y-36320000D02*
X181885000Y-26280000D01*
X189925000Y-26280000D02*
X192285000Y-26280000D01*
X192285000Y-26280000D02*
X192285000Y-36320000D01*
X192285000Y-26900000D02*
X181885000Y-26900000D01*
X192285000Y-28400000D02*
X181885000Y-28400000D01*
X192285000Y-33300000D02*
X181885000Y-33300000D01*
X192285000Y-36320000D02*
X181885000Y-36320000D01*
X189625000Y-26280000D02*
X189185000Y-25670000D01*
X190065000Y-25670000D01*
X189625000Y-26280000D01*
G36*
X189625000Y-26280000D02*
G01*
X189185000Y-25670000D01*
X190065000Y-25670000D01*
X189625000Y-26280000D01*
G37*
%TO.C,J13*%
X135795000Y-139352500D02*
X146195000Y-139352500D01*
X135795000Y-142372500D02*
X146195000Y-142372500D01*
X135795000Y-147272500D02*
X146195000Y-147272500D01*
X135795000Y-148772500D02*
X146195000Y-148772500D01*
X135795000Y-149392500D02*
X135795000Y-139352500D01*
X138155000Y-149392500D02*
X135795000Y-149392500D01*
X146195000Y-139352500D02*
X146195000Y-149392500D01*
X146195000Y-149392500D02*
X138755000Y-149392500D01*
X138895000Y-150002500D02*
X138015000Y-150002500D01*
X138455000Y-149392500D01*
X138895000Y-150002500D01*
G36*
X138895000Y-150002500D02*
G01*
X138015000Y-150002500D01*
X138455000Y-149392500D01*
X138895000Y-150002500D01*
G37*
%TO.C,SW10*%
X158690000Y-129490000D02*
X158950000Y-129490000D01*
X158690000Y-132200000D02*
X158690000Y-129500000D01*
X160700000Y-132210000D02*
X158690000Y-132210000D01*
X162480000Y-129490000D02*
X160520000Y-129490000D01*
X164050000Y-129490000D02*
X164050000Y-128950000D01*
X164050000Y-129490000D02*
X164300000Y-129490000D01*
X164310000Y-129490000D02*
X164310000Y-132210000D01*
X164310000Y-132210000D02*
X162300000Y-132210000D01*
%TO.C,J24*%
X170385000Y-26280000D02*
X177825000Y-26280000D01*
X170385000Y-36320000D02*
X170385000Y-26280000D01*
X178425000Y-26280000D02*
X180785000Y-26280000D01*
X180785000Y-26280000D02*
X180785000Y-36320000D01*
X180785000Y-26900000D02*
X170385000Y-26900000D01*
X180785000Y-28400000D02*
X170385000Y-28400000D01*
X180785000Y-33300000D02*
X170385000Y-33300000D01*
X180785000Y-36320000D02*
X170385000Y-36320000D01*
X178125000Y-26280000D02*
X177685000Y-25670000D01*
X178565000Y-25670000D01*
X178125000Y-26280000D01*
G36*
X178125000Y-26280000D02*
G01*
X177685000Y-25670000D01*
X178565000Y-25670000D01*
X178125000Y-26280000D01*
G37*
%TO.C,J17*%
X250805000Y-26107500D02*
X258245000Y-26107500D01*
X250805000Y-36147500D02*
X250805000Y-26107500D01*
X258845000Y-26107500D02*
X261205000Y-26107500D01*
X261205000Y-26107500D02*
X261205000Y-36147500D01*
X261205000Y-26727500D02*
X250805000Y-26727500D01*
X261205000Y-28227500D02*
X250805000Y-28227500D01*
X261205000Y-33127500D02*
X250805000Y-33127500D01*
X261205000Y-36147500D02*
X250805000Y-36147500D01*
X258545000Y-26107500D02*
X258105000Y-25497500D01*
X258985000Y-25497500D01*
X258545000Y-26107500D01*
G36*
X258545000Y-26107500D02*
G01*
X258105000Y-25497500D01*
X258985000Y-25497500D01*
X258545000Y-26107500D01*
G37*
%TO.C,SW12*%
X135940000Y-129490000D02*
X136200000Y-129490000D01*
X135940000Y-132200000D02*
X135940000Y-129500000D01*
X137950000Y-132210000D02*
X135940000Y-132210000D01*
X139730000Y-129490000D02*
X137770000Y-129490000D01*
X141300000Y-129490000D02*
X141300000Y-128950000D01*
X141300000Y-129490000D02*
X141550000Y-129490000D01*
X141560000Y-129490000D02*
X141560000Y-132210000D01*
X141560000Y-132210000D02*
X139550000Y-132210000D01*
%TO.C,SW18*%
X232800409Y-39912738D02*
X234810409Y-39912738D01*
X232800409Y-42632738D02*
X232800409Y-39912738D01*
X233060409Y-42632738D02*
X232810409Y-42632738D01*
X233060409Y-42632738D02*
X233060409Y-43172738D01*
X234630409Y-42632738D02*
X236590409Y-42632738D01*
X236410409Y-39912738D02*
X238420409Y-39912738D01*
X238420409Y-39922738D02*
X238420409Y-42622738D01*
X238420409Y-42632738D02*
X238160409Y-42632738D01*
%TO.C,SW5*%
X216190000Y-129490000D02*
X216450000Y-129490000D01*
X216190000Y-132200000D02*
X216190000Y-129500000D01*
X218200000Y-132210000D02*
X216190000Y-132210000D01*
X219980000Y-129490000D02*
X218020000Y-129490000D01*
X221550000Y-129490000D02*
X221550000Y-128950000D01*
X221550000Y-129490000D02*
X221800000Y-129490000D01*
X221810000Y-129490000D02*
X221810000Y-132210000D01*
X221810000Y-132210000D02*
X219800000Y-132210000D01*
%TO.C,J14*%
X124295000Y-139352500D02*
X134695000Y-139352500D01*
X124295000Y-142372500D02*
X134695000Y-142372500D01*
X124295000Y-147272500D02*
X134695000Y-147272500D01*
X124295000Y-148772500D02*
X134695000Y-148772500D01*
X124295000Y-149392500D02*
X124295000Y-139352500D01*
X126655000Y-149392500D02*
X124295000Y-149392500D01*
X134695000Y-139352500D02*
X134695000Y-149392500D01*
X134695000Y-149392500D02*
X127255000Y-149392500D01*
X127395000Y-150002500D02*
X126515000Y-150002500D01*
X126955000Y-149392500D01*
X127395000Y-150002500D01*
G36*
X127395000Y-150002500D02*
G01*
X126515000Y-150002500D01*
X126955000Y-149392500D01*
X127395000Y-150002500D01*
G37*
%TO.C,SW21*%
X198288268Y-39873708D02*
X200298268Y-39873708D01*
X198288268Y-42593708D02*
X198288268Y-39873708D01*
X198548268Y-42593708D02*
X198298268Y-42593708D01*
X198548268Y-42593708D02*
X198548268Y-43133708D01*
X200118268Y-42593708D02*
X202078268Y-42593708D01*
X201898268Y-39873708D02*
X203908268Y-39873708D01*
X203908268Y-39883708D02*
X203908268Y-42583708D01*
X203908268Y-42593708D02*
X203648268Y-42593708D01*
%TO.C,J1*%
X207480000Y-52120000D02*
X258500000Y-52120000D01*
X207480000Y-54770000D02*
X207480000Y-52120000D01*
X207480000Y-57420000D02*
X207480000Y-56040000D01*
X208860000Y-57420000D02*
X207480000Y-57420000D01*
X210130000Y-54770000D02*
X207480000Y-54770000D01*
X210130000Y-57420000D02*
X210130000Y-54770000D01*
X210130000Y-57420000D02*
X258500000Y-57420000D01*
X258500000Y-57420000D02*
X258500000Y-52120000D01*
%TO.C,SW15*%
X267182029Y-40095073D02*
X269192029Y-40095073D01*
X267182029Y-42815073D02*
X267182029Y-40095073D01*
X267442029Y-42815073D02*
X267192029Y-42815073D01*
X267442029Y-42815073D02*
X267442029Y-43355073D01*
X269012029Y-42815073D02*
X270972029Y-42815073D01*
X270792029Y-40095073D02*
X272802029Y-40095073D01*
X272802029Y-40105073D02*
X272802029Y-42805073D01*
X272802029Y-42815073D02*
X272542029Y-42815073D01*
%TO.C,J10*%
X170295000Y-139352500D02*
X180695000Y-139352500D01*
X170295000Y-142372500D02*
X180695000Y-142372500D01*
X170295000Y-147272500D02*
X180695000Y-147272500D01*
X170295000Y-148772500D02*
X180695000Y-148772500D01*
X170295000Y-149392500D02*
X170295000Y-139352500D01*
X172655000Y-149392500D02*
X170295000Y-149392500D01*
X180695000Y-139352500D02*
X180695000Y-149392500D01*
X180695000Y-149392500D02*
X173255000Y-149392500D01*
X173395000Y-150002500D02*
X172515000Y-150002500D01*
X172955000Y-149392500D01*
X173395000Y-150002500D01*
G36*
X173395000Y-150002500D02*
G01*
X172515000Y-150002500D01*
X172955000Y-149392500D01*
X173395000Y-150002500D01*
G37*
%TO.C,SW17*%
X244168613Y-39917048D02*
X246178613Y-39917048D01*
X244168613Y-42637048D02*
X244168613Y-39917048D01*
X244428613Y-42637048D02*
X244178613Y-42637048D01*
X244428613Y-42637048D02*
X244428613Y-43177048D01*
X245998613Y-42637048D02*
X247958613Y-42637048D01*
X247778613Y-39917048D02*
X249788613Y-39917048D01*
X249788613Y-39927048D02*
X249788613Y-42627048D01*
X249788613Y-42637048D02*
X249528613Y-42637048D01*
%TO.C,SW28*%
X117817608Y-39856880D02*
X119827608Y-39856880D01*
X117817608Y-42576880D02*
X117817608Y-39856880D01*
X118077608Y-42576880D02*
X117827608Y-42576880D01*
X118077608Y-42576880D02*
X118077608Y-43116880D01*
X119647608Y-42576880D02*
X121607608Y-42576880D01*
X121427608Y-39856880D02*
X123437608Y-39856880D01*
X123437608Y-39866880D02*
X123437608Y-42566880D01*
X123437608Y-42576880D02*
X123177608Y-42576880D01*
%TO.C,J15*%
X112840000Y-139352500D02*
X123240000Y-139352500D01*
X112840000Y-142372500D02*
X123240000Y-142372500D01*
X112840000Y-147272500D02*
X123240000Y-147272500D01*
X112840000Y-148772500D02*
X123240000Y-148772500D01*
X112840000Y-149392500D02*
X112840000Y-139352500D01*
X115200000Y-149392500D02*
X112840000Y-149392500D01*
X123240000Y-139352500D02*
X123240000Y-149392500D01*
X123240000Y-149392500D02*
X115800000Y-149392500D01*
X115940000Y-150002500D02*
X115060000Y-150002500D01*
X115500000Y-149392500D01*
X115940000Y-150002500D01*
G36*
X115940000Y-150002500D02*
G01*
X115060000Y-150002500D01*
X115500000Y-149392500D01*
X115940000Y-150002500D01*
G37*
%TO.C,SW25*%
X152295955Y-39826699D02*
X154305955Y-39826699D01*
X152295955Y-42546699D02*
X152295955Y-39826699D01*
X152555955Y-42546699D02*
X152305955Y-42546699D01*
X152555955Y-42546699D02*
X152555955Y-43086699D01*
X154125955Y-42546699D02*
X156085955Y-42546699D01*
X155905955Y-39826699D02*
X157915955Y-39826699D01*
X157915955Y-39836699D02*
X157915955Y-42536699D01*
X157915955Y-42546699D02*
X157655955Y-42546699D01*
%TO.C,SW26*%
X140803753Y-39875315D02*
X142813753Y-39875315D01*
X140803753Y-42595315D02*
X140803753Y-39875315D01*
X141063753Y-42595315D02*
X140813753Y-42595315D01*
X141063753Y-42595315D02*
X141063753Y-43135315D01*
X142633753Y-42595315D02*
X144593753Y-42595315D01*
X144413753Y-39875315D02*
X146423753Y-39875315D01*
X146423753Y-39885315D02*
X146423753Y-42585315D01*
X146423753Y-42595315D02*
X146163753Y-42595315D01*
%TO.C,J19*%
X227850000Y-26107500D02*
X235290000Y-26107500D01*
X227850000Y-36147500D02*
X227850000Y-26107500D01*
X235890000Y-26107500D02*
X238250000Y-26107500D01*
X238250000Y-26107500D02*
X238250000Y-36147500D01*
X238250000Y-26727500D02*
X227850000Y-26727500D01*
X238250000Y-28227500D02*
X227850000Y-28227500D01*
X238250000Y-33127500D02*
X227850000Y-33127500D01*
X238250000Y-36147500D02*
X227850000Y-36147500D01*
X235590000Y-26107500D02*
X235150000Y-25497500D01*
X236030000Y-25497500D01*
X235590000Y-26107500D01*
G36*
X235590000Y-26107500D02*
G01*
X235150000Y-25497500D01*
X236030000Y-25497500D01*
X235590000Y-26107500D01*
G37*
%TO.C,J11*%
X158795000Y-139352500D02*
X169195000Y-139352500D01*
X158795000Y-142372500D02*
X169195000Y-142372500D01*
X158795000Y-147272500D02*
X169195000Y-147272500D01*
X158795000Y-148772500D02*
X169195000Y-148772500D01*
X158795000Y-149392500D02*
X158795000Y-139352500D01*
X161155000Y-149392500D02*
X158795000Y-149392500D01*
X169195000Y-139352500D02*
X169195000Y-149392500D01*
X169195000Y-149392500D02*
X161755000Y-149392500D01*
X161895000Y-150002500D02*
X161015000Y-150002500D01*
X161455000Y-149392500D01*
X161895000Y-150002500D01*
G36*
X161895000Y-150002500D02*
G01*
X161015000Y-150002500D01*
X161455000Y-149392500D01*
X161895000Y-150002500D01*
G37*
%TO.C,SW22*%
X186807659Y-39857040D02*
X188817659Y-39857040D01*
X186807659Y-42577040D02*
X186807659Y-39857040D01*
X187067659Y-42577040D02*
X186817659Y-42577040D01*
X187067659Y-42577040D02*
X187067659Y-43117040D01*
X188637659Y-42577040D02*
X190597659Y-42577040D01*
X190417659Y-39857040D02*
X192427659Y-39857040D01*
X192427659Y-39867040D02*
X192427659Y-42567040D01*
X192427659Y-42577040D02*
X192167659Y-42577040D01*
%TO.C,J25*%
X158885000Y-26280000D02*
X166325000Y-26280000D01*
X158885000Y-36320000D02*
X158885000Y-26280000D01*
X166925000Y-26280000D02*
X169285000Y-26280000D01*
X169285000Y-26280000D02*
X169285000Y-36320000D01*
X169285000Y-26900000D02*
X158885000Y-26900000D01*
X169285000Y-28400000D02*
X158885000Y-28400000D01*
X169285000Y-33300000D02*
X158885000Y-33300000D01*
X169285000Y-36320000D02*
X158885000Y-36320000D01*
X166625000Y-26280000D02*
X166185000Y-25670000D01*
X167065000Y-25670000D01*
X166625000Y-26280000D01*
G36*
X166625000Y-26280000D02*
G01*
X166185000Y-25670000D01*
X167065000Y-25670000D01*
X166625000Y-26280000D01*
G37*
%TO.C,SW6*%
X204690000Y-129490000D02*
X204950000Y-129490000D01*
X204690000Y-132200000D02*
X204690000Y-129500000D01*
X206700000Y-132210000D02*
X204690000Y-132210000D01*
X208480000Y-129490000D02*
X206520000Y-129490000D01*
X210050000Y-129490000D02*
X210050000Y-128950000D01*
X210050000Y-129490000D02*
X210300000Y-129490000D01*
X210310000Y-129490000D02*
X210310000Y-132210000D01*
X210310000Y-132210000D02*
X208300000Y-132210000D01*
%TO.C,J9*%
X181795000Y-139352500D02*
X192195000Y-139352500D01*
X181795000Y-142372500D02*
X192195000Y-142372500D01*
X181795000Y-147272500D02*
X192195000Y-147272500D01*
X181795000Y-148772500D02*
X192195000Y-148772500D01*
X181795000Y-149392500D02*
X181795000Y-139352500D01*
X184155000Y-149392500D02*
X181795000Y-149392500D01*
X192195000Y-139352500D02*
X192195000Y-149392500D01*
X192195000Y-149392500D02*
X184755000Y-149392500D01*
X184895000Y-150002500D02*
X184015000Y-150002500D01*
X184455000Y-149392500D01*
X184895000Y-150002500D01*
G36*
X184895000Y-150002500D02*
G01*
X184015000Y-150002500D01*
X184455000Y-149392500D01*
X184895000Y-150002500D01*
G37*
%TO.C,SW7*%
X193190000Y-129490000D02*
X193450000Y-129490000D01*
X193190000Y-132200000D02*
X193190000Y-129500000D01*
X195200000Y-132210000D02*
X193190000Y-132210000D01*
X196980000Y-129490000D02*
X195020000Y-129490000D01*
X198550000Y-129490000D02*
X198550000Y-128950000D01*
X198550000Y-129490000D02*
X198800000Y-129490000D01*
X198810000Y-129490000D02*
X198810000Y-132210000D01*
X198810000Y-132210000D02*
X196800000Y-132210000D01*
%TO.C,J20*%
X216350000Y-26107500D02*
X223790000Y-26107500D01*
X216350000Y-36147500D02*
X216350000Y-26107500D01*
X224390000Y-26107500D02*
X226750000Y-26107500D01*
X226750000Y-26107500D02*
X226750000Y-36147500D01*
X226750000Y-26727500D02*
X216350000Y-26727500D01*
X226750000Y-28227500D02*
X216350000Y-28227500D01*
X226750000Y-33127500D02*
X216350000Y-33127500D01*
X226750000Y-36147500D02*
X216350000Y-36147500D01*
X224090000Y-26107500D02*
X223650000Y-25497500D01*
X224530000Y-25497500D01*
X224090000Y-26107500D01*
G36*
X224090000Y-26107500D02*
G01*
X223650000Y-25497500D01*
X224530000Y-25497500D01*
X224090000Y-26107500D01*
G37*
%TO.C,J3*%
X250795000Y-139352500D02*
X261195000Y-139352500D01*
X250795000Y-142372500D02*
X261195000Y-142372500D01*
X250795000Y-147272500D02*
X261195000Y-147272500D01*
X250795000Y-148772500D02*
X261195000Y-148772500D01*
X250795000Y-149392500D02*
X250795000Y-139352500D01*
X253155000Y-149392500D02*
X250795000Y-149392500D01*
X261195000Y-139352500D02*
X261195000Y-149392500D01*
X261195000Y-149392500D02*
X253755000Y-149392500D01*
X253895000Y-150002500D02*
X253015000Y-150002500D01*
X253455000Y-149392500D01*
X253895000Y-150002500D01*
G36*
X253895000Y-150002500D02*
G01*
X253015000Y-150002500D01*
X253455000Y-149392500D01*
X253895000Y-150002500D01*
G37*
%TO.C,SW20*%
X209755062Y-39884343D02*
X211765062Y-39884343D01*
X209755062Y-42604343D02*
X209755062Y-39884343D01*
X210015062Y-42604343D02*
X209765062Y-42604343D01*
X210015062Y-42604343D02*
X210015062Y-43144343D01*
X211585062Y-42604343D02*
X213545062Y-42604343D01*
X213365062Y-39884343D02*
X215375062Y-39884343D01*
X215375062Y-39894343D02*
X215375062Y-42594343D01*
X215375062Y-42604343D02*
X215115062Y-42604343D01*
%TO.C,J6*%
X216295000Y-139352500D02*
X226695000Y-139352500D01*
X216295000Y-142372500D02*
X226695000Y-142372500D01*
X216295000Y-147272500D02*
X226695000Y-147272500D01*
X216295000Y-148772500D02*
X226695000Y-148772500D01*
X216295000Y-149392500D02*
X216295000Y-139352500D01*
X218655000Y-149392500D02*
X216295000Y-149392500D01*
X226695000Y-139352500D02*
X226695000Y-149392500D01*
X226695000Y-149392500D02*
X219255000Y-149392500D01*
X219395000Y-150002500D02*
X218515000Y-150002500D01*
X218955000Y-149392500D01*
X219395000Y-150002500D01*
G36*
X219395000Y-150002500D02*
G01*
X218515000Y-150002500D01*
X218955000Y-149392500D01*
X219395000Y-150002500D01*
G37*
%TO.C,J29*%
X112885000Y-26280000D02*
X120325000Y-26280000D01*
X112885000Y-36320000D02*
X112885000Y-26280000D01*
X120925000Y-26280000D02*
X123285000Y-26280000D01*
X123285000Y-26280000D02*
X123285000Y-36320000D01*
X123285000Y-26900000D02*
X112885000Y-26900000D01*
X123285000Y-28400000D02*
X112885000Y-28400000D01*
X123285000Y-33300000D02*
X112885000Y-33300000D01*
X123285000Y-36320000D02*
X112885000Y-36320000D01*
X120625000Y-26280000D02*
X120185000Y-25670000D01*
X121065000Y-25670000D01*
X120625000Y-26280000D01*
G36*
X120625000Y-26280000D02*
G01*
X120185000Y-25670000D01*
X121065000Y-25670000D01*
X120625000Y-26280000D01*
G37*
%TO.C,J27*%
X135885000Y-26280000D02*
X143325000Y-26280000D01*
X135885000Y-36320000D02*
X135885000Y-26280000D01*
X143925000Y-26280000D02*
X146285000Y-26280000D01*
X146285000Y-26280000D02*
X146285000Y-36320000D01*
X146285000Y-26900000D02*
X135885000Y-26900000D01*
X146285000Y-28400000D02*
X135885000Y-28400000D01*
X146285000Y-33300000D02*
X135885000Y-33300000D01*
X146285000Y-36320000D02*
X135885000Y-36320000D01*
X143625000Y-26280000D02*
X143185000Y-25670000D01*
X144065000Y-25670000D01*
X143625000Y-26280000D01*
G36*
X143625000Y-26280000D02*
G01*
X143185000Y-25670000D01*
X144065000Y-25670000D01*
X143625000Y-26280000D01*
G37*
%TO.C,SW9*%
X170190000Y-129490000D02*
X170450000Y-129490000D01*
X170190000Y-132200000D02*
X170190000Y-129500000D01*
X172200000Y-132210000D02*
X170190000Y-132210000D01*
X173980000Y-129490000D02*
X172020000Y-129490000D01*
X175550000Y-129490000D02*
X175550000Y-128950000D01*
X175550000Y-129490000D02*
X175800000Y-129490000D01*
X175810000Y-129490000D02*
X175810000Y-132210000D01*
X175810000Y-132210000D02*
X173800000Y-132210000D01*
%TO.C,SW13*%
X124190000Y-129490000D02*
X124450000Y-129490000D01*
X124190000Y-132200000D02*
X124190000Y-129500000D01*
X126200000Y-132210000D02*
X124190000Y-132210000D01*
X127980000Y-129490000D02*
X126020000Y-129490000D01*
X129550000Y-129490000D02*
X129550000Y-128950000D01*
X129550000Y-129490000D02*
X129800000Y-129490000D01*
X129810000Y-129490000D02*
X129810000Y-132210000D01*
X129810000Y-132210000D02*
X127800000Y-132210000D01*
%TO.C,SW19*%
X221258698Y-39922262D02*
X223268698Y-39922262D01*
X221258698Y-42642262D02*
X221258698Y-39922262D01*
X221518698Y-42642262D02*
X221268698Y-42642262D01*
X221518698Y-42642262D02*
X221518698Y-43182262D01*
X223088698Y-42642262D02*
X225048698Y-42642262D01*
X224868698Y-39922262D02*
X226878698Y-39922262D01*
X226878698Y-39932262D02*
X226878698Y-42632262D01*
X226878698Y-42642262D02*
X226618698Y-42642262D01*
%TO.C,SW8*%
X181690000Y-129490000D02*
X181950000Y-129490000D01*
X181690000Y-132200000D02*
X181690000Y-129500000D01*
X183700000Y-132210000D02*
X181690000Y-132210000D01*
X185480000Y-129490000D02*
X183520000Y-129490000D01*
X187050000Y-129490000D02*
X187050000Y-128950000D01*
X187050000Y-129490000D02*
X187300000Y-129490000D01*
X187310000Y-129490000D02*
X187310000Y-132210000D01*
X187310000Y-132210000D02*
X185300000Y-132210000D01*
%TO.C,J26*%
X147385000Y-26280000D02*
X154825000Y-26280000D01*
X147385000Y-36320000D02*
X147385000Y-26280000D01*
X155425000Y-26280000D02*
X157785000Y-26280000D01*
X157785000Y-26280000D02*
X157785000Y-36320000D01*
X157785000Y-26900000D02*
X147385000Y-26900000D01*
X157785000Y-28400000D02*
X147385000Y-28400000D01*
X157785000Y-33300000D02*
X147385000Y-33300000D01*
X157785000Y-36320000D02*
X147385000Y-36320000D01*
X155125000Y-26280000D02*
X154685000Y-25670000D01*
X155565000Y-25670000D01*
X155125000Y-26280000D01*
G36*
X155125000Y-26280000D02*
G01*
X154685000Y-25670000D01*
X155565000Y-25670000D01*
X155125000Y-26280000D01*
G37*
%TO.C,SW27*%
X129328029Y-39831013D02*
X131338029Y-39831013D01*
X129328029Y-42551013D02*
X129328029Y-39831013D01*
X129588029Y-42551013D02*
X129338029Y-42551013D01*
X129588029Y-42551013D02*
X129588029Y-43091013D01*
X131158029Y-42551013D02*
X133118029Y-42551013D01*
X132938029Y-39831013D02*
X134948029Y-39831013D01*
X134948029Y-39841013D02*
X134948029Y-42541013D01*
X134948029Y-42551013D02*
X134688029Y-42551013D01*
%TO.C,SW3*%
X239190000Y-129490000D02*
X239450000Y-129490000D01*
X239190000Y-132200000D02*
X239190000Y-129500000D01*
X241200000Y-132210000D02*
X239190000Y-132210000D01*
X242980000Y-129490000D02*
X241020000Y-129490000D01*
X244550000Y-129490000D02*
X244550000Y-128950000D01*
X244550000Y-129490000D02*
X244800000Y-129490000D01*
X244810000Y-129490000D02*
X244810000Y-132210000D01*
X244810000Y-132210000D02*
X242800000Y-132210000D01*
%TO.C,J7*%
X204795000Y-139352500D02*
X215195000Y-139352500D01*
X204795000Y-142372500D02*
X215195000Y-142372500D01*
X204795000Y-147272500D02*
X215195000Y-147272500D01*
X204795000Y-148772500D02*
X215195000Y-148772500D01*
X204795000Y-149392500D02*
X204795000Y-139352500D01*
X207155000Y-149392500D02*
X204795000Y-149392500D01*
X215195000Y-139352500D02*
X215195000Y-149392500D01*
X215195000Y-149392500D02*
X207755000Y-149392500D01*
X207895000Y-150002500D02*
X207015000Y-150002500D01*
X207455000Y-149392500D01*
X207895000Y-150002500D01*
G36*
X207895000Y-150002500D02*
G01*
X207015000Y-150002500D01*
X207455000Y-149392500D01*
X207895000Y-150002500D01*
G37*
%TO.C,J5*%
X227795000Y-139352500D02*
X238195000Y-139352500D01*
X227795000Y-142372500D02*
X238195000Y-142372500D01*
X227795000Y-147272500D02*
X238195000Y-147272500D01*
X227795000Y-148772500D02*
X238195000Y-148772500D01*
X227795000Y-149392500D02*
X227795000Y-139352500D01*
X230155000Y-149392500D02*
X227795000Y-149392500D01*
X238195000Y-139352500D02*
X238195000Y-149392500D01*
X238195000Y-149392500D02*
X230755000Y-149392500D01*
X230895000Y-150002500D02*
X230015000Y-150002500D01*
X230455000Y-149392500D01*
X230895000Y-150002500D01*
G36*
X230895000Y-150002500D02*
G01*
X230015000Y-150002500D01*
X230455000Y-149392500D01*
X230895000Y-150002500D01*
G37*
%TO.C,SW4*%
X227690000Y-129490000D02*
X227950000Y-129490000D01*
X227690000Y-132200000D02*
X227690000Y-129500000D01*
X229700000Y-132210000D02*
X227690000Y-132210000D01*
X231480000Y-129490000D02*
X229520000Y-129490000D01*
X233050000Y-129490000D02*
X233050000Y-128950000D01*
X233050000Y-129490000D02*
X233300000Y-129490000D01*
X233310000Y-129490000D02*
X233310000Y-132210000D01*
X233310000Y-132210000D02*
X231300000Y-132210000D01*
%TO.C,J12*%
X147295000Y-139352500D02*
X157695000Y-139352500D01*
X147295000Y-142372500D02*
X157695000Y-142372500D01*
X147295000Y-147272500D02*
X157695000Y-147272500D01*
X147295000Y-148772500D02*
X157695000Y-148772500D01*
X147295000Y-149392500D02*
X147295000Y-139352500D01*
X149655000Y-149392500D02*
X147295000Y-149392500D01*
X157695000Y-139352500D02*
X157695000Y-149392500D01*
X157695000Y-149392500D02*
X150255000Y-149392500D01*
X150395000Y-150002500D02*
X149515000Y-150002500D01*
X149955000Y-149392500D01*
X150395000Y-150002500D01*
G36*
X150395000Y-150002500D02*
G01*
X149515000Y-150002500D01*
X149955000Y-149392500D01*
X150395000Y-150002500D01*
G37*
%TO.C,J8*%
X193295000Y-139352500D02*
X203695000Y-139352500D01*
X193295000Y-142372500D02*
X203695000Y-142372500D01*
X193295000Y-147272500D02*
X203695000Y-147272500D01*
X193295000Y-148772500D02*
X203695000Y-148772500D01*
X193295000Y-149392500D02*
X193295000Y-139352500D01*
X195655000Y-149392500D02*
X193295000Y-149392500D01*
X203695000Y-139352500D02*
X203695000Y-149392500D01*
X203695000Y-149392500D02*
X196255000Y-149392500D01*
X196395000Y-150002500D02*
X195515000Y-150002500D01*
X195955000Y-149392500D01*
X196395000Y-150002500D01*
G36*
X196395000Y-150002500D02*
G01*
X195515000Y-150002500D01*
X195955000Y-149392500D01*
X196395000Y-150002500D01*
G37*
%TO.C,SW11*%
X147190000Y-129490000D02*
X147450000Y-129490000D01*
X147190000Y-132200000D02*
X147190000Y-129500000D01*
X149200000Y-132210000D02*
X147190000Y-132210000D01*
X150980000Y-129490000D02*
X149020000Y-129490000D01*
X152550000Y-129490000D02*
X152550000Y-128950000D01*
X152550000Y-129490000D02*
X152800000Y-129490000D01*
X152810000Y-129490000D02*
X152810000Y-132210000D01*
X152810000Y-132210000D02*
X150800000Y-132210000D01*
%TO.C,J28*%
X124385000Y-26280000D02*
X131825000Y-26280000D01*
X124385000Y-36320000D02*
X124385000Y-26280000D01*
X132425000Y-26280000D02*
X134785000Y-26280000D01*
X134785000Y-26280000D02*
X134785000Y-36320000D01*
X134785000Y-26900000D02*
X124385000Y-26900000D01*
X134785000Y-28400000D02*
X124385000Y-28400000D01*
X134785000Y-33300000D02*
X124385000Y-33300000D01*
X134785000Y-36320000D02*
X124385000Y-36320000D01*
X132125000Y-26280000D02*
X131685000Y-25670000D01*
X132565000Y-25670000D01*
X132125000Y-26280000D01*
G36*
X132125000Y-26280000D02*
G01*
X131685000Y-25670000D01*
X132565000Y-25670000D01*
X132125000Y-26280000D01*
G37*
%TO.C,SW2*%
X250690000Y-129490000D02*
X250950000Y-129490000D01*
X250690000Y-132200000D02*
X250690000Y-129500000D01*
X252700000Y-132210000D02*
X250690000Y-132210000D01*
X254480000Y-129490000D02*
X252520000Y-129490000D01*
X256050000Y-129490000D02*
X256050000Y-128950000D01*
X256050000Y-129490000D02*
X256300000Y-129490000D01*
X256310000Y-129490000D02*
X256310000Y-132210000D01*
X256310000Y-132210000D02*
X254300000Y-132210000D01*
%TO.C,SW1*%
X262190000Y-129490000D02*
X262450000Y-129490000D01*
X262190000Y-132200000D02*
X262190000Y-129500000D01*
X264200000Y-132210000D02*
X262190000Y-132210000D01*
X265980000Y-129490000D02*
X264020000Y-129490000D01*
X267550000Y-129490000D02*
X267550000Y-128950000D01*
X267550000Y-129490000D02*
X267800000Y-129490000D01*
X267810000Y-129490000D02*
X267810000Y-132210000D01*
X267810000Y-132210000D02*
X265800000Y-132210000D01*
%TO.C,SW23*%
X175330867Y-39842231D02*
X177340867Y-39842231D01*
X175330867Y-42562231D02*
X175330867Y-39842231D01*
X175590867Y-42562231D02*
X175340867Y-42562231D01*
X175590867Y-42562231D02*
X175590867Y-43102231D01*
X177160867Y-42562231D02*
X179120867Y-42562231D01*
X178940867Y-39842231D02*
X180950867Y-39842231D01*
X180950867Y-39852231D02*
X180950867Y-42552231D01*
X180950867Y-42562231D02*
X180690867Y-42562231D01*
%TO.C,J16*%
X262305000Y-26107500D02*
X269745000Y-26107500D01*
X262305000Y-36147500D02*
X262305000Y-26107500D01*
X270345000Y-26107500D02*
X272705000Y-26107500D01*
X272705000Y-26107500D02*
X272705000Y-36147500D01*
X272705000Y-26727500D02*
X262305000Y-26727500D01*
X272705000Y-28227500D02*
X262305000Y-28227500D01*
X272705000Y-33127500D02*
X262305000Y-33127500D01*
X272705000Y-36147500D02*
X262305000Y-36147500D01*
X270045000Y-26107500D02*
X269605000Y-25497500D01*
X270485000Y-25497500D01*
X270045000Y-26107500D01*
G36*
X270045000Y-26107500D02*
G01*
X269605000Y-25497500D01*
X270485000Y-25497500D01*
X270045000Y-26107500D01*
G37*
%TO.C,SW24*%
X163819258Y-39846364D02*
X165829258Y-39846364D01*
X163819258Y-42566364D02*
X163819258Y-39846364D01*
X164079258Y-42566364D02*
X163829258Y-42566364D01*
X164079258Y-42566364D02*
X164079258Y-43106364D01*
X165649258Y-42566364D02*
X167609258Y-42566364D01*
X167429258Y-39846364D02*
X169439258Y-39846364D01*
X169439258Y-39856364D02*
X169439258Y-42556364D01*
X169439258Y-42566364D02*
X169179258Y-42566364D01*
%TO.C,Raspberry Pi*%
D10*
X187000000Y-60500000D02*
X274000000Y-60500000D01*
X274000000Y-116500000D01*
X187000000Y-116500000D01*
X187000000Y-60500000D01*
D12*
%TO.C,J18*%
X239305000Y-26107500D02*
X246745000Y-26107500D01*
X239305000Y-36147500D02*
X239305000Y-26107500D01*
X247345000Y-26107500D02*
X249705000Y-26107500D01*
X249705000Y-26107500D02*
X249705000Y-36147500D01*
X249705000Y-26727500D02*
X239305000Y-26727500D01*
X249705000Y-28227500D02*
X239305000Y-28227500D01*
X249705000Y-33127500D02*
X239305000Y-33127500D01*
X249705000Y-36147500D02*
X239305000Y-36147500D01*
X247045000Y-26107500D02*
X246605000Y-25497500D01*
X247485000Y-25497500D01*
X247045000Y-26107500D01*
G36*
X247045000Y-26107500D02*
G01*
X246605000Y-25497500D01*
X247485000Y-25497500D01*
X247045000Y-26107500D01*
G37*
%TO.C,SW16*%
X255773236Y-39953442D02*
X257783236Y-39953442D01*
X255773236Y-42673442D02*
X255773236Y-39953442D01*
X256033236Y-42673442D02*
X255783236Y-42673442D01*
X256033236Y-42673442D02*
X256033236Y-43213442D01*
X257603236Y-42673442D02*
X259563236Y-42673442D01*
X259383236Y-39953442D02*
X261393236Y-39953442D01*
X261393236Y-39963442D02*
X261393236Y-42663442D01*
X261393236Y-42673442D02*
X261133236Y-42673442D01*
%TO.C,J22*%
X193350000Y-26107500D02*
X200790000Y-26107500D01*
X193350000Y-36147500D02*
X193350000Y-26107500D01*
X201390000Y-26107500D02*
X203750000Y-26107500D01*
X203750000Y-26107500D02*
X203750000Y-36147500D01*
X203750000Y-26727500D02*
X193350000Y-26727500D01*
X203750000Y-28227500D02*
X193350000Y-28227500D01*
X203750000Y-33127500D02*
X193350000Y-33127500D01*
X203750000Y-36147500D02*
X193350000Y-36147500D01*
X201090000Y-26107500D02*
X200650000Y-25497500D01*
X201530000Y-25497500D01*
X201090000Y-26107500D01*
G36*
X201090000Y-26107500D02*
G01*
X200650000Y-25497500D01*
X201530000Y-25497500D01*
X201090000Y-26107500D01*
G37*
%TO.C,SW14*%
X112690000Y-129490000D02*
X112950000Y-129490000D01*
X112690000Y-132200000D02*
X112690000Y-129500000D01*
X114700000Y-132210000D02*
X112690000Y-132210000D01*
X116480000Y-129490000D02*
X114520000Y-129490000D01*
X118050000Y-129490000D02*
X118050000Y-128950000D01*
X118050000Y-129490000D02*
X118300000Y-129490000D01*
X118310000Y-129490000D02*
X118310000Y-132210000D01*
X118310000Y-132210000D02*
X116300000Y-132210000D01*
%TO.C,J2*%
X262260000Y-139352500D02*
X272660000Y-139352500D01*
X262260000Y-142372500D02*
X272660000Y-142372500D01*
X262260000Y-147272500D02*
X272660000Y-147272500D01*
X262260000Y-148772500D02*
X272660000Y-148772500D01*
X262260000Y-149392500D02*
X262260000Y-139352500D01*
X264620000Y-149392500D02*
X262260000Y-149392500D01*
X272660000Y-139352500D02*
X272660000Y-149392500D01*
X272660000Y-149392500D02*
X265220000Y-149392500D01*
X265360000Y-150002500D02*
X264480000Y-150002500D01*
X264920000Y-149392500D01*
X265360000Y-150002500D01*
G36*
X265360000Y-150002500D02*
G01*
X264480000Y-150002500D01*
X264920000Y-149392500D01*
X265360000Y-150002500D01*
G37*
%TD*%
M02*
