M48
; DRILL file {KiCad 9.0.6} date 2025-11-24T11:10:27+0100
; FORMAT={-:-/ absolute / metric / decimal}
; #@! TF.CreationDate,2025-11-24T11:10:27+01:00
; #@! TF.GenerationSoftware,Kicad,Pcbnew,9.0.6
; #@! TF.FileFunction,Plated,1,2,PTH
FMAT,2
METRIC
; #@! TA.AperFunction,Plated,PTH,ViaDrill
T1C0.300
; #@! TA.AperFunction,Plated,PTH,ComponentDrill
T2C1.000
; #@! TA.AperFunction,Plated,PTH,ComponentDrill
T3C1.300
%
G90
G05
T1
X117.25Y-127.5
X118.878Y-44.878
X121.0Y-48.0
X128.7Y-127.463
X130.4Y-44.89
X132.0Y-126.0
X140.5Y-127.5
X141.873Y-44.89
X151.756Y-127.5
X152.5Y-46.0
X153.368Y-44.89
X155.0Y-124.0
X163.0Y-47.5
X163.238Y-127.5
X164.889Y-44.89
X166.5Y-123.8
X174.745Y-127.5
X176.411Y-44.89
X178.0Y-120.5
X184.0Y-112.5
X186.254Y-127.5
X187.0Y-46.0
X187.879Y-44.89
X197.763Y-127.5
X199.374Y-44.89
X200.05Y-46.58
X201.0Y-102.0
X209.241Y-127.5
X209.825Y-49.406
X209.907Y-50.601
X209.92Y-83.08
X210.816Y-44.89
X212.1Y-47.1
X212.5Y-87.96
X215.144Y-48.92
X216.5Y-66.0
X220.0Y-51.0
X220.75Y-127.5
X221.0Y-51.0
X222.337Y-44.89
X222.826Y-51.174
X223.0Y-82.5
X225.0Y-49.0
X232.259Y-127.5
X233.872Y-44.89
X235.4Y-77.5
X235.5Y-125.0
X237.951Y-60.5
X243.768Y-127.5
X245.216Y-44.89
X245.77Y-47.23
X255.246Y-127.5
X256.843Y-44.89
X266.698Y-127.5
X268.226Y-44.89
T2
X208.86Y-53.5
X208.86Y-56.04
X211.4Y-53.5
X211.4Y-56.04
X213.94Y-53.5
X213.94Y-56.04
X216.48Y-53.5
X216.48Y-56.04
X219.02Y-53.5
X219.02Y-56.04
X221.56Y-53.5
X221.56Y-56.04
X224.1Y-53.5
X224.1Y-56.04
X226.64Y-53.5
X226.64Y-56.04
X229.18Y-53.5
X229.18Y-56.04
X231.72Y-53.5
X231.72Y-56.04
X234.26Y-53.5
X234.26Y-56.04
X236.8Y-53.5
X236.8Y-56.04
X239.34Y-53.5
X239.34Y-56.04
X241.88Y-53.5
X241.88Y-56.04
X244.42Y-53.5
X244.42Y-56.04
X246.96Y-53.5
X246.96Y-56.04
X249.5Y-53.5
X249.5Y-56.04
X252.04Y-53.5
X252.04Y-56.04
X254.58Y-53.5
X254.58Y-56.04
X257.12Y-53.5
X257.12Y-56.04
T3
X115.5Y-144.672
X115.545Y-31.0
X120.58Y-144.672
X120.625Y-31.0
X126.955Y-144.672
X127.045Y-31.0
X132.035Y-144.672
X132.125Y-31.0
X138.455Y-144.672
X138.545Y-31.0
X143.535Y-144.672
X143.625Y-31.0
X149.955Y-144.672
X150.045Y-31.0
X155.035Y-144.672
X155.125Y-31.0
X161.455Y-144.672
X161.545Y-31.0
X166.535Y-144.672
X166.625Y-31.0
X172.955Y-144.672
X173.045Y-31.0
X178.035Y-144.672
X178.125Y-31.0
X184.455Y-144.672
X184.545Y-31.0
X189.535Y-144.672
X189.625Y-31.0
X195.955Y-144.672
X196.01Y-30.827
X201.035Y-144.672
X201.09Y-30.827
X207.455Y-144.672
X207.51Y-30.827
X212.535Y-144.672
X212.59Y-30.827
X218.955Y-144.672
X219.01Y-30.827
X224.035Y-144.672
X224.09Y-30.827
X230.455Y-144.672
X230.51Y-30.827
X235.535Y-144.672
X235.59Y-30.827
X241.955Y-144.672
X241.965Y-30.827
X247.035Y-144.672
X247.045Y-30.827
X253.455Y-144.672
X253.465Y-30.827
X258.535Y-144.672
X258.545Y-30.827
X264.92Y-144.672
X264.965Y-30.827
X270.0Y-144.672
X270.045Y-30.827
M30
