%TF.GenerationSoftware,KiCad,Pcbnew,9.0.6*%
%TF.CreationDate,2025-11-21T11:29:12+01:00*%
%TF.ProjectId,BluPi,426c7550-692e-46b6-9963-61645f706362,1*%
%TF.SameCoordinates,Original*%
%TF.FileFunction,Copper,L1,Top*%
%TF.FilePolarity,Positive*%
%FSLAX46Y46*%
G04 Gerber Fmt 4.6, Leading zero omitted, Abs format (unit mm)*
G04 Created by KiCad (PCBNEW 9.0.6) date 2025-11-21 11:29:12*
%MOMM*%
%LPD*%
G01*
G04 APERTURE LIST*
G04 Aperture macros list*
%AMRoundRect*
0 Rectangle with rounded corners*
0 $1 Rounding radius*
0 $2 $3 $4 $5 $6 $7 $8 $9 X,Y pos of 4 corners*
0 Add a 4 corners polygon primitive as box body*
4,1,4,$2,$3,$4,$5,$6,$7,$8,$9,$2,$3,0*
0 Add four circle primitives for the rounded corners*
1,1,$1+$1,$2,$3*
1,1,$1+$1,$4,$5*
1,1,$1+$1,$6,$7*
1,1,$1+$1,$8,$9*
0 Add four rect primitives between the rounded corners*
20,1,$1+$1,$2,$3,$4,$5,0*
20,1,$1+$1,$4,$5,$6,$7,0*
20,1,$1+$1,$6,$7,$8,$9,0*
20,1,$1+$1,$8,$9,$2,$3,0*%
G04 Aperture macros list end*
%TA.AperFunction,SMDPad,CuDef*%
%ADD10RoundRect,0.100000X0.217500X0.100000X-0.217500X0.100000X-0.217500X-0.100000X0.217500X-0.100000X0*%
%TD*%
%TA.AperFunction,ComponentPad*%
%ADD11RoundRect,0.250000X-1.050000X-1.050000X1.050000X-1.050000X1.050000X1.050000X-1.050000X1.050000X0*%
%TD*%
%TA.AperFunction,ComponentPad*%
%ADD12C,2.600000*%
%TD*%
%TA.AperFunction,ComponentPad*%
%ADD13RoundRect,0.250000X1.050000X1.050000X-1.050000X1.050000X-1.050000X-1.050000X1.050000X-1.050000X0*%
%TD*%
%TA.AperFunction,SMDPad,CuDef*%
%ADD14RoundRect,0.250000X0.250000X0.550000X-0.250000X0.550000X-0.250000X-0.550000X0.250000X-0.550000X0*%
%TD*%
%TA.AperFunction,SMDPad,CuDef*%
%ADD15RoundRect,0.250000X-0.250000X-0.550000X0.250000X-0.550000X0.250000X0.550000X-0.250000X0.550000X0*%
%TD*%
%TA.AperFunction,ComponentPad*%
%ADD16R,1.700000X1.700000*%
%TD*%
%TA.AperFunction,ComponentPad*%
%ADD17C,1.700000*%
%TD*%
%TA.AperFunction,ViaPad*%
%ADD18C,0.600000*%
%TD*%
%TA.AperFunction,Conductor*%
%ADD19C,0.200000*%
%TD*%
G04 APERTURE END LIST*
D10*
%TO.P,R3,1*%
%TO.N,Net-(SW1-A)*%
X247907500Y-131000000D03*
%TO.P,R3,2*%
%TO.N,Net-(J1-SDA_I2C1{slash}GPIO02)*%
X247092500Y-131000000D03*
%TD*%
D11*
%TO.P,J4,1,Pin_1*%
%TO.N,Net-(J4-Pin_1)*%
X241955000Y-144672500D03*
D12*
%TO.P,J4,2,Pin_2*%
%TO.N,Net-(J1-SDA_I2C1{slash}GPIO02)*%
X247035000Y-144672500D03*
%TD*%
D10*
%TO.P,R1,1*%
%TO.N,Net-(SW1-A)*%
X270840000Y-131000000D03*
%TO.P,R1,2*%
%TO.N,Net-(J1-ID_SD_I2C0{slash}GPIO00)*%
X270025000Y-131000000D03*
%TD*%
%TO.P,R19,1*%
%TO.N,Net-(SW1-A)*%
X219802898Y-41276068D03*
%TO.P,R19,2*%
%TO.N,Net-(J1-GPIO18{slash}SPI1_~{CE0}{slash}PCM_CLK{slash}PWM0)*%
X218987898Y-41276068D03*
%TD*%
D13*
%TO.P,J21,1,Pin_1*%
%TO.N,Net-(J21-Pin_1)*%
X212590000Y-30827500D03*
D12*
%TO.P,J21,2,Pin_2*%
%TO.N,Net-(J1-GPIO19{slash}SPI1_MISO{slash}PCM_FS)*%
X207510000Y-30827500D03*
%TD*%
D13*
%TO.P,J23,1,Pin_1*%
%TO.N,Net-(J23-Pin_1)*%
X189625000Y-31000000D03*
D12*
%TO.P,J23,2,Pin_2*%
%TO.N,Net-(J1-GPIO21{slash}SPI1_SCLK{slash}PCM_DOUT)*%
X184545000Y-31000000D03*
%TD*%
D11*
%TO.P,J13,1,Pin_1*%
%TO.N,Net-(J13-Pin_1)*%
X138455000Y-144672500D03*
D12*
%TO.P,J13,2,Pin_2*%
%TO.N,Net-(J1-SCLK_SPI0{slash}GPIO11)*%
X143535000Y-144672500D03*
%TD*%
D14*
%TO.P,SW10,1,C*%
%TO.N,Net-(SW1-C)*%
X163250000Y-129700000D03*
%TO.P,SW10,2,B*%
%TO.N,Net-(J11-Pin_1)*%
X161500000Y-132000000D03*
%TO.P,SW10,3,A*%
%TO.N,Net-(SW1-A)*%
X159750000Y-129700000D03*
%TD*%
D13*
%TO.P,J24,1,Pin_1*%
%TO.N,Net-(J24-Pin_1)*%
X178125000Y-31000000D03*
D12*
%TO.P,J24,2,Pin_2*%
%TO.N,Net-(J1-GPIO22{slash}SDIO_CLK)*%
X173045000Y-31000000D03*
%TD*%
D13*
%TO.P,J17,1,Pin_1*%
%TO.N,Net-(J17-Pin_1)*%
X258545000Y-30827500D03*
D12*
%TO.P,J17,2,Pin_2*%
%TO.N,Net-(J1-GPIO15{slash}UART_RXD)*%
X253465000Y-30827500D03*
%TD*%
D10*
%TO.P,R10,1*%
%TO.N,Net-(SW1-A)*%
X167340000Y-131000000D03*
%TO.P,R10,2*%
%TO.N,Net-(J1-MISO_SPI0{slash}GPIO09)*%
X166525000Y-131000000D03*
%TD*%
D14*
%TO.P,SW12,1,C*%
%TO.N,Net-(SW1-C)*%
X140500000Y-129700000D03*
%TO.P,SW12,2,B*%
%TO.N,Net-(J13-Pin_1)*%
X138750000Y-132000000D03*
%TO.P,SW12,3,A*%
%TO.N,Net-(SW1-A)*%
X137000000Y-129700000D03*
%TD*%
D15*
%TO.P,SW18,1,C*%
%TO.N,Net-(SW1-C)*%
X233860409Y-42422738D03*
%TO.P,SW18,2,B*%
%TO.N,Net-(J19-Pin_1)*%
X235610409Y-40122738D03*
%TO.P,SW18,3,A*%
%TO.N,Net-(SW1-A)*%
X237360409Y-42422738D03*
%TD*%
D10*
%TO.P,R20,1*%
%TO.N,Net-(SW1-A)*%
X208293748Y-41197701D03*
%TO.P,R20,2*%
%TO.N,Net-(J1-GPIO19{slash}SPI1_MISO{slash}PCM_FS)*%
X207478748Y-41197701D03*
%TD*%
D14*
%TO.P,SW5,1,C*%
%TO.N,Net-(SW1-C)*%
X220750000Y-129700000D03*
%TO.P,SW5,2,B*%
%TO.N,Net-(J6-Pin_1)*%
X219000000Y-132000000D03*
%TO.P,SW5,3,A*%
%TO.N,Net-(SW1-A)*%
X217250000Y-129700000D03*
%TD*%
D10*
%TO.P,R4,1*%
%TO.N,Net-(SW1-A)*%
X236315000Y-131000000D03*
%TO.P,R4,2*%
%TO.N,Net-(J1-SCL_I2C1{slash}GPIO03)*%
X235500000Y-131000000D03*
%TD*%
%TO.P,R6,1*%
%TO.N,Net-(SW1-A)*%
X213340000Y-131000000D03*
%TO.P,R6,2*%
%TO.N,Net-(J1-GPCLK1{slash}GPIO05)*%
X212525000Y-131000000D03*
%TD*%
D11*
%TO.P,J14,1,Pin_1*%
%TO.N,Net-(J14-Pin_1)*%
X126955000Y-144672500D03*
D12*
%TO.P,J14,2,Pin_2*%
%TO.N,Net-(J1-GPIO12{slash}PWM0)*%
X132035000Y-144672500D03*
%TD*%
D15*
%TO.P,SW21,1,C*%
%TO.N,Net-(SW1-C)*%
X199348268Y-42383708D03*
%TO.P,SW21,2,B*%
%TO.N,Net-(J22-Pin_1)*%
X201098268Y-40083708D03*
%TO.P,SW21,3,A*%
%TO.N,Net-(SW1-A)*%
X202848268Y-42383708D03*
%TD*%
D10*
%TO.P,R18,1*%
%TO.N,Net-(SW1-A)*%
X231277887Y-41272738D03*
%TO.P,R18,2*%
%TO.N,Net-(J1-GPIO17{slash}SPI1_~{CE1})*%
X230462887Y-41272738D03*
%TD*%
D16*
%TO.P,J1,1,3V3*%
%TO.N,Net-(SW1-C)*%
X208860000Y-56040000D03*
D17*
%TO.P,J1,2,5V*%
%TO.N,Net-(J1-5V-Pad2)*%
X208860000Y-53500000D03*
%TO.P,J1,3,SDA_I2C1/GPIO02*%
%TO.N,Net-(J1-SDA_I2C1{slash}GPIO02)*%
X211400000Y-56040000D03*
%TO.P,J1,4,5V*%
%TO.N,Net-(J1-5V-Pad2)*%
X211400000Y-53500000D03*
%TO.P,J1,5,SCL_I2C1/GPIO03*%
%TO.N,Net-(J1-SCL_I2C1{slash}GPIO03)*%
X213940000Y-56040000D03*
%TO.P,J1,6,GND*%
%TO.N,Net-(SW1-A)*%
X213940000Y-53500000D03*
%TO.P,J1,7,GPCLK0/GPIO04*%
%TO.N,Net-(J1-GPCLK0{slash}GPIO04)*%
X216480000Y-56040000D03*
%TO.P,J1,8,GPIO14/UART_TXD*%
%TO.N,Net-(J1-GPIO14{slash}UART_TXD)*%
X216480000Y-53500000D03*
%TO.P,J1,9,GND*%
%TO.N,Net-(SW1-A)*%
X219020000Y-56040000D03*
%TO.P,J1,10,GPIO15/UART_RXD*%
%TO.N,Net-(J1-GPIO15{slash}UART_RXD)*%
X219020000Y-53500000D03*
%TO.P,J1,11,GPIO17/SPI1_~{CE1}*%
%TO.N,Net-(J1-GPIO17{slash}SPI1_~{CE1})*%
X221560000Y-56040000D03*
%TO.P,J1,12,GPIO18/SPI1_~{CE0}/PCM_CLK/PWM0*%
%TO.N,Net-(J1-GPIO18{slash}SPI1_~{CE0}{slash}PCM_CLK{slash}PWM0)*%
X221560000Y-53500000D03*
%TO.P,J1,13,GPIO27/SDIO_DAT3*%
%TO.N,Net-(J1-GPIO27{slash}SDIO_DAT3)*%
X224100000Y-56040000D03*
%TO.P,J1,14,GND*%
%TO.N,Net-(SW1-A)*%
X224100000Y-53500000D03*
%TO.P,J1,15,GPIO22/SDIO_CLK*%
%TO.N,Net-(J1-GPIO22{slash}SDIO_CLK)*%
X226640000Y-56040000D03*
%TO.P,J1,16,GPIO23/SDIO_CMD*%
%TO.N,Net-(J1-GPIO23{slash}SDIO_CMD)*%
X226640000Y-53500000D03*
%TO.P,J1,17,3V3*%
%TO.N,Net-(SW1-C)*%
X229180000Y-56040000D03*
%TO.P,J1,18,GPIO24/SDIO_DAT0*%
%TO.N,Net-(J1-GPIO24{slash}SDIO_DAT0)*%
X229180000Y-53500000D03*
%TO.P,J1,19,MOSI_SPI0/GPIO10*%
%TO.N,Net-(J1-MOSI_SPI0{slash}GPIO10)*%
X231720000Y-56040000D03*
%TO.P,J1,20,GND*%
%TO.N,Net-(SW1-A)*%
X231720000Y-53500000D03*
%TO.P,J1,21,MISO_SPI0/GPIO09*%
%TO.N,Net-(J1-MISO_SPI0{slash}GPIO09)*%
X234260000Y-56040000D03*
%TO.P,J1,22,GPIO25/SDIO_DAT1*%
%TO.N,Net-(J1-GPIO25{slash}SDIO_DAT1)*%
X234260000Y-53500000D03*
%TO.P,J1,23,SCLK_SPI0/GPIO11*%
%TO.N,Net-(J1-SCLK_SPI0{slash}GPIO11)*%
X236800000Y-56040000D03*
%TO.P,J1,24,~{CE0}_SPI0/GPIO08*%
%TO.N,Net-(J1-~{CE0}_SPI0{slash}GPIO08)*%
X236800000Y-53500000D03*
%TO.P,J1,25,GND*%
%TO.N,Net-(SW1-A)*%
X239340000Y-56040000D03*
%TO.P,J1,26,~{CE1}_SPI0/GPIO07*%
%TO.N,Net-(J1-~{CE1}_SPI0{slash}GPIO07)*%
X239340000Y-53500000D03*
%TO.P,J1,27,ID_SD_I2C0/GPIO00*%
%TO.N,Net-(J1-ID_SD_I2C0{slash}GPIO00)*%
X241880000Y-56040000D03*
%TO.P,J1,28,ID_SC_I2C0/GPIO01*%
%TO.N,Net-(J1-ID_SC_I2C0{slash}GPIO01)*%
X241880000Y-53500000D03*
%TO.P,J1,29,GPCLK1/GPIO05*%
%TO.N,Net-(J1-GPCLK1{slash}GPIO05)*%
X244420000Y-56040000D03*
%TO.P,J1,30,GND*%
%TO.N,Net-(SW1-A)*%
X244420000Y-53500000D03*
%TO.P,J1,31,GPCLK2/GPIO06*%
%TO.N,Net-(J1-GPCLK2{slash}GPIO06)*%
X246960000Y-56040000D03*
%TO.P,J1,32,GPIO12/PWM0*%
%TO.N,Net-(J1-GPIO12{slash}PWM0)*%
X246960000Y-53500000D03*
%TO.P,J1,33,GPIO13/PWM1*%
%TO.N,Net-(J1-GPIO13{slash}PWM1)*%
X249500000Y-56040000D03*
%TO.P,J1,34,GND*%
%TO.N,Net-(SW1-A)*%
X249500000Y-53500000D03*
%TO.P,J1,35,GPIO19/SPI1_MISO/PCM_FS*%
%TO.N,Net-(J1-GPIO19{slash}SPI1_MISO{slash}PCM_FS)*%
X252040000Y-56040000D03*
%TO.P,J1,36,GPIO16/SPI1_~{CE2}*%
%TO.N,Net-(J1-GPIO16{slash}SPI1_~{CE2})*%
X252040000Y-53500000D03*
%TO.P,J1,37,GPIO26/SDIO_DAT2*%
%TO.N,Net-(J1-GPIO26{slash}SDIO_DAT2)*%
X254580000Y-56040000D03*
%TO.P,J1,38,GPIO20/SPI1_MOSI/PCM_DIN/PWM1*%
%TO.N,Net-(J1-GPIO20{slash}SPI1_MOSI{slash}PCM_DIN{slash}PWM1)*%
X254580000Y-53500000D03*
%TO.P,J1,39,GND*%
%TO.N,Net-(SW1-A)*%
X257120000Y-56040000D03*
%TO.P,J1,40,GPIO21/SPI1_SCLK/PCM_DOUT*%
%TO.N,Net-(J1-GPIO21{slash}SPI1_SCLK{slash}PCM_DOUT)*%
X257120000Y-53500000D03*
%TD*%
D15*
%TO.P,SW15,1,C*%
%TO.N,Net-(SW1-C)*%
X268242029Y-42605073D03*
%TO.P,SW15,2,B*%
%TO.N,Net-(J16-Pin_1)*%
X269992029Y-40305073D03*
%TO.P,SW15,3,A*%
%TO.N,Net-(SW1-A)*%
X271742029Y-42605073D03*
%TD*%
D11*
%TO.P,J10,1,Pin_1*%
%TO.N,Net-(J10-Pin_1)*%
X172955000Y-144672500D03*
D12*
%TO.P,J10,2,Pin_2*%
%TO.N,Net-(J1-~{CE0}_SPI0{slash}GPIO08)*%
X178035000Y-144672500D03*
%TD*%
D10*
%TO.P,R26,1*%
%TO.N,Net-(SW1-A)*%
X139335843Y-41198992D03*
%TO.P,R26,2*%
%TO.N,Net-(J1-GPIO25{slash}SDIO_DAT1)*%
X138520843Y-41198992D03*
%TD*%
D15*
%TO.P,SW17,1,C*%
%TO.N,Net-(SW1-C)*%
X245228613Y-42427048D03*
%TO.P,SW17,2,B*%
%TO.N,Net-(J18-Pin_1)*%
X246978613Y-40127048D03*
%TO.P,SW17,3,A*%
%TO.N,Net-(SW1-A)*%
X248728613Y-42427048D03*
%TD*%
%TO.P,SW28,1,C*%
%TO.N,Net-(SW1-C)*%
X118877608Y-42366880D03*
%TO.P,SW28,2,B*%
%TO.N,Net-(J29-Pin_1)*%
X120627608Y-40066880D03*
%TO.P,SW28,3,A*%
%TO.N,Net-(SW1-A)*%
X122377608Y-42366880D03*
%TD*%
D11*
%TO.P,J15,1,Pin_1*%
%TO.N,Net-(J15-Pin_1)*%
X115500000Y-144672500D03*
D12*
%TO.P,J15,2,Pin_2*%
%TO.N,Net-(J1-GPIO13{slash}PWM1)*%
X120580000Y-144672500D03*
%TD*%
D15*
%TO.P,SW25,1,C*%
%TO.N,Net-(SW1-C)*%
X153355955Y-42336699D03*
%TO.P,SW25,2,B*%
%TO.N,Net-(J26-Pin_1)*%
X155105955Y-40036699D03*
%TO.P,SW25,3,A*%
%TO.N,Net-(SW1-A)*%
X156855955Y-42336699D03*
%TD*%
%TO.P,SW26,1,C*%
%TO.N,Net-(SW1-C)*%
X141863753Y-42385315D03*
%TO.P,SW26,2,B*%
%TO.N,Net-(J27-Pin_1)*%
X143613753Y-40085315D03*
%TO.P,SW26,3,A*%
%TO.N,Net-(SW1-A)*%
X145363753Y-42385315D03*
%TD*%
D13*
%TO.P,J19,1,Pin_1*%
%TO.N,Net-(J19-Pin_1)*%
X235590000Y-30827500D03*
D12*
%TO.P,J19,2,Pin_2*%
%TO.N,Net-(J1-GPIO17{slash}SPI1_~{CE1})*%
X230510000Y-30827500D03*
%TD*%
D11*
%TO.P,J11,1,Pin_1*%
%TO.N,Net-(J11-Pin_1)*%
X161455000Y-144672500D03*
D12*
%TO.P,J11,2,Pin_2*%
%TO.N,Net-(J1-MISO_SPI0{slash}GPIO09)*%
X166535000Y-144672500D03*
%TD*%
D15*
%TO.P,SW22,1,C*%
%TO.N,Net-(SW1-C)*%
X187867659Y-42367040D03*
%TO.P,SW22,2,B*%
%TO.N,Net-(J23-Pin_1)*%
X189617659Y-40067040D03*
%TO.P,SW22,3,A*%
%TO.N,Net-(SW1-A)*%
X191367659Y-42367040D03*
%TD*%
D13*
%TO.P,J25,1,Pin_1*%
%TO.N,Net-(J25-Pin_1)*%
X166625000Y-31000000D03*
D12*
%TO.P,J25,2,Pin_2*%
%TO.N,Net-(J1-GPIO23{slash}SDIO_CMD)*%
X161545000Y-31000000D03*
%TD*%
D14*
%TO.P,SW6,1,C*%
%TO.N,Net-(SW1-C)*%
X209250000Y-129700000D03*
%TO.P,SW6,2,B*%
%TO.N,Net-(J7-Pin_1)*%
X207500000Y-132000000D03*
%TO.P,SW6,3,A*%
%TO.N,Net-(SW1-A)*%
X205750000Y-129700000D03*
%TD*%
D11*
%TO.P,J9,1,Pin_1*%
%TO.N,Net-(J9-Pin_1)*%
X184455000Y-144672500D03*
D12*
%TO.P,J9,2,Pin_2*%
%TO.N,Net-(J1-~{CE1}_SPI0{slash}GPIO07)*%
X189535000Y-144672500D03*
%TD*%
D10*
%TO.P,R23,1*%
%TO.N,Net-(SW1-A)*%
X173857166Y-41192149D03*
%TO.P,R23,2*%
%TO.N,Net-(J1-GPIO22{slash}SDIO_CLK)*%
X173042166Y-41192149D03*
%TD*%
D14*
%TO.P,SW7,1,C*%
%TO.N,Net-(SW1-C)*%
X197750000Y-129700000D03*
%TO.P,SW7,2,B*%
%TO.N,Net-(J8-Pin_1)*%
X196000000Y-132000000D03*
%TO.P,SW7,3,A*%
%TO.N,Net-(SW1-A)*%
X194250000Y-129700000D03*
%TD*%
D13*
%TO.P,J20,1,Pin_1*%
%TO.N,Net-(J20-Pin_1)*%
X224090000Y-30827500D03*
D12*
%TO.P,J20,2,Pin_2*%
%TO.N,Net-(J1-GPIO18{slash}SPI1_~{CE0}{slash}PCM_CLK{slash}PWM0)*%
X219010000Y-30827500D03*
%TD*%
D11*
%TO.P,J3,1,Pin_1*%
%TO.N,Net-(J3-Pin_1)*%
X253455000Y-144672500D03*
D12*
%TO.P,J3,2,Pin_2*%
%TO.N,Net-(J1-ID_SC_I2C0{slash}GPIO01)*%
X258535000Y-144672500D03*
%TD*%
D15*
%TO.P,SW20,1,C*%
%TO.N,Net-(SW1-C)*%
X210815062Y-42394343D03*
%TO.P,SW20,2,B*%
%TO.N,Net-(J21-Pin_1)*%
X212565062Y-40094343D03*
%TO.P,SW20,3,A*%
%TO.N,Net-(SW1-A)*%
X214315062Y-42394343D03*
%TD*%
D11*
%TO.P,J6,1,Pin_1*%
%TO.N,Net-(J6-Pin_1)*%
X218955000Y-144672500D03*
D12*
%TO.P,J6,2,Pin_2*%
%TO.N,Net-(J1-GPCLK0{slash}GPIO04)*%
X224035000Y-144672500D03*
%TD*%
D13*
%TO.P,J29,1,Pin_1*%
%TO.N,Net-(J29-Pin_1)*%
X120625000Y-31000000D03*
D12*
%TO.P,J29,2,Pin_2*%
%TO.N,Net-(J1-GPIO27{slash}SDIO_DAT3)*%
X115545000Y-31000000D03*
%TD*%
D13*
%TO.P,J27,1,Pin_1*%
%TO.N,Net-(J27-Pin_1)*%
X143625000Y-31000000D03*
D12*
%TO.P,J27,2,Pin_2*%
%TO.N,Net-(J1-GPIO25{slash}SDIO_DAT1)*%
X138545000Y-31000000D03*
%TD*%
D10*
%TO.P,R5,1*%
%TO.N,Net-(SW1-A)*%
X224840000Y-131000000D03*
%TO.P,R5,2*%
%TO.N,Net-(J1-GPCLK0{slash}GPIO04)*%
X224025000Y-131000000D03*
%TD*%
%TO.P,R24,1*%
%TO.N,Net-(SW1-A)*%
X162336981Y-41236224D03*
%TO.P,R24,2*%
%TO.N,Net-(J1-GPIO23{slash}SDIO_CMD)*%
X161521981Y-41236224D03*
%TD*%
D14*
%TO.P,SW9,1,C*%
%TO.N,Net-(SW1-C)*%
X174750000Y-129700000D03*
%TO.P,SW9,2,B*%
%TO.N,Net-(J10-Pin_1)*%
X173000000Y-132000000D03*
%TO.P,SW9,3,A*%
%TO.N,Net-(SW1-A)*%
X171250000Y-129700000D03*
%TD*%
D10*
%TO.P,R14,1*%
%TO.N,Net-(SW1-A)*%
X121340000Y-131000000D03*
%TO.P,R14,2*%
%TO.N,Net-(J1-GPIO13{slash}PWM1)*%
X120525000Y-131000000D03*
%TD*%
%TO.P,R16,1*%
%TO.N,Net-(SW1-A)*%
X254176094Y-41396724D03*
%TO.P,R16,2*%
%TO.N,Net-(J1-GPIO15{slash}UART_RXD)*%
X253361094Y-41396724D03*
%TD*%
%TO.P,R25,1*%
%TO.N,Net-(SW1-A)*%
X150853006Y-41236224D03*
%TO.P,R25,2*%
%TO.N,Net-(J1-GPIO24{slash}SDIO_DAT0)*%
X150038006Y-41236224D03*
%TD*%
D14*
%TO.P,SW13,1,C*%
%TO.N,Net-(SW1-C)*%
X128750000Y-129700000D03*
%TO.P,SW13,2,B*%
%TO.N,Net-(J14-Pin_1)*%
X127000000Y-132000000D03*
%TO.P,SW13,3,A*%
%TO.N,Net-(SW1-A)*%
X125250000Y-129700000D03*
%TD*%
D15*
%TO.P,SW19,1,C*%
%TO.N,Net-(SW1-C)*%
X222318698Y-42432262D03*
%TO.P,SW19,2,B*%
%TO.N,Net-(J20-Pin_1)*%
X224068698Y-40132262D03*
%TO.P,SW19,3,A*%
%TO.N,Net-(SW1-A)*%
X225818698Y-42432262D03*
%TD*%
D10*
%TO.P,R13,1*%
%TO.N,Net-(SW1-A)*%
X132840000Y-131000000D03*
%TO.P,R13,2*%
%TO.N,Net-(J1-GPIO12{slash}PWM0)*%
X132025000Y-131000000D03*
%TD*%
%TO.P,R7,1*%
%TO.N,Net-(SW1-A)*%
X201815000Y-131000000D03*
%TO.P,R7,2*%
%TO.N,Net-(J1-GPCLK2{slash}GPIO06)*%
X201000000Y-131000000D03*
%TD*%
D14*
%TO.P,SW8,1,C*%
%TO.N,Net-(SW1-C)*%
X186250000Y-129700000D03*
%TO.P,SW8,2,B*%
%TO.N,Net-(J9-Pin_1)*%
X184500000Y-132000000D03*
%TO.P,SW8,3,A*%
%TO.N,Net-(SW1-A)*%
X182750000Y-129700000D03*
%TD*%
D10*
%TO.P,R22,1*%
%TO.N,Net-(SW1-A)*%
X185351793Y-41264680D03*
%TO.P,R22,2*%
%TO.N,Net-(J1-GPIO21{slash}SPI1_SCLK{slash}PCM_DOUT)*%
X184536793Y-41264680D03*
%TD*%
%TO.P,R17,1*%
%TO.N,Net-(SW1-A)*%
X242774858Y-41234351D03*
%TO.P,R17,2*%
%TO.N,Net-(J1-GPIO16{slash}SPI1_~{CE2})*%
X241959858Y-41234351D03*
%TD*%
%TO.P,R27,1*%
%TO.N,Net-(SW1-A)*%
X127857405Y-41282587D03*
%TO.P,R27,2*%
%TO.N,Net-(J1-GPIO26{slash}SDIO_DAT2)*%
X127042405Y-41282587D03*
%TD*%
D13*
%TO.P,J26,1,Pin_1*%
%TO.N,Net-(J26-Pin_1)*%
X155125000Y-31000000D03*
D12*
%TO.P,J26,2,Pin_2*%
%TO.N,Net-(J1-GPIO24{slash}SDIO_DAT0)*%
X150045000Y-31000000D03*
%TD*%
D15*
%TO.P,SW27,1,C*%
%TO.N,Net-(SW1-C)*%
X130388029Y-42341013D03*
%TO.P,SW27,2,B*%
%TO.N,Net-(J28-Pin_1)*%
X132138029Y-40041013D03*
%TO.P,SW27,3,A*%
%TO.N,Net-(SW1-A)*%
X133888029Y-42341013D03*
%TD*%
D14*
%TO.P,SW3,1,C*%
%TO.N,Net-(SW1-C)*%
X243750000Y-129700000D03*
%TO.P,SW3,2,B*%
%TO.N,Net-(J4-Pin_1)*%
X242000000Y-132000000D03*
%TO.P,SW3,3,A*%
%TO.N,Net-(SW1-A)*%
X240250000Y-129700000D03*
%TD*%
D11*
%TO.P,J7,1,Pin_1*%
%TO.N,Net-(J7-Pin_1)*%
X207455000Y-144672500D03*
D12*
%TO.P,J7,2,Pin_2*%
%TO.N,Net-(J1-GPCLK1{slash}GPIO05)*%
X212535000Y-144672500D03*
%TD*%
D11*
%TO.P,J5,1,Pin_1*%
%TO.N,Net-(J5-Pin_1)*%
X230455000Y-144672500D03*
D12*
%TO.P,J5,2,Pin_2*%
%TO.N,Net-(J1-SCL_I2C1{slash}GPIO03)*%
X235535000Y-144672500D03*
%TD*%
D14*
%TO.P,SW4,1,C*%
%TO.N,Net-(SW1-C)*%
X232250000Y-129700000D03*
%TO.P,SW4,2,B*%
%TO.N,Net-(J5-Pin_1)*%
X230500000Y-132000000D03*
%TO.P,SW4,3,A*%
%TO.N,Net-(SW1-A)*%
X228750000Y-129700000D03*
%TD*%
D10*
%TO.P,R11,1*%
%TO.N,Net-(SW1-A)*%
X155840000Y-131000000D03*
%TO.P,R11,2*%
%TO.N,Net-(J1-MOSI_SPI0{slash}GPIO10)*%
X155025000Y-131000000D03*
%TD*%
%TO.P,R2,1*%
%TO.N,Net-(SW1-A)*%
X259407500Y-131000000D03*
%TO.P,R2,2*%
%TO.N,Net-(J1-ID_SC_I2C0{slash}GPIO01)*%
X258592500Y-131000000D03*
%TD*%
D11*
%TO.P,J12,1,Pin_1*%
%TO.N,Net-(J12-Pin_1)*%
X149955000Y-144672500D03*
D12*
%TO.P,J12,2,Pin_2*%
%TO.N,Net-(J1-MOSI_SPI0{slash}GPIO10)*%
X155035000Y-144672500D03*
%TD*%
D11*
%TO.P,J8,1,Pin_1*%
%TO.N,Net-(J8-Pin_1)*%
X195955000Y-144672500D03*
D12*
%TO.P,J8,2,Pin_2*%
%TO.N,Net-(J1-GPCLK2{slash}GPIO06)*%
X201035000Y-144672500D03*
%TD*%
D10*
%TO.P,R12,1*%
%TO.N,Net-(SW1-A)*%
X144475000Y-131000000D03*
%TO.P,R12,2*%
%TO.N,Net-(J1-SCLK_SPI0{slash}GPIO11)*%
X143660000Y-131000000D03*
%TD*%
D14*
%TO.P,SW11,1,C*%
%TO.N,Net-(SW1-C)*%
X151750000Y-129700000D03*
%TO.P,SW11,2,B*%
%TO.N,Net-(J12-Pin_1)*%
X150000000Y-132000000D03*
%TO.P,SW11,3,A*%
%TO.N,Net-(SW1-A)*%
X148250000Y-129700000D03*
%TD*%
D13*
%TO.P,J28,1,Pin_1*%
%TO.N,Net-(J28-Pin_1)*%
X132125000Y-31000000D03*
D12*
%TO.P,J28,2,Pin_2*%
%TO.N,Net-(J1-GPIO26{slash}SDIO_DAT2)*%
X127045000Y-31000000D03*
%TD*%
D14*
%TO.P,SW2,1,C*%
%TO.N,Net-(SW1-C)*%
X255250000Y-129700000D03*
%TO.P,SW2,2,B*%
%TO.N,Net-(J3-Pin_1)*%
X253500000Y-132000000D03*
%TO.P,SW2,3,A*%
%TO.N,Net-(SW1-A)*%
X251750000Y-129700000D03*
%TD*%
D10*
%TO.P,R15,1*%
%TO.N,Net-(SW1-A)*%
X265784597Y-41537926D03*
%TO.P,R15,2*%
%TO.N,Net-(J1-GPIO14{slash}UART_TXD)*%
X264969597Y-41537926D03*
%TD*%
%TO.P,R21,1*%
%TO.N,Net-(SW1-A)*%
X196850557Y-41202605D03*
%TO.P,R21,2*%
%TO.N,Net-(J1-GPIO20{slash}SPI1_MOSI{slash}PCM_DIN{slash}PWM1)*%
X196035557Y-41202605D03*
%TD*%
D14*
%TO.P,SW1,1,C*%
%TO.N,Net-(SW1-C)*%
X266750000Y-129700000D03*
%TO.P,SW1,2,B*%
%TO.N,Net-(J2-Pin_1)*%
X265000000Y-132000000D03*
%TO.P,SW1,3,A*%
%TO.N,Net-(SW1-A)*%
X263250000Y-129700000D03*
%TD*%
D15*
%TO.P,SW23,1,C*%
%TO.N,Net-(SW1-C)*%
X176390867Y-42352231D03*
%TO.P,SW23,2,B*%
%TO.N,Net-(J24-Pin_1)*%
X178140867Y-40052231D03*
%TO.P,SW23,3,A*%
%TO.N,Net-(SW1-A)*%
X179890867Y-42352231D03*
%TD*%
D10*
%TO.P,R28,1*%
%TO.N,Net-(SW1-A)*%
X116405073Y-41204989D03*
%TO.P,R28,2*%
%TO.N,Net-(J1-GPIO27{slash}SDIO_DAT3)*%
X115590073Y-41204989D03*
%TD*%
D13*
%TO.P,J16,1,Pin_1*%
%TO.N,Net-(J16-Pin_1)*%
X270045000Y-30827500D03*
D12*
%TO.P,J16,2,Pin_2*%
%TO.N,Net-(J1-GPIO14{slash}UART_TXD)*%
X264965000Y-30827500D03*
%TD*%
D15*
%TO.P,SW24,1,C*%
%TO.N,Net-(SW1-C)*%
X164879258Y-42356364D03*
%TO.P,SW24,2,B*%
%TO.N,Net-(J25-Pin_1)*%
X166629258Y-40056364D03*
%TO.P,SW24,3,A*%
%TO.N,Net-(SW1-A)*%
X168379258Y-42356364D03*
%TD*%
D13*
%TO.P,J18,1,Pin_1*%
%TO.N,Net-(J18-Pin_1)*%
X247045000Y-30827500D03*
D12*
%TO.P,J18,2,Pin_2*%
%TO.N,Net-(J1-GPIO16{slash}SPI1_~{CE2})*%
X241965000Y-30827500D03*
%TD*%
D15*
%TO.P,SW16,1,C*%
%TO.N,Net-(SW1-C)*%
X256833236Y-42463442D03*
%TO.P,SW16,2,B*%
%TO.N,Net-(J17-Pin_1)*%
X258583236Y-40163442D03*
%TO.P,SW16,3,A*%
%TO.N,Net-(SW1-A)*%
X260333236Y-42463442D03*
%TD*%
D13*
%TO.P,J22,1,Pin_1*%
%TO.N,Net-(J22-Pin_1)*%
X201090000Y-30827500D03*
D12*
%TO.P,J22,2,Pin_2*%
%TO.N,Net-(J1-GPIO20{slash}SPI1_MOSI{slash}PCM_DIN{slash}PWM1)*%
X196010000Y-30827500D03*
%TD*%
D14*
%TO.P,SW14,1,C*%
%TO.N,Net-(SW1-C)*%
X117250000Y-129700000D03*
%TO.P,SW14,2,B*%
%TO.N,Net-(J15-Pin_1)*%
X115500000Y-132000000D03*
%TO.P,SW14,3,A*%
%TO.N,Net-(SW1-A)*%
X113750000Y-129700000D03*
%TD*%
D11*
%TO.P,J2,1,Pin_1*%
%TO.N,Net-(J2-Pin_1)*%
X264920000Y-144672500D03*
D12*
%TO.P,J2,2,Pin_2*%
%TO.N,Net-(J1-ID_SD_I2C0{slash}GPIO00)*%
X270000000Y-144672500D03*
%TD*%
D10*
%TO.P,R8,1*%
%TO.N,Net-(SW1-A)*%
X190407500Y-131000000D03*
%TO.P,R8,2*%
%TO.N,Net-(J1-~{CE1}_SPI0{slash}GPIO07)*%
X189592500Y-131000000D03*
%TD*%
%TO.P,R9,1*%
%TO.N,Net-(SW1-A)*%
X178840000Y-131000000D03*
%TO.P,R9,2*%
%TO.N,Net-(J1-~{CE0}_SPI0{slash}GPIO08)*%
X178025000Y-131000000D03*
%TD*%
D18*
%TO.N,Net-(J1-GPIO14{slash}UART_TXD)*%
X215143807Y-48920000D03*
%TO.N,Net-(J1-GPIO23{slash}SDIO_CMD)*%
X209824726Y-49405805D03*
%TO.N,Net-(J1-MISO_SPI0{slash}GPIO09)*%
X166500000Y-123800000D03*
%TO.N,Net-(J1-~{CE0}_SPI0{slash}GPIO08)*%
X178000000Y-120500000D03*
X237951000Y-60500000D03*
%TO.N,Net-(J1-GPIO17{slash}SPI1_~{CE1})*%
X221000000Y-51000000D03*
%TO.N,Net-(J1-GPIO25{slash}SDIO_DAT1)*%
X163000000Y-47500000D03*
%TO.N,Net-(J1-GPIO13{slash}PWM1)*%
X223000000Y-82500000D03*
%TO.N,Net-(J1-GPCLK2{slash}GPIO06)*%
X201000000Y-102000000D03*
%TO.N,Net-(J1-MOSI_SPI0{slash}GPIO10)*%
X155000000Y-124000000D03*
%TO.N,Net-(J1-GPIO27{slash}SDIO_DAT3)*%
X121000000Y-48000000D03*
%TO.N,Net-(J1-GPIO20{slash}SPI1_MOSI{slash}PCM_DIN{slash}PWM1)*%
X200050000Y-46580000D03*
%TO.N,Net-(J1-GPIO24{slash}SDIO_DAT0)*%
X152500000Y-46000000D03*
%TO.N,Net-(J1-SCLK_SPI0{slash}GPIO11)*%
X209920000Y-83080000D03*
%TO.N,Net-(J1-GPIO14{slash}UART_TXD)*%
X225000000Y-49000000D03*
%TO.N,Net-(J1-SCL_I2C1{slash}GPIO03)*%
X235400000Y-77500000D03*
X235500000Y-125000000D03*
%TO.N,Net-(SW1-C)*%
X255246437Y-127500000D03*
X222336820Y-44890253D03*
X266698490Y-127500000D03*
X197763489Y-127500000D03*
X268226335Y-44890253D03*
X232259462Y-127500000D03*
X151756423Y-127500000D03*
X130399902Y-44890253D03*
X245216041Y-44890253D03*
X186254490Y-127500000D03*
X128699733Y-127463151D03*
X210815626Y-44890253D03*
X256843331Y-44890253D03*
X176410592Y-44890253D03*
X117250000Y-127500000D03*
X209241466Y-127500000D03*
X140500000Y-127500000D03*
X164889398Y-44890253D03*
X163237629Y-127500000D03*
X153368204Y-44890253D03*
X187878937Y-44890253D03*
X118877608Y-44877608D03*
X220750464Y-127500000D03*
X174745492Y-127500000D03*
X243768461Y-127500000D03*
X233872267Y-44890253D03*
X141873435Y-44890253D03*
X199373706Y-44890253D03*
%TO.N,Net-(J1-GPIO15{slash}UART_RXD)*%
X220000000Y-51000000D03*
%TO.N,Net-(J1-GPCLK1{slash}GPIO05)*%
X212500000Y-87960000D03*
%TO.N,Net-(J1-GPIO26{slash}SDIO_DAT2)*%
X209907403Y-50601000D03*
X222825735Y-51174265D03*
%TO.N,Net-(J1-GPIO16{slash}SPI1_~{CE2})*%
X245770000Y-47230000D03*
%TO.N,Net-(J1-~{CE1}_SPI0{slash}GPIO07)*%
X184000000Y-112500000D03*
%TO.N,Net-(J1-GPCLK0{slash}GPIO04)*%
X216500000Y-66000000D03*
%TO.N,Net-(J1-GPIO21{slash}SPI1_SCLK{slash}PCM_DOUT)*%
X187000000Y-46000000D03*
%TO.N,Net-(J1-GPIO12{slash}PWM0)*%
X132000000Y-126000000D03*
%TO.N,Net-(J1-GPIO19{slash}SPI1_MISO{slash}PCM_FS)*%
X212100000Y-47100000D03*
%TD*%
D19*
%TO.N,Net-(J1-GPIO25{slash}SDIO_DAT1)*%
X138520843Y-41198992D02*
X138520843Y-42387604D01*
X138520843Y-42387604D02*
X143633239Y-47500000D01*
X143633239Y-47500000D02*
X163000000Y-47500000D01*
%TO.N,Net-(J1-GPIO14{slash}UART_TXD)*%
X215143807Y-48920000D02*
X215143807Y-52163807D01*
X215143807Y-52163807D02*
X216480000Y-53500000D01*
%TO.N,Net-(J1-GPIO16{slash}SPI1_~{CE2})*%
X245770000Y-47230000D02*
X241959858Y-43419858D01*
X241959858Y-43419858D02*
X241959858Y-41234351D01*
%TO.N,Net-(J1-GPIO26{slash}SDIO_DAT2)*%
X209907403Y-50601000D02*
X209806403Y-50500000D01*
X135159706Y-50500000D02*
X127042405Y-42382699D01*
X209806403Y-50500000D02*
X135159706Y-50500000D01*
X127042405Y-42382699D02*
X127042405Y-41282587D01*
%TO.N,Net-(J1-GPIO20{slash}SPI1_MOSI{slash}PCM_DIN{slash}PWM1)*%
X196035557Y-42535557D02*
X196035557Y-41202605D01*
X200050000Y-46580000D02*
X200050000Y-46550000D01*
X200050000Y-46550000D02*
X196035557Y-42535557D01*
%TO.N,Net-(J1-GPIO23{slash}SDIO_CMD)*%
X161521981Y-41236224D02*
X161521981Y-42372779D01*
X161521981Y-42372779D02*
X168649202Y-49500000D01*
X161521981Y-41236224D02*
X161521981Y-31023019D01*
X161521981Y-31023019D02*
X161545000Y-31000000D01*
X168649202Y-49500000D02*
X209730531Y-49500000D01*
X209730531Y-49500000D02*
X209824726Y-49405805D01*
%TO.N,Net-(J1-MISO_SPI0{slash}GPIO09)*%
X166525000Y-123825000D02*
X166500000Y-123800000D01*
X166535000Y-144672500D02*
X166535000Y-131010000D01*
X166535000Y-131010000D02*
X166525000Y-131000000D01*
X166525000Y-131000000D02*
X166525000Y-123825000D01*
%TO.N,Net-(SW1-A)*%
X162336981Y-41236224D02*
X167259118Y-41236224D01*
X262000000Y-130950000D02*
X262000000Y-146500000D01*
X124000000Y-130950000D02*
X124000000Y-146500000D01*
X121215717Y-41204989D02*
X122377608Y-42366880D01*
X215950000Y-131000000D02*
X216000000Y-131050000D01*
X224100000Y-53500000D02*
X225000000Y-53500000D01*
X148250000Y-129700000D02*
X146950000Y-131000000D01*
X257120000Y-56040000D02*
X255969000Y-57191000D01*
X261950000Y-131000000D02*
X263250000Y-129700000D01*
X122377608Y-42366880D02*
X122377608Y-29122392D01*
X265784597Y-41537926D02*
X265818450Y-41504073D01*
X139335843Y-41198992D02*
X144177430Y-41198992D01*
X271601000Y-145335656D02*
X270436656Y-146500000D01*
X203000000Y-29000000D02*
X214500000Y-29000000D01*
X168379258Y-29120742D02*
X168500000Y-29000000D01*
X201667165Y-41202605D02*
X202848268Y-42383708D01*
X271742029Y-56000000D02*
X271742029Y-130097971D01*
X216000000Y-131050000D02*
X216000000Y-146500000D01*
X239000000Y-146500000D02*
X227500000Y-146500000D01*
X227500000Y-130950000D02*
X227500000Y-146500000D01*
X196850557Y-41202605D02*
X201667165Y-41202605D01*
X158500000Y-146500000D02*
X147000000Y-146500000D01*
X225000000Y-53500000D02*
X226151000Y-54651000D01*
X238950000Y-131000000D02*
X240250000Y-129700000D01*
X133888029Y-29111971D02*
X134000000Y-29000000D01*
X190407500Y-131000000D02*
X192950000Y-131000000D01*
X171250000Y-129700000D02*
X170000000Y-130950000D01*
X208293748Y-41197701D02*
X213118420Y-41197701D01*
X251325240Y-57191000D02*
X250651000Y-56516760D01*
X263250000Y-129700000D02*
X262000000Y-130950000D01*
X205750000Y-129700000D02*
X204500000Y-130950000D01*
X262000000Y-146500000D02*
X250500000Y-146500000D01*
X250651000Y-56516760D02*
X250651000Y-54651000D01*
X202848268Y-29151732D02*
X203000000Y-29000000D01*
X137000000Y-129700000D02*
X135700000Y-131000000D01*
X271601000Y-131761000D02*
X271601000Y-145335656D01*
X248151000Y-54849000D02*
X249500000Y-53500000D01*
X270840000Y-131000000D02*
X271601000Y-131761000D01*
X260333236Y-42463442D02*
X260333236Y-29166764D01*
X182750000Y-129700000D02*
X181500000Y-130950000D01*
X204500000Y-146500000D02*
X193000000Y-146500000D01*
X228750000Y-129700000D02*
X227500000Y-130950000D01*
X135500000Y-131200000D02*
X135500000Y-146500000D01*
X191367659Y-42367040D02*
X191367659Y-29132341D01*
X227500000Y-146500000D02*
X216000000Y-146500000D01*
X121340000Y-131000000D02*
X123950000Y-131000000D01*
X127857405Y-41282587D02*
X127899979Y-41240013D01*
X158450000Y-131000000D02*
X159750000Y-129700000D01*
X170000000Y-130950000D02*
X170000000Y-146500000D01*
X179890867Y-29109133D02*
X180000000Y-29000000D01*
X250450000Y-131000000D02*
X250450000Y-146450000D01*
X155755480Y-41236224D02*
X156855955Y-42336699D01*
X254137558Y-41362442D02*
X259232236Y-41362442D01*
X271742029Y-42605073D02*
X271742029Y-56000000D01*
X168500000Y-29000000D02*
X180000000Y-29000000D01*
X116405073Y-41204989D02*
X121215717Y-41204989D01*
X270436656Y-146500000D02*
X262000000Y-146500000D01*
X208260814Y-41131833D02*
X208196147Y-41131833D01*
X249000000Y-29000000D02*
X260500000Y-29000000D01*
X159750000Y-129700000D02*
X158500000Y-130950000D01*
X148250000Y-129700000D02*
X147000000Y-130950000D01*
X232871000Y-52349000D02*
X231720000Y-53500000D01*
X236210409Y-41272738D02*
X237360409Y-42422738D01*
X259407500Y-131000000D02*
X261950000Y-131000000D01*
X113750000Y-129700000D02*
X113750000Y-30250000D01*
X147000000Y-146500000D02*
X135500000Y-146500000D01*
X157000000Y-29000000D02*
X168500000Y-29000000D01*
X245769000Y-54849000D02*
X248151000Y-54849000D01*
X204500000Y-130950000D02*
X204500000Y-146500000D01*
X216000000Y-146500000D02*
X204500000Y-146500000D01*
X226000000Y-29000000D02*
X237500000Y-29000000D01*
X192950000Y-131000000D02*
X194250000Y-129700000D01*
X240250000Y-129700000D02*
X239000000Y-130950000D01*
X271742029Y-56000000D02*
X271702029Y-56040000D01*
X190265299Y-41264680D02*
X191367659Y-42367040D01*
X215950000Y-131000000D02*
X217250000Y-129700000D01*
X156855955Y-29144045D02*
X157000000Y-29000000D01*
X237360409Y-29139591D02*
X237500000Y-29000000D01*
X180000000Y-29000000D02*
X191500000Y-29000000D01*
X230569000Y-54651000D02*
X231720000Y-53500000D01*
X145500000Y-29000000D02*
X157000000Y-29000000D01*
X242774858Y-41234351D02*
X247535916Y-41234351D01*
X145363753Y-42385315D02*
X145363753Y-29136247D01*
X239340000Y-55127760D02*
X238189000Y-53976760D01*
X132840000Y-131000000D02*
X135700000Y-131000000D01*
X237360409Y-42422738D02*
X237360409Y-29139591D01*
X193000000Y-146500000D02*
X181500000Y-146500000D01*
X226151000Y-54651000D02*
X230569000Y-54651000D01*
X156855955Y-42336699D02*
X156855955Y-29144045D01*
X127899979Y-41240013D02*
X132787029Y-41240013D01*
X250651000Y-54651000D02*
X249500000Y-53500000D01*
X271742029Y-29638369D02*
X271742029Y-42605073D01*
X271702029Y-56040000D02*
X257120000Y-56040000D01*
X125250000Y-129700000D02*
X124000000Y-130950000D01*
X181500000Y-146500000D02*
X170000000Y-146500000D01*
X155840000Y-131000000D02*
X158450000Y-131000000D01*
X114441340Y-146500000D02*
X113750000Y-145808660D01*
X224662504Y-41276068D02*
X225818698Y-42432262D01*
X144475000Y-131000000D02*
X146950000Y-131000000D01*
X169950000Y-131000000D02*
X171250000Y-129700000D01*
X193000000Y-130950000D02*
X193000000Y-146500000D01*
X135500000Y-146500000D02*
X124000000Y-146500000D01*
X236315000Y-131000000D02*
X238950000Y-131000000D01*
X214315062Y-42394343D02*
X214315062Y-29184938D01*
X134000000Y-29000000D02*
X145500000Y-29000000D01*
X239340000Y-56040000D02*
X239340000Y-55127760D01*
X178730785Y-41192149D02*
X179890867Y-42352231D01*
X181450000Y-131000000D02*
X182750000Y-129700000D01*
X237276760Y-52349000D02*
X232871000Y-52349000D01*
X123950000Y-131000000D02*
X125250000Y-129700000D01*
X250450000Y-146450000D02*
X250500000Y-146500000D01*
X179890867Y-42352231D02*
X179890867Y-29109133D01*
X124000000Y-146500000D02*
X114441340Y-146500000D01*
X271103660Y-29000000D02*
X271742029Y-29638369D01*
X115000000Y-29000000D02*
X122500000Y-29000000D01*
X185351793Y-41264680D02*
X190265299Y-41264680D01*
X225818698Y-29181302D02*
X226000000Y-29000000D01*
X238189000Y-53261240D02*
X237276760Y-52349000D01*
X191500000Y-29000000D02*
X203000000Y-29000000D01*
X133888029Y-42341013D02*
X133888029Y-29111971D01*
X137000000Y-129700000D02*
X135500000Y-131200000D01*
X219802898Y-41276068D02*
X224662504Y-41276068D01*
X204450000Y-131000000D02*
X205750000Y-129700000D01*
X247907500Y-131000000D02*
X250450000Y-131000000D01*
X167259118Y-41236224D02*
X168379258Y-42356364D01*
X202848268Y-42383708D02*
X202848268Y-29151732D01*
X270641029Y-41504073D02*
X271742029Y-42605073D01*
X170000000Y-146500000D02*
X158500000Y-146500000D01*
X260500000Y-29000000D02*
X271103660Y-29000000D01*
X255969000Y-57191000D02*
X251325240Y-57191000D01*
X231277887Y-41272738D02*
X236210409Y-41272738D01*
X144177430Y-41198992D02*
X145363753Y-42385315D01*
X254176094Y-41396724D02*
X254103276Y-41396724D01*
X158500000Y-130950000D02*
X158500000Y-146500000D01*
X244420000Y-53500000D02*
X245769000Y-54849000D01*
X213340000Y-131000000D02*
X215950000Y-131000000D01*
X247535916Y-41234351D02*
X248728613Y-42427048D01*
X167340000Y-131000000D02*
X169950000Y-131000000D01*
X239000000Y-130950000D02*
X239000000Y-146500000D01*
X213118420Y-41197701D02*
X214315062Y-42394343D01*
X224840000Y-131000000D02*
X227450000Y-131000000D01*
X259232236Y-41362442D02*
X260333236Y-42463442D01*
X271742029Y-130097971D02*
X270840000Y-131000000D01*
X248728613Y-29271387D02*
X249000000Y-29000000D01*
X214500000Y-29000000D02*
X226000000Y-29000000D01*
X265818450Y-41504073D02*
X270641029Y-41504073D01*
X122500000Y-29000000D02*
X134000000Y-29000000D01*
X122377608Y-29122392D02*
X122500000Y-29000000D01*
X150853006Y-41236224D02*
X155755480Y-41236224D01*
X181500000Y-130950000D02*
X181500000Y-146500000D01*
X145363753Y-29136247D02*
X145500000Y-29000000D01*
X113750000Y-145808660D02*
X113750000Y-129700000D01*
X132787029Y-41240013D02*
X133888029Y-42341013D01*
X260333236Y-29166764D02*
X260500000Y-29000000D01*
X194250000Y-129700000D02*
X193000000Y-130950000D01*
X250500000Y-146500000D02*
X239000000Y-146500000D01*
X238189000Y-53976760D02*
X238189000Y-53261240D01*
X214315062Y-29184938D02*
X214500000Y-29000000D01*
X248728613Y-42427048D02*
X248728613Y-29271387D01*
X201815000Y-131000000D02*
X204450000Y-131000000D01*
X178840000Y-131000000D02*
X181450000Y-131000000D01*
X147000000Y-130950000D02*
X147000000Y-146500000D01*
X227450000Y-131000000D02*
X228750000Y-129700000D01*
X173857166Y-41192149D02*
X178730785Y-41192149D01*
X237500000Y-29000000D02*
X249000000Y-29000000D01*
X191367659Y-29132341D02*
X191500000Y-29000000D01*
X113750000Y-30250000D02*
X115000000Y-29000000D01*
X225818698Y-42432262D02*
X225818698Y-29181302D01*
X250450000Y-131000000D02*
X251750000Y-129700000D01*
X168379258Y-42356364D02*
X168379258Y-29120742D01*
X254103276Y-41396724D02*
X254137558Y-41362442D01*
%TO.N,Net-(J1-~{CE0}_SPI0{slash}GPIO08)*%
X237951000Y-60500000D02*
X237951000Y-54651000D01*
X237951000Y-54651000D02*
X236800000Y-53500000D01*
X178025000Y-120525000D02*
X178000000Y-120500000D01*
X178025000Y-144975000D02*
X178025000Y-131000000D01*
X178035000Y-144965000D02*
X178025000Y-144975000D01*
X178035000Y-144672500D02*
X178035000Y-144965000D01*
X178025000Y-131000000D02*
X178025000Y-120525000D01*
%TO.N,Net-(J1-GPIO17{slash}SPI1_~{CE1})*%
X230462887Y-30874613D02*
X230510000Y-30827500D01*
X230462887Y-41537113D02*
X230462887Y-41272738D01*
X221000000Y-51000000D02*
X230462887Y-41537113D01*
X230462887Y-41272738D02*
X230462887Y-30874613D01*
%TO.N,Net-(J1-GPIO25{slash}SDIO_DAT1)*%
X138520843Y-31024157D02*
X138545000Y-31000000D01*
X138520843Y-41198992D02*
X138520843Y-31024157D01*
%TO.N,Net-(J1-GPIO13{slash}PWM1)*%
X120525000Y-130548000D02*
X168573000Y-82500000D01*
X120580000Y-131055000D02*
X120525000Y-131000000D01*
X120580000Y-144672500D02*
X120580000Y-131055000D01*
X168573000Y-82500000D02*
X223000000Y-82500000D01*
X120525000Y-131000000D02*
X120525000Y-130548000D01*
%TO.N,Net-(J1-GPCLK2{slash}GPIO06)*%
X201035000Y-144672500D02*
X201035000Y-131035000D01*
X201000000Y-131000000D02*
X201000000Y-102000000D01*
X201035000Y-131035000D02*
X201000000Y-131000000D01*
%TO.N,Net-(J1-MOSI_SPI0{slash}GPIO10)*%
X155035000Y-144672500D02*
X155035000Y-144535000D01*
X155000000Y-144500000D02*
X155025000Y-144475000D01*
X155035000Y-144535000D02*
X155000000Y-144500000D01*
X155000000Y-130975000D02*
X155000000Y-124000000D01*
X155025000Y-131000000D02*
X155000000Y-130975000D01*
X155025000Y-144475000D02*
X155025000Y-131000000D01*
%TO.N,Net-(J1-GPIO27{slash}SDIO_DAT3)*%
X115590073Y-41204989D02*
X115590073Y-31045073D01*
X115590073Y-41204989D02*
X115590073Y-42590073D01*
X115590073Y-31045073D02*
X115545000Y-31000000D01*
X115590073Y-42590073D02*
X120500000Y-47500000D01*
X120500000Y-47500000D02*
X121000000Y-48000000D01*
%TO.N,Net-(J1-GPIO20{slash}SPI1_MOSI{slash}PCM_DIN{slash}PWM1)*%
X196035557Y-30853057D02*
X196010000Y-30827500D01*
X196035557Y-41202605D02*
X196035557Y-30853057D01*
%TO.N,Net-(J1-GPIO24{slash}SDIO_DAT0)*%
X150038006Y-31006994D02*
X150045000Y-31000000D01*
X150038006Y-43538006D02*
X152500000Y-46000000D01*
X150038006Y-41236224D02*
X150038006Y-43538006D01*
X150038006Y-41236224D02*
X150038006Y-31006994D01*
%TO.N,Net-(J1-SCLK_SPI0{slash}GPIO11)*%
X143660000Y-131000000D02*
X143660000Y-123340000D01*
X143660000Y-123340000D02*
X184000000Y-83000000D01*
X143500000Y-144500000D02*
X143660000Y-144340000D01*
X184000000Y-83000000D02*
X209840000Y-83000000D01*
X209840000Y-83000000D02*
X209920000Y-83080000D01*
X143535000Y-144672500D02*
X143535000Y-144535000D01*
X143660000Y-144340000D02*
X143660000Y-131000000D01*
X143535000Y-144535000D02*
X143500000Y-144500000D01*
%TO.N,Net-(J1-GPIO14{slash}UART_TXD)*%
X265000000Y-41500000D02*
X264965000Y-41465000D01*
X264969597Y-41537926D02*
X264969597Y-41530403D01*
X264965000Y-41465000D02*
X264965000Y-30827500D01*
X264969597Y-41530403D02*
X265000000Y-41500000D01*
X257507523Y-49000000D02*
X264969597Y-41537926D01*
X225000000Y-49000000D02*
X257507523Y-49000000D01*
%TO.N,Net-(J1-SCL_I2C1{slash}GPIO03)*%
X235400000Y-77500000D02*
X235500000Y-77500000D01*
X235535000Y-144672500D02*
X235535000Y-131035000D01*
X235500000Y-131000000D02*
X235500000Y-125000000D01*
X213940000Y-56040000D02*
X235400000Y-77500000D01*
X235535000Y-131035000D02*
X235500000Y-131000000D01*
%TO.N,Net-(SW1-C)*%
X187867659Y-44757912D02*
X187867659Y-42367040D01*
X210815062Y-44705315D02*
X210815062Y-42394343D01*
X174750000Y-127577022D02*
X174771316Y-127555706D01*
X268226335Y-44647976D02*
X268242029Y-44632282D01*
X268242029Y-44632282D02*
X268242029Y-42605073D01*
X176410592Y-44800845D02*
X176390867Y-44781120D01*
X232250000Y-127509462D02*
X232259462Y-127500000D01*
X164879258Y-44769511D02*
X164879258Y-42356364D01*
X130399902Y-44890253D02*
X130399902Y-44790155D01*
X153368204Y-44890253D02*
X153368204Y-44758457D01*
X220750000Y-127500464D02*
X220750464Y-127500000D01*
X255250000Y-129700000D02*
X255250000Y-127503563D01*
X266750000Y-127551510D02*
X266698490Y-127500000D01*
X222318698Y-44708951D02*
X222318698Y-42432262D01*
X187878937Y-44890253D02*
X187878937Y-44769190D01*
X141863753Y-44754006D02*
X141863753Y-42385315D01*
X268226335Y-44890253D02*
X268226335Y-44647976D01*
X130000000Y-56000000D02*
X118877608Y-44877608D01*
X128750000Y-129700000D02*
X128750000Y-127513418D01*
X117250000Y-68750000D02*
X117250000Y-127500000D01*
X199348268Y-44738521D02*
X199348268Y-42383708D01*
X210815626Y-44890253D02*
X210815626Y-44705879D01*
X220750000Y-129700000D02*
X220750000Y-127500464D01*
X233872267Y-44762520D02*
X233860409Y-44750662D01*
X164889398Y-44779651D02*
X164879258Y-44769511D01*
X130040000Y-56040000D02*
X130000000Y-56000000D01*
X256833236Y-44723489D02*
X256833236Y-42463442D01*
X151750000Y-129700000D02*
X151750000Y-127513876D01*
X174750000Y-129700000D02*
X174750000Y-127577022D01*
X186250000Y-129700000D02*
X186250000Y-127504490D01*
X118877608Y-44877608D02*
X118877608Y-42366880D01*
X141873435Y-44890253D02*
X141873435Y-44763688D01*
X210815626Y-44705879D02*
X210815062Y-44705315D01*
X208860000Y-56040000D02*
X130040000Y-56040000D01*
X245228613Y-44618866D02*
X245228613Y-42427048D01*
X222336820Y-44890253D02*
X222336820Y-44727073D01*
X117250000Y-127500000D02*
X117250000Y-129700000D01*
X232250000Y-129700000D02*
X232250000Y-127509462D01*
X243750000Y-127518461D02*
X243768461Y-127500000D01*
X130388029Y-44778282D02*
X130388029Y-42341013D01*
X209250000Y-129700000D02*
X209250000Y-127508534D01*
X186250000Y-127504490D02*
X186254490Y-127500000D01*
X256843331Y-44733584D02*
X256833236Y-44723489D01*
X256843331Y-44890253D02*
X256843331Y-44733584D01*
X176390867Y-44781120D02*
X176390867Y-42352231D01*
X209250000Y-127508534D02*
X209241466Y-127500000D01*
X151750000Y-127513876D02*
X151736124Y-127500000D01*
X243750000Y-129700000D02*
X243750000Y-127518461D01*
X164889398Y-44890253D02*
X164889398Y-44779651D01*
X197750000Y-127513489D02*
X197763489Y-127500000D01*
X197750000Y-129700000D02*
X197750000Y-127513489D01*
X266750000Y-129700000D02*
X266750000Y-127551510D01*
X199373706Y-44890253D02*
X199373706Y-44763959D01*
X245216041Y-44890253D02*
X245216041Y-44631438D01*
X130000000Y-56000000D02*
X117250000Y-68750000D01*
X153355955Y-44746208D02*
X153355955Y-42336699D01*
X222336820Y-44727073D02*
X222318698Y-44708951D01*
X153368204Y-44758457D02*
X153355955Y-44746208D01*
X187878937Y-44769190D02*
X187867659Y-44757912D01*
X141873435Y-44763688D02*
X141863753Y-44754006D01*
X199373706Y-44763959D02*
X199348268Y-44738521D01*
X233860409Y-44750662D02*
X233860409Y-42422738D01*
X130399902Y-44790155D02*
X130388029Y-44778282D01*
X176410592Y-44890253D02*
X176410592Y-44800845D01*
X128750000Y-127513418D02*
X128699733Y-127463151D01*
X233872267Y-44890253D02*
X233872267Y-44762520D01*
X245216041Y-44631438D02*
X245228613Y-44618866D01*
X140500000Y-127601122D02*
X140512305Y-127588817D01*
X163250000Y-129700000D02*
X163250000Y-127522764D01*
X255250000Y-127503563D02*
X255246437Y-127500000D01*
X140500000Y-129700000D02*
X140500000Y-127601122D01*
%TO.N,Net-(J1-GPIO15{slash}UART_RXD)*%
X253500000Y-32000000D02*
X253361094Y-32138906D01*
X220000000Y-51000000D02*
X220913493Y-51913493D01*
X220913493Y-51936450D02*
X220913493Y-51913493D01*
X246656818Y-48101000D02*
X224748943Y-48101000D01*
X253361094Y-41396724D02*
X246656818Y-48101000D01*
X253465000Y-31965000D02*
X253500000Y-32000000D01*
X253465000Y-30827500D02*
X253465000Y-31965000D01*
X253361094Y-32138906D02*
X253361094Y-41396724D01*
X224748943Y-48101000D02*
X220913493Y-51936450D01*
%TO.N,Net-(J1-GPCLK1{slash}GPIO05)*%
X212500000Y-87960000D02*
X212525000Y-87985000D01*
X212535000Y-144672500D02*
X212535000Y-144535000D01*
X212525000Y-131000000D02*
X212500000Y-130975000D01*
X212525000Y-87985000D02*
X212525000Y-131000000D01*
X212535000Y-144535000D02*
X212500000Y-144500000D01*
X212500000Y-144500000D02*
X212525000Y-144475000D01*
X212525000Y-144475000D02*
X212525000Y-131000000D01*
%TO.N,Net-(J1-GPIO26{slash}SDIO_DAT2)*%
X251500000Y-51000000D02*
X252000000Y-51500000D01*
X223000000Y-51000000D02*
X251500000Y-51000000D01*
X253191000Y-52691000D02*
X252000000Y-51500000D01*
X222825735Y-51174265D02*
X223000000Y-51000000D01*
X254580000Y-56040000D02*
X253191000Y-54651000D01*
X127042405Y-31002595D02*
X127045000Y-31000000D01*
X127042405Y-41282587D02*
X127042405Y-31002595D01*
X253191000Y-54651000D02*
X253191000Y-52691000D01*
%TO.N,Net-(J1-ID_SD_I2C0{slash}GPIO00)*%
X270000000Y-144672500D02*
X270000000Y-131025000D01*
X270025000Y-92025000D02*
X241880000Y-63880000D01*
X270000000Y-131025000D02*
X270025000Y-131000000D01*
X270025000Y-131000000D02*
X270025000Y-92025000D01*
X241880000Y-63880000D02*
X241880000Y-56040000D01*
%TO.N,Net-(J1-GPIO16{slash}SPI1_~{CE2})*%
X241959858Y-30832642D02*
X241965000Y-30827500D01*
X241959858Y-41234351D02*
X241959858Y-30832642D01*
%TO.N,Net-(J1-ID_SC_I2C0{slash}GPIO01)*%
X258535000Y-144672500D02*
X258535000Y-131057500D01*
X258592500Y-81592500D02*
X240729000Y-63729000D01*
X240729000Y-63729000D02*
X240729000Y-54651000D01*
X258535000Y-131057500D02*
X258592500Y-131000000D01*
X240729000Y-54651000D02*
X241880000Y-53500000D01*
X258592500Y-131000000D02*
X258592500Y-81592500D01*
%TO.N,Net-(J1-~{CE1}_SPI0{slash}GPIO07)*%
X189592500Y-144407500D02*
X189592500Y-131000000D01*
X184000000Y-112500000D02*
X189299000Y-117799000D01*
X189299000Y-117799000D02*
X189299000Y-130706500D01*
X189535000Y-144672500D02*
X189535000Y-144535000D01*
X189299000Y-130706500D02*
X189592500Y-131000000D01*
X189535000Y-144535000D02*
X189500000Y-144500000D01*
X189500000Y-144500000D02*
X189592500Y-144407500D01*
%TO.N,Net-(J1-GPCLK0{slash}GPIO04)*%
X224025000Y-73525000D02*
X216500000Y-66000000D01*
X224000000Y-144500000D02*
X224025000Y-144475000D01*
X224035000Y-144672500D02*
X224035000Y-144535000D01*
X224025000Y-144475000D02*
X224025000Y-131000000D01*
X224035000Y-144535000D02*
X224000000Y-144500000D01*
X224025000Y-131000000D02*
X224025000Y-73525000D01*
%TO.N,Net-(J1-GPIO21{slash}SPI1_SCLK{slash}PCM_DOUT)*%
X184536793Y-43536793D02*
X184536793Y-41264680D01*
X184536793Y-31008207D02*
X184545000Y-31000000D01*
X184536793Y-41264680D02*
X184536793Y-31008207D01*
X187000000Y-46000000D02*
X184536793Y-43536793D01*
%TO.N,Net-(J1-GPIO18{slash}SPI1_~{CE0}{slash}PCM_CLK{slash}PWM0)*%
X218987898Y-41276068D02*
X218987898Y-41012102D01*
X218987898Y-50927898D02*
X221560000Y-53500000D01*
X218987898Y-41276068D02*
X218987898Y-50927898D01*
X218987898Y-41012102D02*
X219010000Y-40990000D01*
X219010000Y-40990000D02*
X219010000Y-30827500D01*
%TO.N,Net-(J1-GPIO22{slash}SDIO_CLK)*%
X218586898Y-51093998D02*
X220171000Y-52678100D01*
X220171000Y-52678100D02*
X220171000Y-53738760D01*
X173042166Y-31002834D02*
X173045000Y-31000000D01*
X173042166Y-41192149D02*
X173042166Y-42542166D01*
X178500000Y-48000000D02*
X215500000Y-48000000D01*
X218586898Y-51086898D02*
X218586898Y-51093998D01*
X221321240Y-54889000D02*
X225489000Y-54889000D01*
X225489000Y-54889000D02*
X226640000Y-56040000D01*
X173042166Y-42542166D02*
X178500000Y-48000000D01*
X215500000Y-48000000D02*
X218586898Y-51086898D01*
X220171000Y-53738760D02*
X221321240Y-54889000D01*
X173042166Y-41192149D02*
X173042166Y-31002834D01*
%TO.N,Net-(J1-GPIO12{slash}PWM0)*%
X132025000Y-144662500D02*
X132035000Y-144672500D01*
X132025000Y-131000000D02*
X132025000Y-130500000D01*
X132025000Y-126025000D02*
X132000000Y-126000000D01*
X132025000Y-131000000D02*
X132025000Y-144662500D01*
X132025000Y-130500000D02*
X132025000Y-126025000D01*
%TO.N,Net-(J1-GPIO19{slash}SPI1_MISO{slash}PCM_FS)*%
X207478748Y-41197701D02*
X207478748Y-30858752D01*
X212100000Y-47100000D02*
X207478748Y-42478748D01*
X207478748Y-42478748D02*
X207478748Y-41197701D01*
X207478748Y-30858752D02*
X207510000Y-30827500D01*
%TO.N,Net-(J1-SDA_I2C1{slash}GPIO02)*%
X246500000Y-130407500D02*
X247092500Y-131000000D01*
X246500000Y-91140000D02*
X246500000Y-130407500D01*
X247035000Y-144672500D02*
X247035000Y-131057500D01*
X247035000Y-131057500D02*
X247092500Y-131000000D01*
X211400000Y-56040000D02*
X246500000Y-91140000D01*
%TO.N,Net-(J2-Pin_1)*%
X264920000Y-144672500D02*
X264920000Y-132080000D01*
X264500000Y-144252500D02*
X264920000Y-144672500D01*
X265000000Y-144592500D02*
X264920000Y-144672500D01*
X264920000Y-132080000D02*
X265000000Y-132000000D01*
%TO.N,Net-(J3-Pin_1)*%
X253455000Y-132045000D02*
X253500000Y-132000000D01*
X253455000Y-144672500D02*
X253455000Y-132045000D01*
%TO.N,Net-(J4-Pin_1)*%
X241955000Y-132045000D02*
X242000000Y-132000000D01*
X241955000Y-144672500D02*
X241955000Y-132045000D01*
%TO.N,Net-(J5-Pin_1)*%
X230455000Y-132045000D02*
X230500000Y-132000000D01*
X230455000Y-144672500D02*
X230455000Y-132045000D01*
%TO.N,Net-(J6-Pin_1)*%
X218955000Y-144672500D02*
X218955000Y-132045000D01*
X218955000Y-132045000D02*
X219000000Y-132000000D01*
%TO.N,Net-(J7-Pin_1)*%
X207455000Y-144672500D02*
X207455000Y-132045000D01*
X207455000Y-132045000D02*
X207500000Y-132000000D01*
%TO.N,Net-(J8-Pin_1)*%
X195955000Y-144672500D02*
X195955000Y-132045000D01*
X195955000Y-132045000D02*
X196000000Y-132000000D01*
%TO.N,Net-(J9-Pin_1)*%
X184455000Y-144672500D02*
X184455000Y-144545000D01*
X184455000Y-144545000D02*
X184500000Y-144500000D01*
X184500000Y-144500000D02*
X184500000Y-132000000D01*
%TO.N,Net-(J10-Pin_1)*%
X172955000Y-144672500D02*
X172955000Y-132045000D01*
X172955000Y-132045000D02*
X173000000Y-132000000D01*
%TO.N,Net-(J11-Pin_1)*%
X161455000Y-144672500D02*
X161455000Y-132045000D01*
X161455000Y-132045000D02*
X161500000Y-132000000D01*
%TO.N,Net-(J12-Pin_1)*%
X150000000Y-144500000D02*
X150000000Y-132000000D01*
X149955000Y-144672500D02*
X149955000Y-144545000D01*
X149955000Y-144545000D02*
X150000000Y-144500000D01*
%TO.N,Net-(J13-Pin_1)*%
X138750000Y-144250000D02*
X138750000Y-132000000D01*
X138455000Y-144545000D02*
X138750000Y-144250000D01*
X138455000Y-144672500D02*
X138455000Y-144545000D01*
%TO.N,Net-(J14-Pin_1)*%
X126955000Y-144672500D02*
X126955000Y-144955000D01*
X127000000Y-145000000D02*
X127000000Y-132000000D01*
X126672500Y-144672500D02*
X126500000Y-144500000D01*
X126955000Y-144955000D02*
X127000000Y-145000000D01*
X126500000Y-144500000D02*
X127000000Y-144000000D01*
X126955000Y-144672500D02*
X126672500Y-144672500D01*
%TO.N,Net-(J15-Pin_1)*%
X115500000Y-144672500D02*
X115500000Y-132000000D01*
%TO.N,Net-(J16-Pin_1)*%
X269992029Y-40305073D02*
X269992029Y-40007971D01*
X270045000Y-39955000D02*
X270045000Y-30827500D01*
X269992029Y-40007971D02*
X270045000Y-39955000D01*
%TO.N,Net-(J17-Pin_1)*%
X258583236Y-30865736D02*
X258545000Y-30827500D01*
X258583236Y-40163442D02*
X258583236Y-30865736D01*
%TO.N,Net-(J18-Pin_1)*%
X246978613Y-40127048D02*
X246978613Y-30893887D01*
X246978613Y-30893887D02*
X247045000Y-30827500D01*
%TO.N,Net-(J19-Pin_1)*%
X235610409Y-40122738D02*
X235610409Y-30847909D01*
X235610409Y-30847909D02*
X235590000Y-30827500D01*
%TO.N,Net-(J20-Pin_1)*%
X224068698Y-40068698D02*
X224000000Y-40000000D01*
X224068698Y-40132262D02*
X224068698Y-40068698D01*
X224000000Y-40000000D02*
X224090000Y-39910000D01*
X224090000Y-39910000D02*
X224090000Y-30827500D01*
%TO.N,Net-(J21-Pin_1)*%
X212565062Y-30852438D02*
X212590000Y-30827500D01*
X212565062Y-40094343D02*
X212565062Y-30852438D01*
%TO.N,Net-(J22-Pin_1)*%
X201098268Y-30835768D02*
X201090000Y-30827500D01*
X201098268Y-40083708D02*
X201098268Y-30835768D01*
%TO.N,Net-(J23-Pin_1)*%
X189617659Y-40067040D02*
X189617659Y-31007341D01*
X189617659Y-31007341D02*
X189625000Y-31000000D01*
%TO.N,Net-(J24-Pin_1)*%
X178140867Y-31015867D02*
X178125000Y-31000000D01*
X178140867Y-40052231D02*
X178140867Y-31015867D01*
%TO.N,Net-(J25-Pin_1)*%
X166629258Y-31004258D02*
X166625000Y-31000000D01*
X166629258Y-40056364D02*
X166629258Y-31004258D01*
%TO.N,Net-(J26-Pin_1)*%
X155105955Y-31019045D02*
X155125000Y-31000000D01*
X155105955Y-40036699D02*
X155105955Y-31019045D01*
%TO.N,Net-(J27-Pin_1)*%
X143613753Y-40085315D02*
X143613753Y-31011247D01*
X143613753Y-31011247D02*
X143625000Y-31000000D01*
%TO.N,Net-(J28-Pin_1)*%
X132138029Y-40041013D02*
X132138029Y-31013029D01*
X132138029Y-31013029D02*
X132125000Y-31000000D01*
%TO.N,Net-(J29-Pin_1)*%
X120627608Y-31002608D02*
X120625000Y-31000000D01*
X120627608Y-40066880D02*
X120627608Y-31002608D01*
%TD*%
M02*
